<svg width="285" height="196" viewBox="0 0 285 196" fill="none" xmlns="http://www.w3.org/2000/svg">
<path fill-rule="evenodd" clip-rule="evenodd" d="M139.889 0.723785C74.7809 0.723785 22 54.0175 22 119.759C22 148.636 32.184 175.112 49.1234 195.724H230.656C247.595 175.112 257.779 148.636 257.779 119.759C257.779 54.0175 204.998 0.723785 139.889 0.723785Z" fill="url(#paint0_linear_1004_6134)"/>
<path d="M53.8327 122.7L53.7564 122.597L43.0713 104.718L43.1731 104.641L145.649 42.271L145.725 42.3738L169.156 79.0819L235.836 36.4142L225.863 20.539L265.907 29.6069L265.882 29.7353L256.952 70.0397L256.774 69.7572L246.979 54.1389L162.872 108.007L162.796 107.904L139.11 70.8104L53.8327 122.7ZM43.4529 104.796L53.9345 122.34L139.212 70.425L139.288 70.5278L162.974 107.621L247.081 53.7792L256.85 69.3461L265.627 29.7867L226.448 20.9244L236.218 36.4913L236.116 36.5683L169.105 79.4415L169.029 79.3388L145.598 42.6307L43.4529 104.796Z" fill="#331832"/>
<path d="M265.806 37.8013L226.195 28.8362L236.066 44.5572L169.182 87.379L145.674 50.5425L43.3008 112.861L53.9096 130.638L139.213 78.7222L162.949 115.918L247.081 62.0764L256.952 77.7974L265.806 37.8013Z" fill="#739936"/>
<path d="M236.676 185.045C236.549 185.019 236.421 184.916 236.37 184.762L226.499 152.318C226.449 152.113 227.848 151.907 228.051 151.856C228.255 151.804 228.458 151.933 228.509 152.113L237.083 184.557C237.134 184.762 237.006 184.968 236.828 185.019C236.777 185.045 236.727 185.07 236.676 185.045Z" fill="#331832"/>
<path d="M201.973 189.129C201.846 189.078 201.744 188.975 201.719 188.821L196.097 155.375C196.071 155.17 197.47 155.144 197.674 155.118C197.877 155.093 198.055 155.247 198.081 155.427L202.431 188.718C202.457 188.924 202.304 189.104 202.126 189.129C202.075 189.155 202.024 189.155 201.973 189.129Z" fill="#331832"/>
<path d="M181.494 182.424C181.698 182.373 181.851 182.219 181.876 182.013L191.187 138.164C191.238 137.907 189.228 137.933 188.949 137.907C188.669 137.882 188.389 138.087 188.338 138.344L180.833 181.911C180.782 182.168 180.986 182.425 181.266 182.45C181.342 182.45 181.418 182.45 181.494 182.424Z" fill="#331832"/>
<path d="M183.656 108.623L221.868 106.491C222.988 106.44 224.005 107.133 224.387 108.212L239.321 152.652C239.779 153.988 239.066 155.426 237.743 155.863L194.316 170.3C192.866 170.788 191.339 169.863 191.06 168.322L181.341 111.577C181.087 110.087 182.155 108.7 183.656 108.623Z" fill="#49263E"/>
<path d="M186.252 109.856L221.233 107.878C222.251 107.827 223.192 108.469 223.523 109.471L237.184 150.7C237.591 151.933 236.93 153.269 235.734 153.68L196.021 167.063C194.698 167.5 193.274 166.652 193.045 165.239L184.115 112.605C183.886 111.218 184.878 109.933 186.252 109.856Z" fill="white"/>
<path d="M210.522 122.957C211.184 124.575 211.26 126.039 210.929 127.35C210.675 128.3 210.192 129.148 209.53 129.867C209.479 129.918 209.454 129.944 209.403 129.995C208.156 131.254 206.325 132.076 204.162 132.307C203.501 132.384 202.839 132.41 202.152 132.359C197.624 132.128 192.968 129.584 191.213 125.217C189.686 121.416 190.195 117.562 193.197 115.533C194.164 114.891 195.36 114.403 196.835 114.197C200.321 113.658 204.518 115.43 207.495 118.462C208.792 119.746 209.861 121.287 210.522 122.957Z" fill="#DAEBE8"/>
<path d="M200.524 123.239L202.152 132.359C197.624 132.127 192.968 129.584 191.213 125.217C189.686 121.416 190.195 117.562 193.197 115.533L200.524 123.239Z" fill="#00B7EC"/>
<path d="M209.53 129.867C208.284 131.203 206.401 132.05 204.162 132.307C203.501 132.384 202.84 132.41 202.153 132.359L200.524 123.239L209.53 129.867Z" fill="#FD7583"/>
<path d="M210.955 127.35C210.701 128.3 210.217 129.148 209.556 129.867C209.505 129.918 209.48 129.944 209.429 129.995L200.55 123.239L210.955 127.35Z" fill="#FEC786"/>
<path d="M210.523 122.957C211.184 124.575 211.26 126.039 210.93 127.35L200.524 123.239L207.521 118.461C208.793 119.746 209.861 121.287 210.523 122.957Z" fill="#739936"/>
<path d="M203.425 117.331L198.082 117.922C197.955 117.922 197.726 117.845 197.675 117.717C197.548 117.485 197.751 117.383 197.879 117.383L203.272 116.92C203.399 116.92 203.526 116.997 203.577 117.1C203.603 117.228 203.552 117.331 203.425 117.331Z" fill="#ACC9C5"/>
<path d="M202.432 118.487L198.387 118.924C198.311 118.924 198.133 118.847 198.082 118.77C197.98 118.59 198.133 118.513 198.209 118.513L202.279 118.179C202.356 118.179 202.483 118.23 202.508 118.333C202.559 118.384 202.534 118.462 202.432 118.487Z" fill="#ACC9C5"/>
<path d="M221.132 114.454C221.412 115.122 221.438 115.739 221.31 116.252C221.209 116.638 221.005 116.997 220.725 117.306C220.7 117.331 220.7 117.331 220.674 117.357C220.166 117.871 219.402 118.205 218.512 118.307C218.232 118.333 217.952 118.333 217.672 118.333C215.815 118.23 213.882 117.177 213.144 115.379C212.508 113.812 212.737 112.219 213.958 111.372C214.365 111.115 214.849 110.909 215.459 110.806C216.909 110.575 218.639 111.32 219.86 112.579C220.42 113.144 220.853 113.761 221.132 114.454Z" fill="#DAEBE8"/>
<path d="M217.011 114.583L217.672 118.359C215.815 118.256 213.882 117.203 213.144 115.405C212.508 113.838 212.737 112.245 213.958 111.397L217.011 114.583Z" fill="#FD7583"/>
<path d="M220.725 117.306C220.216 117.845 219.428 118.205 218.512 118.307C218.232 118.333 217.952 118.333 217.672 118.333L217.011 114.557L220.725 117.306Z" fill="#FD7583"/>
<path d="M221.31 116.278C221.208 116.663 221.005 117.023 220.725 117.331C220.7 117.357 220.7 117.357 220.674 117.383L217.011 114.583L221.31 116.278Z" fill="#ACC9C5"/>
<path d="M221.132 114.454C221.412 115.122 221.437 115.739 221.31 116.252L217.011 114.557L219.911 112.579C220.42 113.144 220.852 113.761 221.132 114.454Z" fill="#ACC9C5"/>
<path d="M218.205 112.142L215.992 112.373C215.941 112.373 215.839 112.348 215.814 112.296C215.763 112.194 215.839 112.168 215.89 112.168L218.129 111.988C218.18 111.988 218.231 112.014 218.256 112.065C218.281 112.091 218.256 112.142 218.205 112.142Z" fill="#ACC9C5"/>
<path d="M217.798 112.605L216.144 112.784C216.119 112.784 216.043 112.759 216.017 112.707C215.966 112.63 216.043 112.605 216.068 112.605L217.747 112.45C217.773 112.45 217.823 112.476 217.849 112.502C217.849 112.579 217.823 112.605 217.798 112.605Z" fill="#ACC9C5"/>
<path d="M225.227 124.935C225.482 125.603 225.533 126.219 225.405 126.733C225.304 127.118 225.1 127.478 224.846 127.761C224.82 127.786 224.82 127.786 224.795 127.812C224.286 128.326 223.548 128.66 222.658 128.762C222.378 128.788 222.124 128.788 221.844 128.788C220.012 128.685 218.104 127.632 217.392 125.834C216.756 124.267 216.984 122.674 218.206 121.827C218.587 121.57 219.096 121.364 219.681 121.287C221.106 121.082 222.81 121.801 224.006 123.06C224.515 123.625 224.947 124.241 225.227 124.935Z" fill="#DAEBE8"/>
<path d="M221.157 125.038L221.818 128.814C219.987 128.711 218.078 127.658 217.366 125.86C216.73 124.293 216.959 122.7 218.18 121.852L221.157 125.038Z" fill="#71A99E"/>
<path d="M224.82 127.786C224.311 128.326 223.548 128.685 222.632 128.788C222.352 128.814 222.098 128.814 221.818 128.814L221.157 125.038L224.82 127.786Z" fill="#FD7583"/>
<path d="M225.405 126.759C225.303 127.144 225.1 127.504 224.845 127.786C224.82 127.812 224.82 127.812 224.794 127.838L221.182 125.038L225.405 126.759Z" fill="#ACC9C5"/>
<path d="M225.227 124.935C225.481 125.603 225.532 126.219 225.405 126.733L221.182 125.038L224.031 123.06C224.514 123.625 224.947 124.241 225.227 124.935Z" fill="#DAEBE8"/>
<path d="M222.327 122.623L220.165 122.854C220.114 122.854 220.012 122.828 219.987 122.777C219.936 122.674 220.012 122.649 220.063 122.649L222.251 122.469C222.302 122.469 222.352 122.495 222.378 122.546C222.403 122.572 222.378 122.597 222.327 122.623Z" fill="#ACC9C5"/>
<path d="M221.92 123.085L220.292 123.265C220.266 123.265 220.19 123.239 220.165 123.188C220.114 123.111 220.19 123.085 220.215 123.085L221.869 122.957C221.895 122.957 221.945 122.983 221.971 123.008C221.971 123.034 221.971 123.085 221.92 123.085Z" fill="#ACC9C5"/>
<path d="M197.801 158.586L201.21 157.687L199.201 147.9L195.995 148.799L197.801 158.586Z" fill="#71A99E"/>
<path d="M203.475 157.122L206.884 156.197L203.475 139.628L200.371 140.348L203.475 157.122Z" fill="#FD7583"/>
<path d="M209.581 155.427L212.99 154.527L210.318 141.658L207.113 142.146L209.581 155.427Z" fill="#366F90"/>
<path d="M215.406 153.654L218.815 152.755L215.406 136.186L212.302 136.906L215.406 153.654Z" fill="#71A99E"/>
<path d="M221.87 139.603L218.97 140.476C218.894 140.502 218.792 140.399 218.741 140.271C218.665 140.014 218.792 139.911 218.843 139.885L221.769 139.14C221.845 139.115 221.896 139.218 221.921 139.32C221.972 139.474 221.947 139.577 221.87 139.603Z" fill="#58A1C7"/>
<path d="M222.303 141.915L219.403 142.788C219.326 142.814 219.225 142.711 219.174 142.583C219.097 142.326 219.225 142.223 219.275 142.197L222.201 141.452C222.277 141.427 222.328 141.529 222.354 141.632C222.405 141.761 222.354 141.889 222.303 141.915Z" fill="#58A1C7"/>
<path d="M224.847 141.144L222.99 141.709C222.939 141.709 222.862 141.606 222.837 141.504C222.786 141.247 222.837 141.17 222.888 141.144L224.771 140.707C224.821 140.707 224.872 140.784 224.898 140.913C224.923 141.016 224.898 141.118 224.847 141.144Z" fill="#58A1C7"/>
<path d="M224.872 138.704L222.607 139.397C222.557 139.423 222.455 139.295 222.429 139.192C222.378 138.935 222.455 138.832 222.506 138.832L224.795 138.267C224.846 138.241 224.897 138.344 224.923 138.473C224.923 138.575 224.897 138.678 224.872 138.704Z" fill="#58A1C7"/>
<path d="M229.325 137.368L225.509 138.524C225.432 138.55 225.28 138.473 225.229 138.344C225.152 138.087 225.305 137.985 225.381 137.959L229.223 136.931C229.299 136.906 229.401 136.983 229.427 137.111C229.452 137.214 229.401 137.342 229.325 137.368Z" fill="#58A1C7"/>
<path d="M223.142 140.425L219.25 141.606C219.173 141.632 219.021 141.555 218.97 141.452C218.894 141.221 219.046 141.118 219.148 141.093L223.066 140.039C223.142 140.014 223.244 140.091 223.269 140.194C223.269 140.271 223.218 140.399 223.142 140.425Z" fill="#58A1C7"/>
<path d="M227.95 138.961L224.058 140.142C223.981 140.168 223.829 140.091 223.778 139.988C223.702 139.757 223.854 139.654 223.956 139.628L227.874 138.575C227.95 138.55 228.052 138.627 228.077 138.729C228.103 138.832 228.027 138.935 227.95 138.961Z" fill="#58A1C7"/>
<path d="M222.937 145.28L220.037 146.153C219.961 146.179 219.859 146.076 219.808 145.948C219.732 145.691 219.859 145.588 219.91 145.562L222.835 144.817C222.912 144.792 222.963 144.894 222.988 144.997C223.014 145.151 222.988 145.254 222.937 145.28Z" fill="#58A1C7"/>
<path d="M223.345 147.592L220.445 148.465C220.368 148.491 220.267 148.388 220.216 148.26C220.139 148.003 220.267 147.9 220.317 147.874L223.243 147.129C223.319 147.104 223.37 147.206 223.396 147.309C223.447 147.438 223.421 147.566 223.345 147.592Z" fill="#58A1C7"/>
<path d="M225.914 146.821L224.057 147.386C224.006 147.386 223.929 147.283 223.904 147.181C223.853 146.924 223.904 146.847 223.955 146.821L225.837 146.384C225.888 146.384 225.939 146.461 225.965 146.59C225.965 146.693 225.939 146.795 225.914 146.821Z" fill="#58A1C7"/>
<path d="M225.914 144.381L223.65 145.074C223.599 145.1 223.497 144.972 223.472 144.869C223.421 144.612 223.497 144.509 223.548 144.509L225.838 143.944C225.889 143.918 225.94 144.021 225.965 144.15C225.991 144.252 225.965 144.355 225.914 144.381Z" fill="#58A1C7"/>
<path d="M230.366 143.045L226.55 144.201C226.474 144.227 226.321 144.15 226.27 144.021C226.194 143.764 226.347 143.661 226.423 143.636L230.265 142.608C230.341 142.583 230.443 142.66 230.468 142.788C230.519 142.891 230.468 143.019 230.366 143.045Z" fill="#58A1C7"/>
<path d="M224.184 146.102L220.292 147.283C220.215 147.309 220.063 147.232 220.012 147.129C219.936 146.898 220.088 146.795 220.19 146.77L224.108 145.717C224.184 145.691 224.286 145.768 224.311 145.871C224.337 145.948 224.286 146.076 224.184 146.102Z" fill="#58A1C7"/>
<path d="M228.993 144.638L225.1 145.819C225.024 145.845 224.871 145.768 224.82 145.665C224.744 145.434 224.897 145.331 224.999 145.305L228.916 144.252C228.993 144.227 229.094 144.304 229.12 144.406C229.145 144.509 229.094 144.612 228.993 144.638Z" fill="#58A1C7"/>
<path d="M245.631 145.794C246.063 146.487 246.597 148.054 247.005 148.748C247.183 149.056 247.717 150.109 247.437 150.34C247.208 150.546 246.394 149.904 246.038 149.544C245.885 151.882 244.664 155.247 244.613 150.315C244.562 150.803 244.359 153.577 243.723 153.269C243.163 152.986 243.239 151.008 243.316 150.186H243.29C243.163 151.008 242.807 153.012 242.349 152.575C241.789 152.036 241.84 149.827 241.84 149.827C241.84 149.827 241.738 152.627 241.026 152.061C240.619 151.753 240.848 150.16 241.001 149.159C241.026 148.953 241.051 148.773 241.077 148.645C241.102 148.542 241.128 148.439 241.153 148.337C241.509 146.693 242.018 145.716 242.018 145.716C242.018 145.716 242.4 144.458 243.824 144.561C244.74 144.612 245.453 145.485 245.631 145.794Z" fill="#FFB27D"/>
<path d="M246.724 146.127C251.888 142.685 246.342 132.076 248.479 124.729C248.988 123.034 249.192 122.392 249.624 121.441C249.98 120.671 249.039 119.206 247.767 118.59C246.571 118.025 243.849 118.307 243.442 118.77C239.117 124.036 238.837 134.26 240.567 146.564C240.567 146.59 244.485 147.592 246.724 146.127Z" fill="#FEC786"/>
<path d="M254.409 190.619C254.409 190.619 254.358 192.391 253.187 192.879C251.992 193.368 248.557 193.83 249.855 194.96C250.592 195.602 254.052 195.191 255.045 195.191C256.037 195.191 256.953 195.628 257.665 194.96C258.479 194.241 257.665 190.593 257.665 190.593C257.665 190.593 256.825 191.03 256.062 191.03C254.943 191.004 254.409 190.619 254.409 190.619Z" fill="#331832"/>
<path d="M244.18 137.214C244.18 137.214 243.951 145.203 246.47 160.513C248.302 171.584 250.439 182.707 251.507 188.05C251.889 189.951 253.466 191.364 255.374 191.441L256.392 191.492C258.427 191.569 260.081 189.797 259.928 187.691L257.359 151.548L256.723 139.654L244.18 137.214Z" fill="#49263E"/>
<path d="M265.627 190.619C265.627 190.619 265.576 192.391 264.406 192.879C263.21 193.368 259.776 193.83 261.073 194.96C261.811 195.602 265.271 195.191 266.263 195.191C267.256 195.191 268.171 195.628 268.884 194.96C269.698 194.241 268.884 190.593 268.884 190.593C268.884 190.593 268.044 191.03 267.281 191.03C266.187 191.004 265.627 190.619 265.627 190.619Z" fill="#331832"/>
<path d="M255.4 137.214C255.4 137.214 255.171 145.203 257.69 160.513C259.521 171.584 261.658 182.707 262.727 188.05C263.109 189.951 264.686 191.364 266.594 191.441L267.612 191.492C269.647 191.569 271.3 189.797 271.148 187.691L268.578 151.548L267.942 139.654L255.4 137.214Z" fill="#49263E"/>
<path d="M269.189 145.973C269.163 146.949 263.388 147.309 256.265 147.104C249.116 146.872 243.417 145.871 243.442 144.92C243.468 143.944 249.218 143.379 256.341 143.61C263.49 143.816 269.214 144.997 269.189 145.973Z" fill="#331832"/>
<path d="M267.433 118.693C267.433 118.693 266.161 113.632 256.85 113.581C243.417 113.504 244.664 125.962 243.417 144.894C243.417 144.894 256.646 142.994 269.163 145.716C269.188 145.716 270.359 126.399 267.433 118.693Z" fill="#FEC786"/>
<path d="M270.868 117.973L264.787 121.364C264.787 121.364 251.482 122.597 247.945 122.006C244.409 121.416 243.442 118.795 243.442 118.795C243.442 118.795 247.208 114.865 253.619 113.812C254.229 113.709 254.84 113.632 255.501 113.606C256.595 113.529 257.664 113.555 258.732 113.684C266.822 114.583 270.868 117.973 270.868 117.973Z" fill="#FEC786"/>
<path d="M244.562 145.691C244.562 145.691 252.297 143.405 268.324 146.538L268.451 148.876L244.97 149.724L244.562 145.691Z" fill="#49263E"/>
<path d="M272.038 145.716C271.478 139.5 266.924 123.214 266.39 122.315C265.957 121.595 266.72 120.028 267.942 119.258C269.086 118.564 270.537 117.665 270.867 117.948C275.65 122.032 279.772 136.905 278.474 145.151L272.038 145.716Z" fill="#FEC786"/>
<path d="M275.322 146.991C277.104 146.891 278.507 146.074 278.457 145.168C278.407 144.261 276.922 143.608 275.141 143.708C273.359 143.809 271.956 144.625 272.006 145.531C272.056 146.438 273.541 147.091 275.322 146.991Z" fill="#331832"/>
<path d="M243.748 145.074C243.748 144.946 242.654 131.537 246.496 123.24L246.648 123.317C242.807 131.588 243.901 144.946 243.901 145.074H243.748Z" fill="#331832"/>
<path d="M269.342 132.898C268.324 128.711 266.238 125.757 266.213 125.731L266.34 125.628C266.366 125.654 268.477 128.66 269.495 132.872L269.342 132.898Z" fill="#331832"/>
<path d="M258.071 163.467C258.046 163.364 255.782 152.216 255.298 150.469C254.815 148.773 253.11 148.388 253.085 148.388L253.136 148.208C253.161 148.208 254.993 148.619 255.476 150.443C255.96 152.19 258.224 163.338 258.249 163.441L258.071 163.467Z" fill="#331832"/>
<path d="M272.826 153.603L271.961 153.448L272.623 149.904C272.801 149.004 273.615 148.337 274.531 148.337H277.431C278.271 148.337 279.009 148.876 279.263 149.647V149.672L280.459 153.68L279.619 153.937L278.423 149.929C278.271 149.493 277.864 149.21 277.406 149.21H274.506C273.997 149.21 273.564 149.57 273.462 150.058L272.826 153.603Z" fill="#331832"/>
<path d="M281.552 164.443L268.145 165.702C267.203 165.779 266.364 165.085 266.262 164.16L265.321 154.579C265.219 153.577 266.008 152.704 267 152.678L283.231 152.293C284.351 152.267 285.19 153.294 284.961 154.399L283.053 163.107C282.926 163.826 282.315 164.366 281.552 164.443Z" fill="#FD7583"/>
<path d="M275.498 159.177L284.707 155.863L284.656 155.683L275.498 158.971L265.55 156.351L265.5 156.557L275.498 159.177Z" fill="#331832"/>
<path d="M275.651 159.947C275.345 159.947 275.091 159.691 275.091 159.382V158.843C275.091 158.535 275.345 158.278 275.651 158.278C275.956 158.278 276.21 158.535 276.21 158.843V159.382C276.21 159.691 275.956 159.947 275.651 159.947Z" fill="#331832"/>
<path d="M272.165 148.311C272.368 147.926 272.572 147.283 272.801 146.693C272.979 146.205 273.335 145.203 273.488 144.894C273.793 144.124 275.777 144.047 276.464 144.458C277.126 144.869 277.38 145.999 277.838 147.515C277.889 147.592 277.914 147.694 277.94 147.797C278.092 148.542 278.474 149.57 278.016 149.955C277.533 150.392 277.228 149.647 277.1 149.236C277.177 149.595 277.278 150.315 276.922 150.726C276.541 151.162 276.108 149.981 275.905 149.39C276.032 149.929 276.235 150.957 275.752 151.239C275.192 151.573 274.76 149.981 274.633 149.621C274.607 149.621 274.607 149.621 274.582 149.621C274.251 151.882 273.361 150.726 273.157 149.004C272.826 149.364 272.088 150.006 271.86 149.852C271.554 149.647 272.012 148.619 272.165 148.311Z" fill="#FFB27D"/>
<path d="M258.351 112.528L257.893 110.164L257.766 109.471L257.003 105.438L256.418 109.291L256.062 111.603L255.96 112.322C255.884 112.81 255.578 112.887 255.146 113.273C254.968 113.427 253.899 114.377 254.942 114.994C256.24 115.764 258.86 115.148 259.98 114.069C259.929 114.095 258.478 113.273 258.351 112.528Z" fill="#FFB27D"/>
<path d="M254.052 103.614C254.052 103.614 253.696 104.539 253.823 105.746C253.951 106.953 255.452 104.205 255.452 104.205L254.052 103.614Z" fill="#49263E"/>
<path d="M260.403 107.742C260.945 105.495 259.867 103.301 257.997 102.842C256.126 102.382 254.171 103.831 253.63 106.079C253.088 108.326 254.166 110.52 256.036 110.979C257.907 111.439 259.862 109.989 260.403 107.742Z" fill="#FFB27D"/>
<path d="M260.616 106.594L258.962 106.234C258.606 106.157 258.276 105.926 258.123 105.592C257.843 105.027 257.461 104.693 255.884 104.564C253.9 104.41 252.729 103.075 252.628 102.021C252.526 100.942 253.62 100.352 254.561 100.968C255.503 101.585 255.197 100.3 256.189 100.275C257.996 100.249 258.174 101.662 259.649 101.79C261.583 101.944 264.839 103.819 262.829 107.005L260.616 106.594Z" fill="#331832"/>
<path d="M256.851 106.722C256.826 106.696 256.826 106.696 256.826 106.671C256.826 106.619 256.851 106.594 256.902 106.594C256.927 106.594 257.462 106.568 257.665 107.159C257.665 107.185 257.665 107.236 257.614 107.262C257.589 107.287 257.538 107.262 257.513 107.21C257.309 106.876 256.902 106.748 256.877 106.748L256.851 106.722Z" fill="#080435"/>
<path d="M257.053 107.647C257.003 107.801 256.85 107.904 256.748 107.852C256.646 107.801 256.596 107.647 256.646 107.493C256.697 107.339 256.85 107.236 256.952 107.287C257.079 107.339 257.104 107.493 257.053 107.647Z" fill="#080435"/>
<path d="M254.282 106.208C254.256 106.208 254.256 106.183 254.256 106.157C254.256 106.131 254.256 106.08 254.282 106.054C254.307 106.054 254.689 105.797 254.994 106.208C255.02 106.234 255.02 106.286 254.994 106.311C254.969 106.337 254.943 106.337 254.918 106.311C254.689 106.106 254.358 106.157 254.333 106.183C254.307 106.208 254.282 106.208 254.282 106.208Z" fill="#080435"/>
<path d="M254.84 107.005C254.84 107.185 254.739 107.313 254.611 107.313C254.484 107.313 254.382 107.185 254.382 107.005C254.382 106.825 254.484 106.696 254.611 106.696C254.739 106.696 254.84 106.825 254.84 107.005Z" fill="#080435"/>
<path d="M262.804 106.953C262.804 106.953 261.379 109.317 259.726 109.291C259.726 109.291 261.252 107.544 258.606 106.054C258.581 106.08 261.201 105.977 262.804 106.953Z" fill="#49263E"/>
<path d="M260.336 108.058C259.954 108.238 259.522 108.109 259.369 107.775C259.216 107.441 259.369 107.03 259.751 106.825C260.132 106.645 260.565 106.774 260.717 107.107C260.895 107.467 260.717 107.878 260.336 108.058Z" fill="#FFB27D"/>
<path d="M258.581 106.08C258.581 106.08 258.581 108.212 258.097 108.546C257.639 108.88 254.79 108.726 253.543 108.084C253.365 109.419 254.179 110.73 255.502 111.115C255.935 111.243 256.393 111.295 256.851 111.269C257.792 111.218 258.733 110.935 259.191 110.139C259.344 109.882 259.166 108.263 259.166 108.263C259.166 108.263 259.14 107.313 259.751 106.876C259.751 106.851 259.191 106.208 258.581 106.08Z" fill="#49263E"/>
<path d="M254.154 108.906C254.154 108.906 255.197 109.317 256.393 109.342C256.393 109.342 256.087 110.421 254.942 110.062C254.256 109.856 254.154 108.906 254.154 108.906Z" fill="white"/>
<path d="M254.866 100.788C254.841 100.788 254.79 100.788 254.739 100.788L254.765 100.685C254.816 100.685 254.841 100.685 254.866 100.685C255.223 100.685 255.299 100.377 255.299 100.377L255.401 100.403C255.375 100.403 255.299 100.788 254.866 100.788Z" fill="#331832"/>
<path d="M255.375 103.922C255.299 103.897 253.289 103.023 253.314 101.893C253.314 101.559 253.416 101.353 253.569 101.251C253.823 101.097 254.205 101.225 254.535 101.353C254.586 101.379 254.637 101.379 254.688 101.405L254.663 101.456C254.612 101.43 254.561 101.43 254.51 101.405C254.179 101.276 253.823 101.148 253.594 101.302C253.441 101.405 253.391 101.585 253.365 101.893C253.34 102.997 255.375 103.845 255.375 103.871V103.922Z" fill="white"/>
<path d="M260.31 102.227C258.275 102.227 257.41 100.968 257.41 100.968L257.461 100.942C257.461 100.968 258.301 102.201 260.336 102.201C260.361 102.201 260.387 102.201 260.438 102.201V102.252C260.361 102.227 260.336 102.227 260.31 102.227Z" fill="white"/>
<path d="M249.701 136.88C249.701 136.88 250.083 140.476 252.627 142.428C252.627 142.428 254.204 141.375 255.349 139.68C255.909 138.883 256.367 137.933 256.494 136.88C256.545 136.392 256.57 135.518 256.545 134.388C256.519 133.463 256.443 132.384 256.392 131.203C256.29 129.122 256.138 126.759 256.011 124.524C255.96 123.291 255.909 122.109 255.883 121.056C255.833 118.795 255.883 117.023 256.163 116.381L254.942 115.995C254.942 115.995 254.408 117.357 253.695 119.438C253.441 120.234 253.136 121.133 252.805 122.084C252.322 123.625 251.787 125.32 251.329 127.041C251.075 127.992 250.821 128.942 250.617 129.867C250.159 131.794 249.828 133.617 249.727 135.159C249.676 135.775 249.676 136.34 249.701 136.88Z" fill="#739936"/>
<path d="M256.85 114.429C256.85 114.429 255.222 113.915 254.79 114.326C254.357 114.711 254.662 116.535 255.426 116.689C256.163 116.843 257.588 114.865 256.85 114.429Z" fill="#739936"/>
<path d="M255.883 113.992C255.883 113.992 258.02 113.221 258.427 112.476C258.834 111.706 261.048 113.478 261.022 113.992C260.971 114.506 257.002 117.434 256.748 117.074C256.494 116.715 255.349 114.506 255.883 113.992Z" fill="#FCDCBB"/>
<path d="M255.883 113.992C255.883 113.992 255.553 113.196 255.705 112.759C255.705 112.759 255.807 112.373 255.476 112.399C255.146 112.425 253.39 113.684 253.238 114.043C253.085 114.429 253.06 116.201 253.619 116.355C254.204 116.484 255.578 114.557 255.731 114.377C255.883 114.197 255.883 113.992 255.883 113.992Z" fill="#FCDCBB"/>
<path d="M255.425 116.715C254.917 116.715 254.637 115.713 254.637 115.687L254.713 115.662C254.713 115.662 254.967 116.638 255.425 116.638C255.858 116.638 256.265 116.227 256.265 116.227L256.316 116.278C256.316 116.304 255.909 116.715 255.425 116.715Z" fill="#331832"/>
<path d="M154.095 62.0507C154.095 62.0507 140.255 60.8691 127.178 71.0415C117.358 78.6965 129.672 87.9699 108.301 89.8708C90.3401 91.4634 78.8154 103.794 78.8154 103.794C78.8154 103.794 78.8154 113.992 93.0623 115.302C103.9 116.278 97.7179 125.5 108.25 124.678C118.783 123.856 123.159 120.799 125.499 125.269C128.934 131.768 136.897 129.096 136.897 129.096C136.897 129.096 135.625 117.511 148.421 116.92C158.267 116.458 157.351 93.9038 157.148 86.1203C156.944 78.3369 154.095 62.0507 154.095 62.0507Z" fill="#00B7EC"/>
<path d="M130.231 101.739L131.121 101.918L131.935 97.6542C132.062 96.8065 131.655 95.9588 130.892 95.5478L128.246 94.1349C127.407 93.6983 126.364 93.9038 125.753 94.623L123.438 97.5771L124.15 98.1423L126.44 95.2138C126.771 94.8285 127.33 94.7001 127.788 94.957L130.434 96.3698C130.841 96.601 131.096 97.0634 131.019 97.5258L130.231 101.739Z" fill="#331832"/>
<path d="M115.271 106.106L126.949 113.812C127.763 114.351 128.882 114.12 129.416 113.298L134.861 104.975C135.42 104.102 135.141 102.92 134.225 102.406L119.52 94.135C118.502 93.5698 117.23 94.0836 116.925 95.2138L114.483 104.128C114.305 104.873 114.61 105.669 115.271 106.106Z" fill="#FD7583"/>
<path d="M133.767 106.696L123.362 104.23L123.336 104.205L116.493 96.6781L116.62 96.5753L123.438 104.076L133.792 106.542L133.767 106.696Z" fill="#331832"/>
<path d="M122.828 104.873C123.107 105.027 123.464 104.924 123.616 104.641L123.871 104.153C124.023 103.871 123.896 103.511 123.616 103.357C123.336 103.203 122.98 103.306 122.828 103.588L122.573 104.076C122.446 104.359 122.548 104.718 122.828 104.873Z" fill="#331832"/>
<path d="M127.051 94.1094C127.127 94.0066 127.203 93.9295 127.28 93.8525C128.399 92.414 129.366 91.669 129.366 91.669L130.994 93.3901C131.07 93.313 131.198 93.236 131.325 93.2103C131.706 93.1332 132.928 93.1332 132.979 93.5442C133.08 94.4433 132.877 96.2415 132.979 97.1405C133.004 97.5259 133.055 98.8359 132.673 98.9387C132.342 99.0158 131.834 97.9882 131.63 97.4745C130.384 99.7093 128.501 100.095 129.849 97.5259C129.569 97.9882 128.501 99.2213 128.018 98.5791C127.585 98.0396 128.145 97.5259 128.603 96.7295C128.603 96.7295 128.577 96.7295 128.577 96.7038C127.89 97.4231 127.178 98.0139 126.771 97.4488C126.517 97.1149 127.305 95.6249 127.305 95.6249C127.305 95.6249 126.415 96.935 126.033 96.3185C125.626 95.7534 126.567 94.8286 127.051 94.1094Z" fill="#FFB27D"/>
<path d="M176.889 44.6085C176.686 43.7865 176.609 42.0141 176.406 41.192C176.329 40.8324 176.1 39.5994 176.457 39.4196C176.762 39.2654 177.779 40.3957 178.034 40.8581C179.077 37.8526 183.071 41.192 182.613 42.1682C182.511 42.3737 182.435 42.5535 182.359 42.7076C182.308 42.8104 182.257 42.9131 182.181 43.0159C181.316 44.6342 180.502 45.559 180.502 45.559C180.502 45.559 179.713 46.792 178.314 46.3296C177.423 46.0471 176.965 44.9425 176.889 44.6085Z" fill="#FFB27D"/>
<path d="M178.009 40.8581C178.009 40.8581 180.121 35.8233 180.782 36.1829C181.418 36.5425 179.968 40.1902 179.968 40.1902L178.009 40.8581Z" fill="#FFB27D"/>
<path d="M180.4 39.0857C180.018 39.137 179.535 40.1902 179.535 40.1902C179.535 40.1902 178.314 42.3737 178.975 42.5022C179.637 42.6049 180.629 40.7811 180.629 40.7811C180.629 40.7811 179.509 43.3499 180.171 43.2471C180.832 43.1444 181.901 41.2178 181.901 41.2178C181.901 41.2178 180.553 43.6067 181.316 43.4783C182.079 43.3499 182.639 42.1939 182.944 41.6031C183.249 41.0379 182.868 40.5756 182.308 40.3187C182.308 40.3187 181.901 39.7536 181.494 39.6765C181.341 39.6508 181.265 39.4453 181.189 39.3939C180.985 39.2655 180.68 39.0343 180.4 39.0857Z" fill="#EC9C6C"/>
<path d="M144.097 66.8287C144.097 66.8287 145.801 61.6911 155.214 62.359C162.465 62.8984 169.079 68.2929 168.952 74.9204C168.774 84.0653 168.24 88.8946 166.586 93.2616C166.586 93.2616 147.429 86.557 140.662 89.9478C140.662 89.9478 144.046 81.9589 143.486 69.8342C143.41 68.6268 143.69 67.7278 144.097 66.8287Z" fill="white"/>
<path d="M157.046 62.7186C157.046 62.7186 171.623 59.2507 175.719 44.8398C175.974 43.9664 176.89 43.4783 177.704 43.8123L180.299 44.8398C180.782 45.0196 181.062 45.5334 180.986 46.0471C180.629 48.8214 178.874 57.7352 170.987 68.2415C170.173 69.3204 168.647 70.9388 168.927 74.9204L157.046 62.7186Z" fill="white"/>
<path d="M140.637 89.9479C140.459 91.2323 146.132 92.7992 153.306 93.8267C160.481 94.8286 166.383 94.546 166.586 93.2616C166.765 91.9772 161.168 88.8433 153.993 87.8414C146.794 86.8139 140.815 88.6635 140.637 89.9479Z" fill="#331832"/>
<path d="M155.544 61.1003L156.155 58.6343L156.333 57.915L157.376 53.7022L157.732 57.8123L157.961 60.2783L158.038 61.0489C158.088 61.5884 158.394 61.6654 158.801 62.1021C158.953 62.282 159.997 63.3608 158.903 63.926C157.529 64.6452 154.883 63.8489 153.84 62.6416C153.84 62.6416 155.341 61.8966 155.544 61.1003Z" fill="#FFB27D"/>
<path d="M159.031 50.8508C159.031 50.8508 159.717 51.6214 160.074 52.8544C160.43 54.0875 157.911 51.9297 157.911 51.9297L159.031 50.8508Z" fill="#49263E"/>
<path d="M159.877 58.9463C161.527 57.865 161.792 55.3195 160.468 53.2608C159.145 51.2021 156.735 50.4097 155.085 51.491C153.435 52.5723 153.17 55.1178 154.493 57.1765C155.817 59.2352 158.227 60.0276 159.877 58.9463Z" fill="#FFB27D"/>
<path d="M153.943 56.2452L155.367 55.2691C155.673 55.0636 155.902 54.704 155.927 54.3186C155.978 53.6507 156.207 53.1884 157.657 52.4691C159.489 51.57 160.099 49.7976 159.769 48.7187C159.438 47.6141 158.191 47.4343 157.53 48.4104C156.868 49.3865 156.665 47.9994 155.724 48.3333C153.994 48.9755 154.35 50.4398 153.001 51.1333C151.246 52.0324 148.855 55.0893 151.958 57.4782L153.943 56.2452Z" fill="#331832"/>
<path d="M157.555 54.9609C157.555 54.9352 157.555 54.9095 157.555 54.8838C157.53 54.8581 157.504 54.8324 157.454 54.8324C157.428 54.8324 156.919 55.0122 156.945 55.6544C156.945 55.7058 156.97 55.7315 157.021 55.7315C157.072 55.7315 157.072 55.7058 157.097 55.6544C157.174 55.2434 157.504 54.9609 157.53 54.9609C157.53 54.9865 157.555 54.9609 157.555 54.9609Z" fill="#080435"/>
<path d="M157.733 55.9627C157.861 56.0911 158.013 56.1168 158.115 56.0397C158.217 55.9627 158.191 55.7828 158.064 55.6544C157.937 55.526 157.784 55.5003 157.682 55.5773C157.581 55.6544 157.606 55.8342 157.733 55.9627Z" fill="#080435"/>
<path d="M159.794 53.4709C159.819 53.4709 159.819 53.4453 159.819 53.4196C159.819 53.3939 159.794 53.3425 159.743 53.3425C159.717 53.3425 159.26 53.2398 159.132 53.7792C159.132 53.8049 159.158 53.8563 159.183 53.882C159.209 53.9076 159.234 53.882 159.26 53.8563C159.412 53.5737 159.743 53.4966 159.768 53.4966C159.794 53.4966 159.794 53.4966 159.794 53.4709Z" fill="#080435"/>
<path d="M159.591 54.4727C159.642 54.6269 159.795 54.7296 159.922 54.7039C160.049 54.6526 160.074 54.4984 160.024 54.3186C159.973 54.1645 159.82 54.0617 159.693 54.0874C159.566 54.1388 159.515 54.3186 159.591 54.4727Z" fill="#080435"/>
<path d="M151.983 57.4269C151.983 57.4269 154.247 59.2251 155.824 58.5829C155.824 58.5829 153.687 57.4526 155.646 54.9609C155.646 54.9609 153.128 55.86 151.983 57.4269Z" fill="#49263E"/>
<path d="M154.756 57.6067C155.189 57.6324 155.545 57.3498 155.57 56.9645C155.596 56.5792 155.265 56.2196 154.858 56.1939C154.425 56.1682 154.069 56.4508 154.044 56.8361C153.993 57.1957 154.324 57.5553 154.756 57.6067Z" fill="#FFB27D"/>
<path d="M155.648 54.9609C155.648 54.9609 156.462 57.0416 157.047 57.2214C157.632 57.3756 160.252 56.1682 161.194 55.038C161.881 56.2967 161.601 57.8893 160.507 58.737C160.151 59.0196 159.744 59.2508 159.286 59.4049C158.37 59.7132 157.378 59.7902 156.614 59.1737C156.385 58.9939 155.902 57.3242 155.902 57.3242C155.902 57.3242 155.546 56.3737 154.833 56.1939C154.833 56.1682 155.139 55.3205 155.648 54.9609Z" fill="#49263E"/>
<path d="M160.938 56.0911C160.938 56.0911 160.099 56.8875 158.979 57.3755C158.979 57.3755 159.666 58.326 160.633 57.5297C161.218 57.0673 160.938 56.0911 160.938 56.0911Z" fill="white"/>
<path d="M156.945 48.4104C156.665 48.4104 156.512 48.1792 156.512 48.1792L156.589 48.1279C156.589 48.1536 156.817 48.4618 157.225 48.2306L157.275 48.3077C157.148 48.3847 157.046 48.4104 156.945 48.4104Z" fill="#331832"/>
<path d="M157.886 51.6471L157.86 51.6214C157.886 51.5957 159.489 49.9774 159.031 48.9242C158.903 48.6159 158.751 48.4618 158.573 48.4104C158.547 48.4104 158.522 48.4104 158.496 48.4104C158.242 48.4104 157.988 48.6416 157.733 48.8728C157.682 48.8985 157.657 48.9499 157.606 48.9756L157.581 48.9499C157.631 48.9242 157.657 48.8728 157.708 48.8471C157.962 48.6159 158.217 48.3847 158.496 48.3847C158.522 48.3847 158.547 48.3847 158.598 48.3847C158.776 48.4361 158.954 48.6159 159.082 48.9242C159.514 49.9774 157.937 51.57 157.886 51.6471Z" fill="white"/>
<path d="M152.467 51.8783L152.441 51.8269C154.426 51.082 154.757 49.4893 154.782 49.4893H154.833C154.807 49.515 154.477 51.1077 152.467 51.8783Z" fill="white"/>
<path d="M150.355 62.5902C150.355 62.5902 143.69 63.1553 138.703 71.4525C133.717 79.7497 128.196 91.9001 128.476 92.4139C128.756 92.9533 131.656 95.3423 133.157 95.1625C134.658 95.0084 143.766 77.3351 146.666 75.0488C149.592 72.7369 150.355 62.5902 150.355 62.5902Z" fill="white"/>
<path d="M143.104 79.9039L143.002 79.8525C144.427 77.5406 146.589 75.0489 146.615 75.0232L146.691 75.1002C146.691 75.1002 144.528 77.592 143.104 79.9039Z" fill="#331832"/>
<path d="M149.006 125.911C149.006 125.911 145.75 127.966 145.139 129.405C144.528 130.817 143.918 134.979 142.671 133.386C141.959 132.461 142.569 128.274 142.595 127.093C142.62 125.911 142.188 124.781 142.951 123.907C143.791 122.957 150.049 120.979 150.049 120.979C150.049 120.979 148.981 122.7 148.981 123.625C148.955 124.961 149.006 125.911 149.006 125.911Z" fill="#331832"/>
<path d="M160.073 91.2579C160.964 91.3606 164.551 92.5166 165.009 93.2616C167.146 96.8579 173.735 110.832 168.952 116.355C166.052 119.72 156.791 125.217 150.279 127.067C149.007 127.427 147.2 126.014 146.513 124.37C145.597 122.135 146.462 120.799 148.549 119.438C151.144 117.742 153.866 115.661 158.547 111.783C159.234 111.217 154.349 102.535 152.695 99.401C152.288 98.6046 153.815 98.0909 154.247 97.3202L155.748 94.7771C156.308 93.8524 155.926 93.056 157.046 93.1845L160.073 91.2579Z" fill="#49263E"/>
<path d="M127.738 137.471C127.738 137.471 126.313 141.093 126.644 142.582C127 144.098 128.908 147.823 126.975 147.283C125.881 146.975 123.896 143.225 123.235 142.248C122.573 141.272 121.53 140.63 121.658 139.474C121.785 138.19 125.677 132.898 125.677 132.898C125.677 132.898 125.83 134.927 126.364 135.672C127.153 136.726 127.738 137.471 127.738 137.471Z" fill="#331832"/>
<path d="M160.735 91.4891L132.648 136.289C131.58 138.138 129.417 139.115 127.28 138.678L126.339 138.498C124.126 138.061 122.853 135.749 123.693 133.72L142.417 90.2304C142.85 89.2543 151.602 88.1497 160.735 91.4891Z" fill="#49263E"/>
<path d="M156.639 62.4361C156.639 62.4361 158.292 61.9994 158.7 62.4361C159.107 62.8728 158.674 64.6966 157.911 64.825C157.173 64.9535 155.876 62.8471 156.639 62.4361Z" fill="#FD7583"/>
<path d="M156.97 64.4911C156.181 66.803 152.314 75.7681 139.162 78.8764C138.322 79.0819 137.533 79.4929 136.872 80.058L134.252 82.3956C133.768 82.8066 133.844 83.6029 134.379 83.9369L137.508 85.8892C138.576 86.5571 139.874 86.7882 141.095 86.5314C145.344 85.5809 156.817 79.2874 158.878 64.003C158.954 63.3608 158.395 63.7975 157.759 63.8746C157.377 63.9003 157.072 64.1315 156.97 64.4911Z" fill="#FD7583"/>
<path d="M157.632 62.0764C157.632 62.0764 156.105 61.126 155.724 60.3297C155.367 59.5333 152.289 61.7939 152.315 62.359C152.315 62.8985 156.309 65.5443 156.589 65.1847C156.869 64.7994 158.115 62.6159 157.632 62.0764Z" fill="#DAEBE8"/>
<path d="M157.631 62.0764C157.631 62.0764 157.987 61.2801 157.885 60.8177C157.885 60.8177 157.809 60.4324 158.14 60.4581C158.471 60.5095 160.15 61.8966 160.277 62.282C160.404 62.6673 160.328 64.5168 159.743 64.6196C159.157 64.7223 157.911 62.6673 157.758 62.4618C157.606 62.2563 157.631 62.0764 157.631 62.0764Z" fill="#DAEBE8"/>
<path d="M157.936 64.8764C157.428 64.8507 157.046 64.3883 157.021 64.3626L157.071 64.3113C157.071 64.3113 157.453 64.7736 157.911 64.7993C157.911 64.7993 157.911 64.7993 157.936 64.7993C158.369 64.7993 158.776 63.9773 158.801 63.9773L158.878 64.003C158.852 64.0544 158.42 64.8764 157.936 64.8764Z" fill="#331832"/>
<path d="M153.993 102.329C153.968 102.329 153.968 102.329 153.942 102.304C153.891 102.278 153.866 102.201 153.891 102.15C153.993 101.97 156.257 98.0138 158.343 96.9863C158.394 96.9606 158.471 96.9863 158.496 97.0377C158.522 97.0891 158.496 97.1661 158.445 97.1918C156.41 98.1679 154.12 102.227 154.095 102.252C154.069 102.329 154.044 102.329 153.993 102.329Z" fill="#020202"/>
<path d="M157.504 84.2452C157.351 84.502 157.046 84.6048 156.792 84.4507C156.537 84.2965 156.461 83.9626 156.613 83.7057C156.766 83.4488 157.046 83.2947 157.3 83.4231C157.631 83.6543 157.631 83.9883 157.504 84.2452Z" fill="#331832"/>
<path d="M158.598 79.4929C158.445 79.7498 158.14 79.8525 157.885 79.6984C157.631 79.5443 157.555 79.2103 157.707 78.9534C157.86 78.6966 158.14 78.5424 158.394 78.6709C158.725 78.9021 158.75 79.236 158.598 79.4929Z" fill="#331832"/>
<path d="M159.819 74.0727C159.667 74.3296 159.361 74.4324 159.107 74.2782C158.853 74.1241 158.776 73.7902 158.929 73.5333C159.082 73.2764 159.361 73.1223 159.616 73.2507C159.947 73.4819 159.972 73.8159 159.819 74.0727Z" fill="#331832"/>
<path d="M37.805 126.682C37.805 126.682 46.3785 138.601 46.6838 141.838C46.9891 145.074 48.0576 147.232 41.9009 144.92C37.4488 143.25 32.7168 132.872 32.7168 132.872L34.6249 128.942L37.805 126.682Z" fill="#FFB27D"/>
<path d="M6.89483 193.342C6.89483 193.342 13.0006 166.935 13.9674 166.164C14.9087 165.393 16.3842 166.087 15.8754 167.551C15.3666 169.015 8.24319 192.828 7.93791 193.342C7.63262 193.856 6.71675 194.087 6.89483 193.342Z" fill="#68A1BF"/>
<path d="M45.9213 154.784C42.7412 150.726 29.8427 140.81 23.2281 137.317C14.7818 132.898 4.55461 131.151 1.47627 138.344C-1.60206 145.537 8.72689 167.654 8.72689 167.654C8.72689 167.654 9.31203 169.632 11.3982 169.838C13.4843 170.069 39.5102 169.838 43.3772 169.838C54.6475 169.812 52.3324 162.953 45.9213 154.784Z" fill="#FD7583"/>
<path d="M52.9685 189.36C52.9685 189.36 52.9939 191.492 54.444 192.109C55.8942 192.725 60.0664 193.316 58.4891 194.678C57.5732 195.448 53.3501 194.883 52.1544 194.883C50.9586 194.857 49.8392 195.371 48.9488 194.575C47.9821 193.676 49.0251 189.309 49.0251 189.309C49.0251 189.309 50.0428 189.848 50.9841 189.848C52.307 189.848 52.9685 189.36 52.9685 189.36Z" fill="#331832"/>
<path d="M65.7649 189.026C65.7649 189.026 65.7903 191.158 67.215 191.775C68.6651 192.391 72.8374 193.008 71.2601 194.344C70.3442 195.114 66.1211 194.549 64.9254 194.524C63.7296 194.498 62.6102 195.012 61.7198 194.19C60.7531 193.291 61.7961 188.924 61.7961 188.924C61.7961 188.924 62.8138 189.463 63.7551 189.463C65.078 189.489 65.7649 189.026 65.7649 189.026Z" fill="#331832"/>
<path d="M64.6455 189.925C67.1133 189.643 68.9196 187.459 68.7669 184.993C67.8002 170.993 66.5027 163.955 61.7707 158.124C58.7178 154.373 54.2911 150.828 48.9486 148.876C44.3438 147.206 40.4768 146.487 35.465 146.641C27.273 146.872 23.5332 148.414 23.5332 148.414C18.5214 161.643 28.2398 162.516 35.3632 162.234C35.5922 162.234 35.8466 162.208 36.0755 162.208C40.4005 162.105 48.109 162.542 51.3654 166.549C53.935 169.735 55.9448 174.333 57.6493 186.483C57.98 188.821 60.1171 190.465 62.4576 190.208L64.6455 189.925Z" fill="#49263E"/>
<path d="M52.9175 191.672C55.3853 191.39 57.1916 189.206 57.039 186.74C56.0722 172.74 54.7747 165.702 50.0427 159.871C46.9898 156.12 42.6904 153.474 37.2206 151.984C33.3027 150.931 28.7997 150.443 23.7624 150.597C15.5705 150.828 11.8307 150.16 11.8307 150.16C6.64077 166.986 30.4533 161.463 37.3478 167.859C40.3498 170.634 44.2422 176.105 45.9468 188.256C46.2775 190.593 48.4145 192.237 50.7551 191.98L52.9175 191.672Z" fill="#49263E"/>
<path d="M13.9421 126.425C13.9421 126.425 16.4608 119.772 25.0597 120.234C33.6587 120.696 37.2459 132.23 42.0542 147.027C42.0542 147.027 42.0542 148.594 34.829 150.571C30.1225 151.856 25.0597 150.52 15.6467 156.685C13.4333 158.149 9.66807 156.454 9.51543 153.808C9.23558 148.516 10.3041 138.472 13.9421 126.425Z" fill="#71A99E"/>
<path d="M6.38623 127.478L13.9421 129.867C13.9421 129.867 29.5882 131.691 33.7605 131.023C37.9328 130.355 39.1285 127.067 39.1285 127.067C39.1285 127.067 34.7781 122.006 27.2731 120.542C26.5608 120.414 25.823 120.285 25.0852 120.234C23.8132 120.131 22.592 120.003 21.32 120.131C9.08295 121.416 6.38623 127.478 6.38623 127.478Z" fill="#71A99E"/>
<path d="M6.38647 127.478C5.97942 128.377 7.76027 129.225 9.92274 130.021C12.0852 130.817 14.0187 130.997 14.2477 130.381C14.4766 129.764 12.8739 128.634 10.7114 127.838C8.54893 127.041 6.66632 126.887 6.38647 127.478Z" fill="#331832"/>
<path d="M23.5078 119.078L24.8053 116.792L25.1869 116.124L27.4002 112.219L26.6624 116.432L26.2045 118.95L26.0519 119.746C25.9501 120.285 26.2554 120.465 26.5607 121.03C26.6879 121.262 27.4765 122.623 26.1791 122.88C24.5763 123.214 22.0577 121.621 21.2944 120.131C21.3199 120.131 23.1007 119.797 23.5078 119.078Z" fill="#FFB27D"/>
<path d="M31.0897 111.372C31.0897 111.372 31.1406 112.451 30.5809 113.658C30.0466 114.865 29.436 111.474 29.436 111.474L31.0897 111.372Z" fill="#49263E"/>
<path d="M30.6653 114.083C30.8914 111.554 29.3729 109.348 27.2738 109.157C25.1746 108.966 23.2897 110.861 23.0636 113.391C22.8375 115.92 24.356 118.125 26.4551 118.317C28.5543 118.508 30.4393 116.613 30.6653 114.083Z" fill="#FFB27D"/>
<path d="M23.2532 112.117L25.1104 112.322C25.5174 112.374 25.9245 112.245 26.2043 111.937C26.6877 111.449 27.222 111.243 28.8756 111.68C30.9872 112.219 32.6663 111.269 33.1497 110.19C33.6331 109.111 32.7172 108.084 31.5215 108.392C30.3258 108.7 31.089 107.467 30.0968 107.107C28.2396 106.414 27.5527 107.827 25.9754 107.441C23.9147 106.928 19.895 107.698 20.8363 111.706L23.2532 112.117Z" fill="#331832"/>
<path d="M27.0947 113.607C27.1202 113.607 27.1456 113.581 27.1456 113.555C27.1456 113.504 27.1456 113.478 27.0947 113.452C27.0693 113.452 26.535 113.221 26.128 113.761C26.1025 113.786 26.1025 113.838 26.128 113.863C26.1534 113.889 26.2043 113.889 26.2297 113.863C26.5605 113.607 27.0184 113.607 27.0438 113.607C27.0693 113.607 27.0947 113.607 27.0947 113.607Z" fill="#080435"/>
<path d="M26.5605 114.48C26.5605 114.66 26.6878 114.814 26.815 114.788C26.9422 114.788 27.0439 114.634 27.0439 114.454C27.0439 114.274 26.9167 114.12 26.7895 114.146C26.6623 114.146 26.5605 114.3 26.5605 114.48Z" fill="#080435"/>
<path d="M29.9442 113.992C29.9696 113.992 29.9696 113.992 29.9951 113.966C30.0205 113.94 30.0205 113.889 29.9951 113.863C29.9696 113.838 29.6643 113.427 29.2064 113.786C29.1809 113.812 29.1555 113.863 29.1809 113.889C29.2064 113.915 29.2318 113.94 29.2573 113.915C29.588 113.786 29.8933 113.966 29.9187 113.992C29.9187 113.966 29.9442 113.992 29.9442 113.992Z" fill="#080435"/>
<path d="M29.0796 114.608C29.0287 114.788 29.0796 114.968 29.2068 114.994C29.334 115.045 29.4866 114.942 29.5375 114.763C29.5884 114.583 29.5375 114.403 29.4103 114.377C29.3085 114.326 29.1559 114.429 29.0796 114.608Z" fill="#080435"/>
<path d="M20.8364 111.706C20.8364 111.706 21.4979 114.66 23.2279 115.251C23.2279 115.251 22.2357 112.887 25.543 112.296C25.5175 112.296 22.8462 111.269 20.8364 111.706Z" fill="#49263E"/>
<path d="M22.9992 113.735C23.3299 114.069 23.8133 114.095 24.1186 113.786C24.3984 113.504 24.373 112.99 24.0423 112.682C23.7115 112.348 23.2282 112.322 22.9229 112.63C22.643 112.913 22.6685 113.401 22.9992 113.735Z" fill="#FFB27D"/>
<path d="M25.5178 112.296C25.5178 112.296 24.78 114.506 25.1616 115.019C25.5178 115.533 28.5198 116.381 30.0462 116.15C29.7409 117.614 28.4434 118.667 26.9679 118.59C26.4845 118.564 26.0011 118.462 25.5178 118.256C24.5764 117.871 23.686 117.254 23.4825 116.252C23.4316 115.944 24.1694 114.3 24.1694 114.3C24.1694 114.3 24.5256 113.324 24.0422 112.656C24.0422 112.682 24.8563 112.219 25.5178 112.296Z" fill="#49263E"/>
<path d="M29.1302 116.818C29.1302 116.818 27.909 116.869 26.6624 116.484C26.6624 116.484 26.5861 117.691 27.9344 117.742C28.6977 117.768 29.1302 116.818 29.1302 116.818Z" fill="white"/>
<path d="M31.3689 108.186C30.7837 108.084 30.8346 107.57 30.8346 107.57H30.9364C30.9364 107.596 30.8855 107.981 31.3943 108.084L31.3689 108.186Z" fill="#331832"/>
<path d="M29.6138 111.218V111.166C29.6392 111.166 32.0561 110.986 32.4123 109.83C32.514 109.522 32.514 109.291 32.3868 109.137C32.2087 108.88 31.7762 108.906 31.3946 108.906C31.3437 108.906 31.2929 108.906 31.242 108.906C31.242 108.906 31.242 108.906 31.2165 108.906V108.854C31.2674 108.854 31.3183 108.854 31.3946 108.854C31.7762 108.854 32.2342 108.854 32.4377 109.111C32.5649 109.265 32.5649 109.522 32.4631 109.856C32.0815 111.038 29.7155 111.218 29.6138 111.218Z" fill="white"/>
<path d="M26.612 107.981C26.1541 107.981 25.5944 107.904 25.0093 107.673L25.0347 107.621C27.1717 108.392 28.5201 107.39 28.5455 107.39L28.571 107.441C28.5201 107.441 27.8078 107.981 26.612 107.981Z" fill="white"/>
<path d="M56.403 178.88H56.3012C56.3012 178.828 56.3012 173.485 54.3168 167.782C53.1466 164.417 51.5438 161.592 49.534 159.357C47.0408 156.557 43.8861 154.707 40.2227 153.86L40.2481 153.757C43.937 154.63 47.0917 156.48 49.6103 159.305C51.6201 161.54 53.2483 164.392 54.3932 167.757C56.3775 173.485 56.403 178.828 56.403 178.88Z" fill="#020202"/>
<path d="M17.4022 195.32L17.1732 195.294C16.9951 195.269 16.8679 194.986 16.8934 194.652L18.5979 152.601L21.8543 151.008L17.911 194.472C17.8856 194.986 17.6566 195.346 17.4022 195.32Z" fill="#331832"/>
<path d="M87.7207 195.32L87.9497 195.294C88.1277 195.269 88.2549 194.986 88.2295 194.652L86.525 152.601L83.2686 151.008L87.2119 194.472C87.2373 194.986 87.4663 195.346 87.7207 195.32Z" fill="#331832"/>
<path d="M80.3939 154.502C80.3175 154.502 80.2412 154.45 80.2412 154.348C80.2412 154.245 80.2921 154.168 80.3939 154.168C84.8969 153.705 88.484 153.166 91.079 152.601C91.1807 152.575 91.2571 152.627 91.2825 152.729C91.3079 152.832 91.2571 152.909 91.1553 152.935C88.5349 153.526 84.9223 154.039 80.3939 154.502C80.4193 154.502 80.4193 154.502 80.3939 154.502Z" fill="#444092"/>
<path d="M52.6131 158.432C76.3726 158.432 95.6335 156.028 95.6335 153.063C95.6335 150.098 76.3726 147.694 52.6131 147.694C28.8536 147.694 9.59277 150.098 9.59277 153.063C9.59277 156.028 28.8536 158.432 52.6131 158.432Z" fill="#68A1BF"/>
<path d="M95.6589 150.597H9.61816V153.063H95.6589V150.597Z" fill="#68A1BF"/>
<path d="M52.6131 155.966C76.3726 155.966 95.6335 153.562 95.6335 150.597C95.6335 147.632 76.3726 145.228 52.6131 145.228C28.8536 145.228 9.59277 147.632 9.59277 150.597C9.59277 153.562 28.8536 155.966 52.6131 155.966Z" fill="#B8D5DC"/>
<path d="M16.8943 153.731H16.8689C16.6908 153.705 12.6203 152.909 11.0175 152.138C10.9412 152.113 10.9157 152.01 10.9412 151.933C10.9666 151.856 11.0684 151.83 11.1447 151.856C12.6966 152.601 16.8689 153.423 16.9198 153.423C16.9961 153.449 17.047 153.526 17.047 153.603C17.047 153.68 16.9706 153.731 16.8943 153.731Z" fill="#444092"/>
<path d="M29.6387 147.386C31.1143 147.181 32.2083 144.663 31.1143 142.557C27.9597 142.428 14.934 144.021 13.7891 130.638C13.7891 130.535 13.2803 129.302 11.0415 128.557C8.62467 127.761 7.1491 127.709 7.1491 127.709C6.79293 129.071 6.43676 132.872 7.37807 136.828C10.7108 150.751 27.1964 147.746 29.6387 147.386Z" fill="#FFB27D"/>
<g opacity="0.3">
<path d="M13.2296 144.432C12.8734 144.432 12.4155 144.149 12.0593 143.687C11.7286 143.276 11.5505 142.788 11.6014 142.454C11.6268 142.3 11.6777 142.146 11.8049 142.069C11.983 141.915 12.2374 141.915 12.5427 142.043C12.8225 142.171 13.1024 142.403 13.3313 142.685C13.6621 143.096 13.8401 143.584 13.7893 143.918C13.7638 144.072 13.7129 144.226 13.5857 144.304C13.484 144.406 13.3568 144.432 13.2296 144.432ZM12.2119 143.559C12.619 144.072 13.1787 144.355 13.4331 144.149C13.5094 144.098 13.5349 144.021 13.5603 143.893C13.5857 143.584 13.4331 143.173 13.1532 142.814C12.9497 142.557 12.6953 142.326 12.4409 142.223C12.2119 142.12 12.0339 142.12 11.9321 142.197C11.8558 142.249 11.8303 142.326 11.8049 142.454C11.754 142.762 11.9321 143.199 12.2119 143.559Z" fill="#EC865C"/>
</g>
<path d="M31.1144 142.557C31.1144 142.557 33.9637 141.632 35.4902 142.557C37.0166 143.482 38.2887 145.793 37.2202 145.434C36.1517 145.074 34.9305 144.227 34.9305 144.227C34.9305 144.227 37.4746 146.153 36.7877 146.564C36.1008 146.975 33.8874 145.28 33.8874 145.28C33.8874 145.28 36.7368 147.823 35.9481 147.977C35.1595 148.131 33.0224 146.204 33.0224 146.204C33.0224 146.204 35.5665 148.671 34.6761 148.825C33.7602 149.004 32.5645 146.77 31.8776 147.181C31.1907 147.592 29.1809 147.977 27.8325 146.127L31.1144 142.557Z" fill="#FFB27D"/>
<path d="M34.8797 144.278C34.8797 144.278 34.2691 143.661 33.7603 143.738L33.7349 143.61C34.32 143.507 34.956 144.149 34.9815 144.175L34.8797 144.278Z" fill="#E9845C"/>
<path d="M33.8372 145.305C33.8372 145.305 33.2266 144.663 32.4634 144.663V144.535C33.2775 144.56 33.8881 145.203 33.9135 145.228L33.8372 145.305Z" fill="#E9845C"/>
<path d="M32.9713 146.23C32.9713 146.23 32.3607 145.614 31.8519 145.614C31.801 145.614 31.7502 145.614 31.6993 145.639L31.6738 145.511C31.7247 145.485 31.801 145.485 31.8519 145.485C32.4116 145.485 33.0476 146.127 33.0731 146.153L32.9713 146.23Z" fill="#E9845C"/>
<path d="M42.9946 138.344C42.9946 138.344 54.4176 141.658 56.7072 143.995C58.9969 146.307 54.7228 147.54 54.7228 147.54C54.7228 147.54 42.0279 147.052 41.4682 145.28C39.84 140.142 42.9946 138.344 42.9946 138.344Z" fill="#FFB27D"/>
<path d="M36.6354 149.261H56.4792C56.8862 149.261 57.2678 149.004 57.395 148.593L61.5164 136.289C61.72 135.672 61.262 135.03 60.6006 135.03H41.4945C40.6296 135.03 39.8409 135.595 39.5865 136.392L35.694 147.977C35.516 148.619 35.9993 149.261 36.6354 149.261Z" fill="#366F90"/>
<path d="M37.8824 149.261H57.7262C58.1333 149.261 58.5149 149.004 58.6421 148.593L62.7635 136.289C62.967 135.672 62.5091 135.03 61.8476 135.03H42.7416C41.8766 135.03 41.088 135.595 40.8336 136.392L36.9411 147.977C36.763 148.619 37.2464 149.261 37.8824 149.261Z" fill="#366F90"/>
<path d="M51.7979 141.76C51.7979 141.298 51.2637 141.093 50.7803 141.093C50.2969 141.093 49.5337 141.606 49.5337 142.249C49.5337 142.968 50.0934 143.045 50.5513 143.045C51.0601 143.045 51.7979 142.351 51.7979 141.76Z" fill="#DAEBE8"/>
<path d="M30.5809 147.515H57.7516V149.261H30.0212C29.6904 149.261 29.436 149.004 29.436 148.67C29.436 148.028 29.9449 147.515 30.5809 147.515Z" fill="#366F90"/>
<path d="M39.3065 141.272L39.1538 141.221C39.2047 141.067 40.146 137.522 40.782 136.366C41.4435 135.21 42.2321 134.953 42.2576 134.953L42.3085 135.107C42.3085 135.107 41.5452 135.338 40.9092 136.443C40.2986 137.573 39.3319 141.221 39.3065 141.272Z" fill="#331832"/>
<path d="M36.3813 147.592V147.437C37.0174 147.437 37.17 147.181 37.1955 147.181L38.7473 142.582L38.9 142.634L37.3481 147.258C37.2972 147.283 37.1191 147.592 36.3813 147.592Z" fill="#331832"/>
<g opacity="0.5">
<path d="M60.7266 147.643L70.2669 146.616L80.5958 149.467L68.2316 151.471L60.7266 147.643Z" fill="white"/>
</g>
<path d="M62.5591 149.107L71.6414 148.131L78.1288 152.164L68.6394 154.219L62.5591 149.107Z" fill="white"/>
<path d="M72.277 152.293C72.2515 152.293 72.2261 152.267 72.2261 152.241C72.2261 152.216 72.2515 152.19 72.277 152.19C72.277 152.19 72.8112 152.087 73.2183 151.805C73.6508 151.496 74.8719 151.548 74.9228 151.548C74.9482 151.548 74.9737 151.573 74.9737 151.599C74.9737 151.625 74.9482 151.65 74.9228 151.65C74.8974 151.65 73.6762 151.599 73.2691 151.882C72.8367 152.19 72.3024 152.293 72.277 152.293Z" fill="#68A1BF"/>
<path d="M70.5216 152.729C70.4961 152.729 70.4707 152.704 70.4707 152.678C70.4707 152.652 70.4961 152.627 70.5216 152.627C71.0813 152.55 71.5901 152.344 71.5901 152.344C71.6155 152.344 71.641 152.344 71.641 152.37C71.641 152.395 71.641 152.421 71.6155 152.421C71.6155 152.447 71.1067 152.652 70.5216 152.729Z" fill="#68A1BF"/>
<path d="M68.9193 153.269C68.8939 153.269 68.8939 153.269 68.8684 153.243C68.843 153.217 68.8684 153.192 68.8939 153.166C69.3264 152.935 69.8352 152.858 69.8606 152.858C69.8861 152.858 69.9115 152.883 69.9115 152.909C69.9115 152.935 69.8861 152.961 69.8606 152.961C69.8606 152.935 69.3518 153.038 68.9193 153.269Z" fill="#68A1BF"/>
<path d="M72.4044 151.625C72.379 151.625 72.379 151.625 72.3535 151.599C72.3535 151.573 72.3535 151.548 72.379 151.522C73.0659 151.188 73.7782 151.137 73.8036 151.137C73.8291 151.137 73.8545 151.162 73.8545 151.188C73.8545 151.214 73.8291 151.239 73.8036 151.239C73.8036 151.265 73.0913 151.317 72.4044 151.625Z" fill="#68A1BF"/>
<path d="M69.7579 152.293C69.7325 152.293 69.7325 152.293 69.707 152.267C69.707 152.241 69.707 152.216 69.7325 152.19C70.2922 151.959 71.2589 151.856 71.2844 151.856C71.3098 151.856 71.3352 151.882 71.3352 151.907C71.3352 151.933 71.3098 151.959 71.2844 151.959C71.3098 151.959 70.343 152.036 69.7579 152.293C69.7833 152.293 69.7579 152.293 69.7579 152.293Z" fill="#68A1BF"/>
<path d="M70.8526 151.394C70.8272 151.394 70.8018 151.368 70.8018 151.342C70.8018 151.316 70.8018 151.291 70.8526 151.291C70.8526 151.291 71.7685 151.085 72.3028 150.854C72.837 150.597 73.4985 150.649 73.5239 150.674C73.5494 150.674 73.5748 150.7 73.5748 150.726C73.5748 150.751 73.5494 150.777 73.5239 150.777C73.5239 150.777 72.8879 150.726 72.3536 150.957C71.7939 151.188 70.8781 151.394 70.8526 151.394Z" fill="#68A1BF"/>
<path d="M68.13 151.959C68.1045 151.959 68.0791 151.933 68.0791 151.907C68.0791 151.882 68.1045 151.856 68.13 151.856C68.13 151.856 68.6897 151.779 69.1985 151.599C69.7073 151.419 70.2161 151.471 70.2416 151.471C70.267 151.471 70.2925 151.496 70.2925 151.522C70.2925 151.548 70.267 151.573 70.2416 151.573C70.2416 151.573 69.7328 151.522 69.2494 151.702C68.7151 151.882 68.1554 151.959 68.13 151.959Z" fill="#68A1BF"/>
<path d="M67.0108 152.216C66.9854 152.216 66.96 152.19 66.96 152.19C66.96 152.164 66.96 152.139 66.9854 152.139C67.1889 152.061 67.5197 152.036 67.5197 152.036C67.5451 152.036 67.5705 152.061 67.5705 152.087C67.5705 152.113 67.5451 152.139 67.5197 152.139C67.5451 152.113 67.2144 152.164 67.0108 152.216Z" fill="#68A1BF"/>
<path d="M69.7077 151.085C69.6823 151.085 69.6823 151.085 69.6568 151.06C69.6314 151.034 69.6568 151.008 69.6568 150.983C70.0384 150.7 71.4122 150.469 71.4631 150.443C71.4886 150.443 71.514 150.469 71.514 150.494C71.514 150.52 71.4886 150.546 71.4631 150.546C71.4377 150.546 70.0639 150.803 69.7077 151.06C69.7077 151.085 69.7077 151.085 69.7077 151.085Z" fill="#68A1BF"/>
<path d="M58.3338 149.904C58.3338 149.904 58.1812 149.929 58.1812 149.981C58.1812 150.058 58.3084 150.084 58.3084 150.084L58.3338 149.904Z" fill="#331832"/>
<path d="M64.771 149.493C64.771 149.518 64.771 149.518 64.771 149.493C64.771 149.544 64.8219 149.595 64.8728 149.595L67.7476 149.493C67.7476 149.493 67.773 149.518 67.7985 149.57L67.8493 150.109C67.8493 150.161 67.9002 150.212 67.9765 150.212C68.0274 150.212 68.0783 150.161 68.0783 150.109L68.0274 149.57C68.002 149.416 67.9002 149.313 67.773 149.313L64.8982 149.416C64.8219 149.416 64.771 149.441 64.771 149.493Z" fill="#FD7583"/>
<path d="M59.1235 150.7L68.2313 150.829C68.3077 150.829 68.384 150.726 68.384 150.572V150.212C68.384 150.084 68.3331 149.955 68.2313 149.955L59.149 149.441L59.1235 150.7Z" fill="#331832"/>
<path d="M68.4087 150.212L68.9684 150.289C69.0193 150.289 69.0448 150.366 69.0448 150.443V150.52C69.0448 150.597 68.9939 150.674 68.943 150.674L68.3833 150.649L68.4087 150.212Z" fill="#FD7583"/>
<path d="M66.9587 149.904C66.9587 149.904 67.035 150.289 66.9333 150.828H66.3481C66.3481 150.828 66.5008 150.315 66.3736 149.878L66.9587 149.904Z" fill="#FD7583"/>
<path d="M59.1231 150.7L58.3345 150.083V149.904L59.174 149.467L59.1231 150.7Z" fill="#FD7583"/>
<path d="M125.601 43.1188L122.446 37.7243L149.388 21.9519L152.365 27.0895L125.601 43.1188Z" fill="#73B3CE"/>
<path d="M146.666 19.1776L153.84 31.5078L156.384 21.7207L146.666 19.1776Z" fill="#73B3CE"/>
<path d="M189.279 54.8581L185.769 48.7958L185.896 48.7187L213.906 32.3555L211.769 28.6564L212.074 28.7335L222.658 31.5335L222.632 31.6619L219.834 42.5279L217.264 38.1353L189.279 54.8581ZM186.125 48.8985L189.381 54.4985L217.341 37.75L219.707 41.8343L222.327 31.739L212.329 29.0931L214.288 32.4582L214.16 32.5353L186.125 48.8985Z" fill="#331832"/>
<path d="M224.414 93.2615L222.099 89.2799L242.019 77.6175L244.233 81.4194L224.414 93.2615Z" fill="#71A99E"/>
<path d="M240.008 75.5625L245.3 84.6817L247.182 77.4634L240.008 75.5625Z" fill="#71A99E"/>
<path d="M111.583 185.353L104.994 173.973L161.625 140.861L167.884 151.65L111.583 185.353Z" fill="#FEC786"/>
<path d="M155.9 134.979L170.986 160.949L176.303 140.373L155.9 134.979Z" fill="#FEC786"/>
<path d="M277.05 195.012H0V195.628H277.05V195.012Z" fill="#33192C"/>
<defs>
<linearGradient id="paint0_linear_1004_6134" x1="220.844" y1="10.9414" x2="20.3121" y2="186.803" gradientUnits="userSpaceOnUse">
<stop offset="0.0313228" stop-color="#86E5E3"/>
<stop offset="1" stop-color="#C8F59B"/>
</linearGradient>
</defs>
</svg>
