<svg width="285" height="196" viewBox="0 0 285 196" fill="none" xmlns="http://www.w3.org/2000/svg">
<path fill-rule="evenodd" clip-rule="evenodd" d="M144 0.333542C77.7258 0.333542 24 53.388 24 118.834C24 147.582 34.3663 173.938 51.609 194.458H236.391C253.634 173.938 264 147.582 264 118.834C264 53.388 210.274 0.333542 144 0.333542Z" fill="url(#paint0_linear_1004_6101)"/>
<path d="M70.6801 194.609C70.6801 194.609 83.7872 127.139 64.3396 124.591C44.9171 122.042 66.119 171.576 61.6581 191.116L70.6801 194.609Z" fill="#7FC6A6"/>
<path d="M64.7405 194.609C64.7405 194.609 62.8006 128.932 41.5369 128.956C20.2731 128.98 54.4866 173.315 54.3102 192.426L64.7405 194.609Z" fill="#3F9896"/>
<path d="M58.7437 193.444C59.424 168.246 43.199 138.609 43.0479 138.318L43.8037 137.93C43.98 138.221 60.3057 168.027 59.6003 193.469L58.7437 193.444Z" fill="#33353B"/>
<path d="M2.66175 162.742C2.8633 163.04 3.06485 163.364 3.2664 163.662C4.62688 165.702 6.31488 167.618 8.07846 169.235C10.0688 171.051 10.7994 173.266 11.0514 175.555C11.0514 175.629 11.0765 175.679 11.0765 175.754C11.4545 179.187 10.875 182.794 12.0087 185.581C12.0843 185.78 12.1851 185.979 12.2859 186.153C13.0669 187.646 14.4777 188.865 16.9719 189.611C25.3364 192.074 26.4953 191.577 27.755 194.736C27.8306 194.935 27.9061 195.134 27.9817 195.334C27.9817 189.611 28.2085 190.333 28.4856 191.204C28.4856 191.204 28.5108 192.224 29.6193 192.721C32.6426 194.264 42.1659 194.264 53.7804 192.647C54.0071 192.622 54.2087 192.597 54.4102 192.547C55.6447 192.373 56.9044 192.174 58.1641 191.95C61.9684 191.303 65.546 190.582 68.8212 189.785C69.2747 187.546 69.6778 190.258 67.4859 186.651C66.6797 185.332 65.546 183.989 64.0091 182.72C55.7455 176.027 50.4548 178.341 49.3462 164.21C49.321 164.06 49.321 163.886 49.321 163.712C49.321 163.588 49.2958 163.438 49.2958 163.314C48.3385 148.188 29.3422 157.99 23.4468 153.81C17.5514 149.631 13.1676 144.605 4.50091 148.312C-1.59604 150.999 -0.764636 157.144 2.66175 162.742Z" fill="#C4C461"/>
<path d="M2.05859 150.551C10.7757 155.9 18.1576 161.249 24.3805 166.3C24.582 166.474 24.7836 166.623 24.9851 166.797C34.1054 174.286 40.7062 181.177 45.2915 186.7C45.4175 186.875 45.5686 187.024 45.6946 187.173C50.683 193.219 50.3388 192.253 51.145 193.721C51.3717 193.696 51.5733 193.671 51.7748 193.621C50.6663 191.581 47.8361 186.924 34.1558 174.037C34.0046 173.888 33.8534 173.738 33.7023 173.589C25.9677 166.349 15.7137 158.214 2.38612 150.004L2.05859 150.551Z" fill="#33353B"/>
<path d="M38.0596 169.111C46.2476 167.444 49.4473 164.16 49.5732 164.036L49.1197 163.613C49.0945 163.637 45.9201 166.897 37.9336 168.514L38.0596 169.111Z" fill="#33353B"/>
<path d="M33.8277 174.236C36.8762 172.47 38.9673 168.564 39.8743 162.966C40.5545 158.761 40.3026 155.029 40.3026 154.98L39.6979 155.004C39.6979 155.154 40.5545 169.633 33.5254 173.689L33.8277 174.236Z" fill="#33353B"/>
<path d="M23.6247 167.071C24.5821 166.922 25.1363 166.772 25.1615 166.747L25.0104 166.15C24.8844 166.175 13.3455 169.21 2.76405 162.617L2.43652 163.14C10.9269 168.464 20.0723 167.668 23.6247 167.071Z" fill="#33353B"/>
<path d="M11.2035 176.152C15.2597 174.858 17.5524 172.544 18.7617 170.828C20.0718 168.962 20.4245 167.419 20.4497 167.344L19.845 167.22C19.8199 167.27 18.4342 173.216 11.002 175.579L11.2035 176.152Z" fill="#33353B"/>
<path d="M39.8993 191.552L40.3528 191.154C38.0602 188.591 33.2229 185.456 23.1453 185.009C17.1491 184.76 12.0348 185.581 11.9844 185.606L12.0852 186.203C12.2867 186.153 32.2152 182.944 39.8993 191.552Z" fill="#C2C68E"/>
<path d="M267.853 194.04H14.8301V194.586H267.853V194.04Z" fill="#33192C"/>
<path d="M102.81 181.675H44.9395V194.587H102.81V181.675Z" fill="#008AAA"/>
<path d="M84.7212 181.924H27.3545V194.338H84.7212V181.924Z" fill="#00B7EC"/>
<path d="M84.4693 182.173V194.09H27.6064V182.173H84.4693ZM84.9732 181.675H27.1025V194.587H84.9732V181.675Z" fill="black"/>
<path d="M125.572 194.586H168.653V135.1H125.572V194.586Z" fill="#D86713"/>
<path d="M155.11 135.35H112.532V194.338H155.11V135.35Z" fill="#F1A34F"/>
<path d="M154.883 135.599V194.09H112.784V135.599H154.883ZM155.387 135.101H112.28V194.587H155.362V135.101H155.387Z" fill="black"/>
<path d="M155.389 135.101L168.666 144.033V135.101H155.389Z" fill="#C95C12"/>
<path d="M193.835 51.1339C193.18 51.0344 191.164 52.8755 191.164 52.8755C186.881 53.3731 180.608 54.4926 178.366 54.9156C176.778 55.2141 172.47 53.7711 168.263 52.1042C163.274 50.1139 158.412 47.8499 158.412 47.8499C155.641 47.7006 152.491 52.7013 158.11 55.8859C158.966 56.3586 162.191 57.2045 165.895 57.9508C171.009 58.9958 177.081 59.8914 179.122 59.568C181.515 59.1948 188.292 56.7566 192.323 54.8658C192.348 54.8658 192.348 54.8409 192.374 54.8409C192.626 54.7414 193.608 54.2936 194.263 54.3434C195.019 54.3931 196.707 53.0248 196.757 52.6516C196.808 52.3033 194.49 51.2335 193.835 51.1339Z" fill="#ED975D"/>
<path d="M188.595 114.053L186.226 114.526C186.226 114.526 175.418 102.534 173.755 97.5087C172.874 94.8217 167.155 93.6524 161.209 92.1348C156.019 90.8162 150.652 89.2239 148.083 86.114C142.565 79.4215 151.559 71.2114 151.559 71.2114C151.559 71.2114 161.108 76.8341 169.372 82.6309C175.141 86.6862 180.255 90.8162 181.036 93.2046C182.901 98.9765 186.856 109.973 188.595 114.053Z" fill="#49263E"/>
<path d="M185.421 118.009H186.756C187.209 117.934 187.537 117.81 187.99 117.76C188.671 117.661 188.998 117.959 189.074 118.009V118.034H194.717C194.868 117.835 194.717 117.362 194.591 117.039C194.49 116.815 194.314 116.641 194.062 116.566C193.457 116.392 192.273 116.243 191.215 115.272C190.61 114.725 188.293 113.282 188.293 113.282C188.242 113.282 187.99 113.357 186.932 114.227C186.378 114.675 185.446 113.581 185.446 113.581C185.446 113.581 185.269 113.73 185.143 113.979C185.043 114.178 184.967 114.476 185.017 114.825C185.093 115.322 184.841 116.268 184.614 116.89C184.488 117.263 184.362 117.536 184.362 117.536C184.362 117.536 184.287 117.885 185.421 118.009Z" fill="#233862"/>
<path d="M169.346 82.6061L161.209 92.1348C156.019 90.8162 150.652 89.2239 148.083 86.114C142.565 79.4215 151.559 71.2114 151.559 71.2114C151.559 71.2114 161.108 76.8092 169.346 82.6061Z" fill="#33192C"/>
<path d="M161.964 77.6302C161.964 77.6302 161.309 79.6703 160.251 82.7554C158.891 86.6365 156.875 92.1846 154.708 97.3097C154.23 98.4292 153.751 99.5488 153.247 100.619C151.433 104.574 149.569 107.958 147.931 109.675C144.984 112.76 137.854 132.663 137.854 132.663L136.065 132.165C136.065 132.165 133.571 115.173 142.389 105.52C142.489 105.42 142.565 105.296 142.565 105.171C142.691 103.728 143.094 97.3345 144.001 90.8411C144.228 89.2488 144.48 87.6565 144.757 86.114C144.782 86.0145 144.782 85.915 144.807 85.8155C146.142 78.7498 147.427 75.5902 149.09 74.0228L161.259 77.4312L161.964 77.6302Z" fill="#49263E"/>
<path d="M135.838 135.101H137.174C137.627 135.026 137.955 134.902 138.408 134.852C139.089 134.753 139.416 135.051 139.492 135.101V135.126H145.135C145.286 134.927 145.135 134.454 145.009 134.131C144.908 133.907 144.732 133.733 144.48 133.658C143.875 133.484 142.691 133.335 141.633 132.364C141.028 131.817 138.711 130.374 138.711 130.374C138.66 130.374 138.408 130.449 137.35 131.319C136.796 131.767 135.864 130.673 135.864 130.673C135.864 130.673 135.687 130.822 135.561 131.071C135.461 131.27 135.385 131.568 135.435 131.917C135.511 132.414 135.259 133.36 135.032 133.982C134.906 134.355 134.78 134.628 134.78 134.628C134.78 134.628 134.705 134.952 135.838 135.101Z" fill="#233862"/>
<path d="M138.459 54.5175C138.459 54.5175 136.418 59.4436 134.075 64.2204C132.11 68.2508 129.918 72.1817 128.507 73.0027C126.542 74.1969 121.151 77.5307 117.649 80.0186C117.649 80.0186 114.902 79.9938 114.499 80.5162C114.071 81.0387 113.088 83.3524 113.391 83.6012C113.668 83.8251 115.86 83.7256 116.389 83.2032C116.842 82.7305 117.875 82.407 118.127 82.3324C118.152 82.3324 118.152 82.3324 118.178 82.3075C122.435 81.0138 129.112 78.3269 131.127 77.0083C132.866 75.8638 136.72 71.1865 139.794 67.0068C142.036 63.9716 143.85 61.2349 144.153 60.2895C146.143 54.1692 140.424 52.5769 138.459 54.5175Z" fill="#FFB27D"/>
<path d="M149.091 35.261C148.839 34.9127 148.612 34.6142 148.36 34.3405C148.663 34.3405 148.99 34.3156 149.267 34.2161C149.973 33.9176 150.3 31.6784 150.2 31.0316C150.099 30.3598 149.091 28.4442 147.882 28.2451C146.647 28.0461 145.387 29.3896 145.387 29.3896C145.614 28.4193 147.68 27.8719 147.68 27.8719C143.422 28.6432 143.624 31.4545 143.674 31.7033C139.769 30.335 137.477 37.5997 137.477 37.5997L147.579 43.4712C147.579 43.4712 147.605 41.8789 148.562 41.9784C150.074 42.1028 151.333 38.4705 149.091 35.261Z" fill="#2C3A64"/>
<path d="M149.746 50.4871C147.428 51.5569 144.355 50.0144 144.355 49.9895C144.556 49.7905 144.481 49.1934 144.304 48.447C144.128 47.6509 143.7 46.5562 142.893 45.2376C142.717 44.9639 142.566 44.6903 142.364 44.3917L142.641 44.2922L147.151 42.5009C147.151 42.5009 147.882 43.7946 148.638 44.9639C149.293 45.9342 149.973 46.8299 150.25 46.805C150.275 46.7801 153.248 48.8202 149.746 50.4871Z" fill="#FFB27D"/>
<path d="M147.151 42.9487C147.025 44.541 146.496 47.4021 144.329 48.447C144.152 47.6509 143.724 46.5562 142.918 45.2376L147.151 42.9487Z" fill="#ED975D"/>
<path d="M142.641 47.0289C142.641 47.0289 148.512 44.74 147 41.1574C145.514 37.5748 145.262 34.863 141.432 36.1567C137.628 37.4753 137.477 39.1173 137.678 40.4359C137.905 41.7794 141.079 47.5265 142.641 47.0289Z" fill="#FFB27D"/>
<path d="M144.833 40.3364C147.554 39.9632 148.335 38.8685 148.335 38.8685C148.335 38.8685 145.84 38.1719 144.379 35.7586C144.379 35.7586 141.331 34.7386 139.088 36.4304C138.962 36.6045 138.862 36.8035 138.811 37.0523C138.282 36.8782 137.526 36.9279 137.073 38.3709C136.393 40.5354 138.786 42.8989 138.786 42.8989C139.366 42.7248 138.71 40.8091 138.61 39.7642C138.534 38.9929 138.962 38.0226 139.189 37.5748C139.466 37.948 142.338 41.4808 145.815 41.6301C145.815 41.6301 143.976 41.0081 142.288 39.7642C143.119 40.212 144.001 40.4608 144.833 40.3364Z" fill="#2C3A64"/>
<path d="M160.907 57.8762C160.856 57.702 160.806 57.5279 160.756 57.3288C161.637 55.6868 162.066 54.1941 162.242 52.9501C162.645 50.288 161.965 48.6709 161.965 48.6709C161.965 48.6709 157.883 46.5313 156.095 46.2576H156.069C156.044 46.2576 156.019 46.2576 155.994 46.2576C154.18 46.0088 150.25 46.805 150.25 46.805C150.25 46.805 151.005 48.7953 148.864 50.1139C146.722 51.4325 144.455 49.7656 144.455 49.7656C144.379 49.8153 144.304 49.8651 144.228 49.9149C144.228 49.9149 138.61 53.5721 138.106 54.418C137.602 55.2639 135.436 59.3938 135.436 59.3938C135.436 59.3938 136.116 62.8769 143.724 63.1755C144.354 64.6682 144.833 66.1361 144.984 67.3552C145.589 72.0822 144.883 75.8141 145.589 78.5756C146.294 81.3372 158.967 79.7698 161.259 79.2225C163.552 78.7 163.048 76.2619 163.225 73.9232C163.426 70.9626 161.662 60.4636 160.907 57.8762Z" fill="#00B7EC"/>
<path d="M162.242 52.9501C162.066 54.219 161.637 55.6868 160.756 57.3537C160.554 56.483 159.748 53.3233 158.438 51.8803C158.413 51.8803 160.63 52.0545 162.242 52.9501Z" fill="#008AAA"/>
<path d="M110.619 83.8998C110.619 83.8998 112.987 81.0636 113.491 80.7402C113.995 80.4167 116.237 79.8196 116.363 79.944C116.489 80.0684 116.489 80.2426 116.212 80.4665C115.935 80.7153 114.877 81.3124 115.028 81.387C115.179 81.4617 118.353 79.8943 118.807 80.4167C119.26 80.9392 118.555 83.1037 117.32 84.1486C116.086 85.1935 112.433 85.6414 112.206 85.7906C110.266 87.0346 110.619 83.8998 110.619 83.8998Z" fill="#ED975D"/>
<path d="M69.0488 77.3815C69.0488 77.3815 72.45 81.3621 76.7582 79.6952C76.7582 79.6952 77.6904 77.481 77.6904 75.839C77.6904 75.6399 77.6904 75.4409 77.6904 75.2667C77.7156 73.4257 77.766 72.3808 77.766 72.3808C77.5644 72.3061 71.1651 69.6938 71.1651 69.9177C71.3163 74.8936 69.0488 77.3815 69.0488 77.3815Z" fill="#FFB27D"/>
<path d="M71.8456 71.1119C72.4755 72.2315 74.5918 74.4457 77.7158 75.2667C77.741 73.4257 77.7914 72.3808 77.7914 72.3808C77.6151 72.331 71.6693 70.7636 71.8456 71.1119Z" fill="#ED975D"/>
<path d="M79.1511 72.1817C79.1511 72.1817 71.9457 73.8486 70.9631 69.3952C69.9805 64.9419 68.3933 62.1803 72.9534 60.9115C77.5135 59.6675 78.7732 61.1602 79.4787 62.5535C80.1589 63.9965 80.9903 71.6344 79.1511 72.1817Z" fill="#FFB27D"/>
<path d="M71.1902 70.6392C71.0894 70.689 69.5526 71.1617 66.6049 65.3897C66.1514 64.4941 65.8239 62.5286 66.9072 60.7871C67.9905 59.0455 71.7948 57.7021 74.9693 57.105C78.1437 56.5079 78.8995 58.2743 79.6302 60.0407C80.4112 61.9066 82.6786 63.4243 82.6786 63.4243C79.9577 64.9419 76.6573 62.7774 75.5236 63.1257C74.3898 63.474 73.9867 65.2404 73.8859 65.8127C73.8104 66.3849 73.6592 66.8576 72.2483 66.3351C70.8123 65.8375 71.5933 68.3503 71.82 68.823C71.82 68.823 72.0216 70.1168 71.1902 70.6392Z" fill="#A9453D"/>
<path d="M52.6476 181.675H48.289C47.3821 181.675 46.3491 180.754 46.0972 179.087C45.8452 177.421 43.9557 176.5 43.5526 175.132C43.1495 173.763 45.2406 171.823 45.2406 171.823L45.5933 171.375L45.946 170.902L49.3976 171.723C49.3976 171.723 49.4732 172.544 49.5236 173.589C49.5487 174.336 49.5739 175.231 49.5487 176.002C49.448 177.843 50.0526 179.809 51.6902 180.157C53.3027 180.506 52.6476 181.675 52.6476 181.675Z" fill="#2C3A64"/>
<path d="M83.0069 181.725H71.4428C71.342 181.7 71.2413 181.675 71.1909 181.65C70.4099 181.252 70.6618 178.242 70.7626 177.321C70.7878 177.147 70.7878 177.047 70.7878 177.047C70.7878 177.047 74.844 173.738 75.4235 176.276C75.4487 176.351 75.4738 176.425 75.4738 176.5C76.1793 178.864 79.3285 179.933 81.1677 180.257C82.5534 180.481 82.9061 181.302 83.0069 181.725Z" fill="#2C3A64"/>
<path d="M80.6886 115.67C80.6886 115.67 80.0587 123.284 79.3533 132.439C78.3707 144.854 77.1866 160.13 77.0606 163.016C76.8591 168.041 76.0529 176.077 76.0529 176.077C76.0529 176.077 74.1129 177.993 70.2582 177.172C70.2582 177.172 66.8067 165.702 65.8241 153.586C65.7989 153.387 65.7989 153.188 65.7737 152.989C64.8667 140.649 63.4307 114.626 63.4307 114.626L80.6886 115.67Z" fill="#EE9849"/>
<path d="M80.6886 115.67C80.6886 115.67 80.0587 123.284 79.3533 132.439L65.8241 153.586C65.7989 153.387 65.7989 153.188 65.7737 152.989C64.8667 140.649 63.4307 114.626 63.4307 114.626L80.6886 115.67Z" fill="#E58638"/>
<path d="M77.8665 116.591C77.8665 116.591 66.7307 144.157 59.4245 157.094C52.093 170.056 49.8255 173.664 49.8255 173.664C49.8255 173.664 45.6433 171.997 45.2402 170.877C45.2402 170.877 48.0368 145.874 52.9496 139.778C55.7209 136.345 58.971 125.995 59.1221 122.388C59.2733 118.78 60.1047 111.615 60.1047 111.615L77.8665 116.591Z" fill="#EE9849"/>
<path d="M52.371 111.988C52.371 111.988 52.0939 115.422 51.8672 115.969C51.6656 116.492 50.2547 118.134 50.0784 118.109C49.9272 118.084 49.8264 117.959 49.902 117.611C49.9776 117.288 50.4815 116.243 50.3051 116.268C50.154 116.293 48.5415 119.203 47.8865 119.029C47.2567 118.855 46.6268 116.79 47.0047 115.347C47.3826 113.879 49.9776 111.59 50.0784 111.366C50.935 109.401 52.371 111.988 52.371 111.988Z" fill="#FFB27D"/>
<path d="M51.187 112.859C52.4215 113.257 52.6231 113.158 52.6231 113.158C52.6231 113.158 58.6193 102.385 59.2239 101.39C59.8286 100.395 71.9469 89.2986 71.9469 89.2986L68.8228 77.8293C68.8228 77.8293 55.0417 95.4687 53.5301 98.0063C51.0611 102.186 49.625 111.889 49.625 111.889C49.625 111.889 50.2045 112.561 51.187 112.859Z" fill="#33192C"/>
<path d="M83.0312 93.8017C82.9808 96.1652 82.8549 98.8024 82.6533 101.489C82.6533 101.639 82.6281 101.813 82.6281 101.962C82.5021 103.629 82.3762 105.296 82.225 106.938C82.1746 107.585 82.099 108.232 82.0235 108.878V108.953C82.0235 109.202 81.9983 109.451 81.9731 109.675C81.3684 115.77 80.7386 120.597 80.6126 120.671C80.4614 120.771 80.3103 120.82 80.1339 120.796C78.5215 120.597 73.6842 120.97 69.7288 120.099C66.378 119.402 63.5059 118.084 60.4574 116.317C60.0543 116.093 59.1221 115.447 59.1977 114.999C59.2733 114.476 59.3992 113.755 59.5756 112.809C60.1803 109.575 61.2132 103.977 61.5659 97.4341C61.6415 96.215 61.7423 95.0208 61.8683 93.8266C62.1958 90.7416 62.75 87.8307 63.4807 85.2184C64.8411 80.3919 66.8315 76.6849 69.3257 75.2419C69.6532 75.0677 71.4168 76.1624 73.0292 77.1824C74.5157 78.1279 76.1029 78.3766 77.6145 78.2522L78.9498 79.7201C80.5874 81.5861 82.3006 84.074 82.7793 87.6068C82.8045 87.8805 82.8549 88.1542 82.8801 88.4527C83.0312 89.9455 83.0564 91.7616 83.0312 93.8017Z" fill="#49263E"/>
<path d="M83.0317 93.8017C82.9813 96.1652 82.8553 98.8024 82.6537 101.489C82.6537 101.639 82.6285 101.813 82.6285 101.962C73.3823 96.2399 71.9463 85.7657 71.9463 85.7657C76.5064 85.9648 80.1091 86.9848 82.9057 88.4776C83.0317 89.9454 83.0568 91.7616 83.0317 93.8017Z" fill="#33192C"/>
<path d="M112.03 84.1983C111.552 82.9295 110.821 83.0041 110.821 83.0041C110.821 83.0041 97.0651 86.3877 95.8306 86.537C94.5961 86.6863 81.0166 81.2875 81.0166 81.2875C81.0166 81.2875 75.6754 78.924 73.156 81.0884C70.9893 82.9793 70.8886 85.3428 71.3924 87.358C71.9971 89.7464 74.0378 91.5128 76.5068 91.8114C82.0495 92.508 93.1097 93.8266 95.4275 93.5031C100.592 92.7816 112.282 86.1389 112.282 86.1389C112.282 86.1389 112.408 85.1935 112.03 84.1983Z" fill="#49263E"/>
<path d="M247.75 109.102C247.75 109.102 249.664 110.844 249.287 112.088C248.909 113.332 247.195 114.153 246.943 115.67C246.717 117.188 245.785 118.009 244.928 118.009C244.097 118.009 240.922 118.009 240.922 118.009C240.922 118.009 240.292 116.939 241.804 116.616C243.29 116.292 243.87 114.501 243.769 112.859C243.668 111.192 243.92 109.003 243.92 109.003L247.095 108.256L247.75 109.102Z" fill="#2C3A64"/>
<path d="M223.916 117.835C223.715 117.934 223.034 118.009 222.102 118.034H213.058C213.083 117.76 213.31 116.815 214.771 116.591C216.434 116.317 219.331 115.372 219.986 113.257C220.011 113.183 220.036 113.108 220.036 113.058C220.54 110.794 224.269 113.755 224.269 113.755C224.269 113.755 224.269 113.854 224.294 114.004C224.395 114.8 224.622 117.487 223.916 117.835Z" fill="#2C3A64"/>
<path d="M215.225 57.4781C215.225 57.4781 215.779 64.4691 216.459 72.8534C217.366 84.2481 218.449 98.255 218.55 100.917C218.727 105.52 219.482 112.884 219.482 112.884C219.482 112.884 221.246 114.626 224.798 113.904C224.798 113.904 227.948 103.38 228.855 92.2592C228.88 92.085 228.88 91.886 228.905 91.7118C229.736 80.3918 231.046 56.5327 231.046 56.5327L215.225 57.4781Z" fill="#49263E"/>
<path d="M215.225 57.4781C215.225 57.4781 215.779 64.4691 216.459 72.8534L228.88 92.2591C228.905 92.085 228.905 91.886 228.93 91.7118C229.762 80.3918 231.072 56.5327 231.072 56.5327L215.225 57.4781Z" fill="#33192C"/>
<path d="M217.819 58.2991C217.819 58.2991 228.023 83.5763 234.75 95.4686C241.476 107.361 243.568 110.67 243.568 110.67C243.568 110.67 247.422 109.152 247.775 108.107C247.775 108.107 245.205 85.1686 240.721 79.5708C238.176 76.4111 235.203 66.9322 235.052 63.6233C234.901 60.3143 234.145 53.7462 234.145 53.7462L217.819 58.2991Z" fill="#49263E"/>
<path d="M186.302 44.5907C186.302 44.5907 183.531 43.9688 183.077 43.9936C182.599 44.0185 180.986 44.6902 180.961 44.8395C180.936 44.9639 181.011 45.0883 181.289 45.0883C181.566 45.1132 182.498 44.9888 182.447 45.0883C182.397 45.1878 179.726 45.7103 179.676 46.2576C179.651 46.7801 181.112 47.7753 182.347 47.8499C183.581 47.9245 186.025 46.5064 186.227 46.4815C187.99 46.3323 186.302 44.5907 186.302 44.5907Z" fill="#FFB27D"/>
<path d="M185.117 45.2874C184.714 44.0434 184.815 43.8444 184.815 43.8444C184.815 43.8444 196.051 37.8485 197.084 37.2514C198.117 36.6543 209.707 24.4386 209.707 24.4386L221.598 27.6729C221.598 27.6729 203.207 41.5057 200.561 42.9985C196.203 45.4615 186.125 46.8547 186.125 46.8547C186.125 46.8547 185.42 46.2576 185.117 45.2874Z" fill="#E58638"/>
<path d="M213.31 18.4925C213.31 18.4925 209.153 25.7323 205.072 26.6777C205.072 26.6777 205.248 24.2396 206.231 22.5727C205.828 22.1 205.475 21.677 205.147 21.279C204.114 19.9852 203.636 19.1891 203.636 19.1891L205.021 15.507L205.954 13.0191C206.407 13.8152 206.911 14.5118 207.415 15.1089C210.111 18.1442 213.31 18.4925 213.31 18.4925Z" fill="#FFB27D"/>
<path d="M207.439 15.1338C207.439 15.1338 207.943 18.7662 205.172 21.3038C204.139 20.0101 203.66 19.214 203.66 19.214L205.046 15.5319C206.507 15.0841 207.439 15.1338 207.439 15.1338Z" fill="#ED975D"/>
<path d="M202.552 19.7365C202.552 19.7365 208.775 17.3481 207.213 13.5416C205.651 9.73504 205.399 6.87394 201.343 8.24229C197.312 9.61064 197.135 11.3771 197.337 12.7703C197.538 14.1387 200.889 20.2589 202.552 19.7365Z" fill="#FFB27D"/>
<path d="M234.7 55.662C232.18 59.2197 213.411 63.9965 213.638 61.5335C213.713 60.5881 213.839 58.9211 213.638 56.6571C213.587 56.1347 213.537 55.5625 213.436 54.9654C212.957 51.7311 211.824 47.5514 209.304 42.7248C209.103 42.3516 208.926 42.0033 208.725 41.6301C207.692 39.7642 206.81 37.7739 206.13 35.8582C204.82 32.1512 204.316 28.5935 204.971 26.2797V26.2548C208.901 24.4635 210.413 17.5222 210.413 17.5222C210.413 17.5222 223.816 19.8858 231.299 37.5251C231.299 37.5002 236.892 52.5521 234.7 55.662Z" fill="#EE9849"/>
<path d="M213.637 56.6571C213.587 56.1347 213.536 55.5624 213.436 54.9653C212.957 51.731 211.823 47.5513 209.304 42.7248C209.732 40.1374 210.337 37.9729 210.992 37.0026C213.662 33.0468 215.224 32.4248 215.224 32.4248C215.224 32.4248 219.23 49.0939 213.637 56.6571Z" fill="#E58638"/>
<path d="M192.525 52.6764C192.525 52.6764 188.821 52.8755 188.242 53.0745C187.663 53.2735 185.874 54.6916 185.874 54.8658C185.899 55.0399 186.025 55.1395 186.378 55.0648C186.73 54.9902 187.864 54.5175 187.839 54.6668C187.814 54.816 184.639 56.4332 184.79 57.1049C184.942 57.7766 187.133 58.4981 188.721 58.1498C190.308 57.8015 192.827 55.1643 193.104 55.0648C195.271 54.2687 192.525 52.6764 192.525 52.6764Z" fill="#FFB27D"/>
<path d="M191.819 54.0696C191.089 52.8754 191.618 52.353 191.618 52.353C191.618 52.353 203.056 43.496 203.963 42.6003C204.87 41.7047 209.027 27.4738 209.027 27.4738C209.027 27.4738 210.463 21.7019 213.814 21.0799C216.736 20.5325 218.726 21.9506 220.062 23.6176C221.624 25.6079 221.775 28.3446 220.49 30.5091C217.568 35.3605 211.672 45.0136 209.959 46.6805C206.13 50.3626 193.306 55.4878 193.306 55.4878C193.306 55.4878 192.424 54.9902 191.819 54.0696Z" fill="#EE9849"/>
<path d="M208.094 6.45099C208.145 6.37636 208.271 6.27684 208.573 6.17732C208.573 6.17732 208.296 6.07781 207.943 6.15244C207.767 5.7295 207.339 5.008 206.558 5.008C206.558 5.008 207.011 5.1324 207.187 5.58022C206.104 4.90849 204.063 4.70945 199.025 6.35148C192.373 8.54084 195.699 12.3722 196.707 12.6708C197.714 12.9693 199.579 11.0039 201.242 10.7551C202.904 10.5063 203.811 12.7952 204.466 12.9693C205.096 13.1684 204.744 12.6459 205.399 12.1234C206.054 11.601 206.457 12.8201 206.432 13.6908C206.406 14.5616 207.716 15.3826 207.716 15.3826C207.716 15.3826 207.716 15.3826 208.472 13.9894C209.228 12.5961 209.027 7.59543 208.296 6.67491C208.22 6.62515 208.17 6.55051 208.094 6.45099Z" fill="black"/>
<path d="M102.809 181.526V188.989L84.9717 181.526H102.809Z" fill="#00697A"/>
<path d="M255.51 118.034H196.506V194.562H255.51V118.034Z" fill="#008AAA"/>
<path d="M237.068 118.283H178.567V194.314H237.068V118.283Z" fill="#00B7EC"/>
<path d="M236.816 118.532V194.065H178.819V118.532H236.816ZM237.32 118.034H178.315V194.562H237.32V118.034Z" fill="black"/>
<path d="M255.51 118.034V129.478L237.32 118.034H255.51Z" fill="#00697A"/>
<path d="M248 194.248C248 194.248 233.405 138.962 218.758 143.526C204.137 148.116 236.637 178.389 240.382 194.609L248 194.248Z" fill="#C4C461"/>
<path d="M243.139 191.4C243.139 191.4 206.456 140.979 188.997 151.045C171.537 161.111 223.336 179.603 233.414 194.609L243.139 191.4Z" fill="#7FC6A6"/>
<path d="M237.595 193.293C224.696 173.277 195.521 157.763 195.244 157.625L195.647 156.955C195.95 157.117 225.275 172.7 238.301 192.9L237.595 193.293Z" fill="#33353B"/>
<path d="M283.524 163.505C283.398 163.76 283.272 163.992 283.121 164.247C282.214 165.871 281.055 167.426 279.77 168.772C278.36 170.28 277.956 171.974 277.956 173.715C277.956 173.761 277.956 173.807 277.956 173.854C277.956 176.429 278.737 179.075 278.082 181.233C278.032 181.395 277.982 181.534 277.906 181.674C277.402 182.857 276.394 183.878 274.48 184.62C268.03 187.127 267.047 186.848 266.342 189.308C266.292 189.447 266.266 189.609 266.216 189.772C266.09 190.236 265.989 190.793 265.838 191.466C265.838 191.466 265.914 192.231 265.082 192.672C262.815 194.065 255.206 194.83 245.834 194.552C245.658 194.552 245.481 194.552 245.305 194.529C244.297 194.505 243.29 194.459 242.257 194.389C239.183 194.227 236.235 193.972 233.565 193.624C233.01 191.999 232.532 189.331 233.968 186.454C234.497 185.409 235.278 184.319 236.412 183.251C242.408 177.613 246.842 178.912 246.464 168.308C246.464 168.192 246.464 168.076 246.439 167.937C246.439 167.844 246.439 167.728 246.414 167.635C245.834 156.335 261.857 162.089 266.166 158.516C270.499 154.942 273.548 150.835 280.778 152.924C285.893 154.432 285.767 159.073 283.524 163.505Z" fill="#3F9896"/>
<path d="M282.944 154.409C276.469 159.096 271.052 163.644 266.542 167.914C266.391 168.053 266.24 168.192 266.114 168.331C259.488 174.643 254.852 180.281 251.678 184.76C251.577 184.899 251.501 185.015 251.401 185.154C247.974 190.05 246.337 193.438 245.833 194.598C245.656 194.598 245.48 194.598 245.304 194.575C246.009 192.974 249.662 185.131 259.438 174.457C259.538 174.341 259.664 174.225 259.765 174.086C265.308 168.076 272.74 161.208 282.641 154.061L282.944 154.409Z" fill="#33353B"/>
<path d="M255.861 171.092C249.185 170.512 246.363 168.331 246.237 168.238L246.565 167.89C246.59 167.913 249.412 170.071 255.912 170.652L255.861 171.092Z" fill="#33353B"/>
<path d="M259.717 174.55C257.122 173.482 255.106 170.744 253.897 166.637C252.99 163.574 252.839 160.767 252.839 160.743L253.318 160.72C253.318 160.836 253.922 171.673 259.893 174.109L259.717 174.55Z" fill="#33353B"/>
<path d="M267.199 168.401C266.418 168.354 265.965 168.285 265.965 168.285L266.04 167.844C266.141 167.867 275.614 169.19 283.449 163.435L283.752 163.783C277.428 168.424 270.071 168.563 267.199 168.401Z" fill="#33353B"/>
<path d="M277.881 174.179C274.53 173.552 272.515 171.997 271.381 170.837C270.171 169.561 269.743 168.424 269.743 168.378L270.197 168.238C270.222 168.285 271.859 172.578 277.982 173.738L277.881 174.179Z" fill="#33353B"/>
<path d="M263.52 189.841C256.213 189.447 251.2 184.992 251.149 184.922L251.502 184.597C251.553 184.644 257.775 190.166 266.367 189.331L266.417 189.795C265.434 189.865 264.452 189.888 263.52 189.841Z" fill="#33353B"/>
<path d="M256.39 187.916L255.987 187.66C257.575 185.572 261.152 182.857 269.164 181.72C273.925 181.047 278.057 181.256 278.108 181.256L278.082 181.72C277.906 181.697 261.757 180.908 256.39 187.916Z" fill="#33353B"/>
<defs>
<linearGradient id="paint0_linear_1004_6101" x1="226.403" y1="10.5052" x2="26.2406" y2="189.992" gradientUnits="userSpaceOnUse">
<stop offset="0.0313228" stop-color="#86E5E3"/>
<stop offset="1" stop-color="#C8F59B"/>
</linearGradient>
</defs>
</svg>
