<svg width="285" height="195" viewBox="0 0 285 195" fill="none" xmlns="http://www.w3.org/2000/svg">
<path fill-rule="evenodd" clip-rule="evenodd" d="M147.5 4.97836C83.1588 4.97836 31 56.9115 31 120.974C31 149.114 41.064 174.914 57.8037 195H237.196C253.936 174.914 264 149.114 264 120.974C264 56.9115 211.841 4.97836 147.5 4.97836Z" fill="url(#paint0_linear_1004_6123)"/>
<path d="M43.6816 167.77L43.9784 167.797L43.6816 167.77Z" fill="#33192C"/>
<path d="M44.329 170.994C45.1384 171.907 46.4335 172.391 48.1333 172.391C48.2412 172.391 48.3222 172.391 48.4301 172.391L48.4031 171.8C46.7303 171.854 45.5161 171.451 44.7607 170.618C43.7354 169.463 43.9512 167.824 43.9512 167.797L43.3577 167.716C43.3846 167.797 43.1148 169.624 44.329 170.994Z" fill="#33192C"/>
<path d="M49.1862 164.466L49.1592 165.057C49.2671 165.057 49.348 165.057 49.456 165.057C51.1558 165.057 52.4509 164.6 53.2603 163.66C54.4744 162.29 54.2046 160.463 54.2046 160.382L53.611 160.463L53.9078 160.409L53.611 160.463C53.611 160.49 53.8539 162.129 52.8016 163.284C52.0731 164.117 50.832 164.52 49.1862 164.466Z" fill="#33192C"/>
<path d="M48.945 152.269L48.918 152.86C49.0259 152.86 49.1068 152.86 49.2148 152.86C50.9146 152.86 52.2096 152.404 53.0191 151.463C54.2332 150.093 53.9634 148.267 53.9634 148.186L53.6666 148.24L53.3698 148.293L53.6666 148.24L53.3698 148.293C53.3698 148.32 53.6127 149.959 52.5604 151.114C51.8319 151.92 50.5908 152.323 48.945 152.269Z" fill="#33192C"/>
<path d="M53.6669 148.24L53.3701 148.294L53.6669 148.24Z" fill="#33192C"/>
<path d="M49.1862 180.074L49.1592 180.665C49.2671 180.665 49.348 180.665 49.456 180.665C51.1558 180.665 52.4509 180.208 53.2603 179.268C54.4744 177.898 54.2046 176.071 54.2046 175.991L53.9078 176.044L53.611 176.098L53.9078 176.044L53.611 176.098C53.611 176.125 53.8539 177.764 52.8016 178.919C52.0731 179.725 50.832 180.128 49.1862 180.074Z" fill="#33192C"/>
<path d="M53.9081 176.044L53.6113 176.098L53.9081 176.044Z" fill="#33192C"/>
<path d="M43.2773 154.069L43.5741 154.123L43.2773 154.069Z" fill="#33192C"/>
<path d="M43.9247 157.32C44.7342 158.233 46.0292 158.717 47.7291 158.717C47.837 158.717 47.9179 158.717 48.0258 158.717L47.9989 158.126C46.326 158.18 45.1119 157.777 44.3564 156.944C43.3312 155.789 43.547 154.15 43.547 154.123L42.9534 154.043C42.9534 154.096 42.7106 155.95 43.9247 157.32Z" fill="#33192C"/>
<path d="M48.323 189.611H49.0245H49.699L49.3482 141.067V141.04H48.6737H47.9992V141.067L47.6484 189.611H48.323Z" fill="#33192C"/>
<path d="M53.0712 137.387C49.6716 136.097 48.4305 139.563 48.4305 139.563C46.4879 136.903 44.869 139.133 44.869 139.133C42.3867 138.193 42.09 141.282 42.09 141.282C41.3615 141.389 41.0917 141.819 41.0107 142.33C40.8758 143.377 41.6313 144.344 42.6835 144.559C48.0527 145.634 53.4759 144.533 55.4725 144.049C56.1201 143.888 56.4978 143.216 56.255 142.598C55.9582 141.9 55.1757 142.034 55.1757 142.034C55.1757 142.034 56.4708 138.649 53.0712 137.387Z" fill="#3F9896"/>
<path d="M54.934 156.702C52.4517 156.326 51.8312 159.711 51.8312 159.711C51.8312 159.711 51.2376 158.448 49.6727 158.502C49.1331 158.529 48.8093 158.797 48.6204 159.2C47.9999 160.355 48.7553 161.752 50.0235 161.994C52.2899 162.451 56.1751 162.155 57.5511 162.048C58.0638 161.994 58.5225 161.725 58.7383 161.269C58.9002 160.973 58.9542 160.624 58.7383 160.221C58.1717 159.2 57.0925 159.791 57.0925 159.791C57.0925 159.791 57.4432 157.105 54.934 156.702Z" fill="#3F9896"/>
<path d="M39.3918 153.344C39.2299 153.666 39.2569 153.962 39.3918 154.177C39.5807 154.526 39.9584 154.768 40.3361 154.795C41.4424 154.902 44.5452 155.117 46.3259 154.768C47.3512 154.553 47.9178 153.451 47.4321 152.538C47.2702 152.243 47.0004 152.001 46.5957 152.001C45.3546 151.974 44.8959 152.968 44.8959 152.968C44.8959 152.968 44.4103 150.255 42.4406 150.577C40.4441 150.873 40.6869 153.022 40.6869 153.022C40.6869 153.022 39.8505 152.538 39.3918 153.344Z" fill="#3F9896"/>
<path d="M54.8254 173.734C53.1526 173.465 52.7478 175.749 52.7478 175.749C52.7478 175.749 52.3431 174.889 51.3179 174.943C50.9671 174.943 50.7513 175.158 50.6164 175.4C50.2116 176.179 50.6973 177.092 51.5607 177.28C53.0716 177.576 55.6888 177.387 56.6061 177.307C56.9569 177.28 57.2537 177.092 57.4156 176.796C57.5235 176.608 57.5505 176.367 57.4156 176.098C57.0378 175.4 56.3093 175.803 56.3093 175.803C56.3093 175.803 56.4982 173.976 54.8254 173.734Z" fill="#3F9896"/>
<path d="M53.0715 145.715C51.3987 145.446 50.9939 147.729 50.9939 147.729C50.9939 147.729 50.5892 146.87 49.5639 146.923C49.2132 146.923 48.9973 147.138 48.8624 147.38C48.4577 148.159 48.9434 149.073 49.8068 149.261C51.3177 149.556 53.9349 149.368 54.8522 149.288C55.203 149.261 55.4998 149.073 55.6616 148.777C55.7696 148.589 55.7966 148.347 55.6616 148.079C55.2839 147.38 54.5554 147.783 54.5554 147.783C54.5554 147.783 54.7443 145.983 53.0715 145.715Z" fill="#3F9896"/>
<path d="M44.8962 163.687C42.5218 163.311 41.9552 166.561 41.9552 166.561C41.9552 166.561 41.3886 165.352 39.9047 165.406C39.3921 165.433 39.0953 165.702 38.9064 166.051C38.3398 167.152 39.0143 168.469 40.2285 168.71C42.3869 169.14 46.0833 168.872 47.3784 168.764C47.8641 168.71 48.2418 168.469 48.4577 168.066C48.5926 167.797 48.7005 167.421 48.5116 167.045C47.972 166.078 46.9737 166.642 46.9737 166.642C46.9737 166.642 47.2705 164.063 44.8962 163.687Z" fill="#3F9896"/>
<path d="M227.989 167.77L228.286 167.797L227.989 167.77Z" fill="#33192C"/>
<path d="M228.637 170.994C229.446 171.907 230.741 172.391 232.441 172.391C232.549 172.391 232.63 172.391 232.738 172.391L232.711 171.8C231.038 171.853 229.824 171.45 229.068 170.618C228.043 169.463 228.259 167.824 228.259 167.797L227.665 167.716C227.692 167.797 227.422 169.624 228.637 170.994Z" fill="#33192C"/>
<path d="M237.917 160.463L238.214 160.436L237.917 160.463Z" fill="#33192C"/>
<path d="M237.108 163.284C236.353 164.117 235.139 164.52 233.466 164.466L233.439 165.057C233.547 165.057 233.628 165.057 233.736 165.057C235.436 165.057 236.731 164.6 237.54 163.66C238.754 162.29 238.484 160.463 238.484 160.382L237.891 160.463C237.918 160.49 238.161 162.129 237.108 163.284Z" fill="#33192C"/>
<path d="M237.972 148.24L237.675 148.294L237.972 148.24Z" fill="#33192C"/>
<path d="M233.25 152.269L233.223 152.86C233.331 152.86 233.412 152.86 233.52 152.86C235.22 152.86 236.515 152.404 237.324 151.464C238.538 150.093 238.269 148.267 238.269 148.186L237.972 148.24L237.675 148.294L237.972 148.24L237.675 148.294C237.675 148.32 237.918 149.959 236.866 151.114C236.137 151.92 234.923 152.323 233.25 152.269Z" fill="#33192C"/>
<path d="M237.917 176.098L238.214 176.044L237.917 176.098Z" fill="#33192C"/>
<path d="M237.108 178.892C236.353 179.725 235.139 180.128 233.466 180.074L233.439 180.665C233.547 180.665 233.628 180.665 233.736 180.665C235.436 180.665 236.731 180.208 237.54 179.268C238.754 177.898 238.484 176.071 238.484 175.991L238.188 176.044L237.891 176.098C237.918 176.125 238.161 177.764 237.108 178.892Z" fill="#33192C"/>
<path d="M227.584 154.069L227.881 154.123L227.584 154.069Z" fill="#33192C"/>
<path d="M228.232 157.32C229.041 158.233 230.336 158.717 232.036 158.717C232.144 158.717 232.225 158.717 232.333 158.717L232.306 158.126C230.633 158.18 229.419 157.777 228.664 156.944C227.638 155.789 227.854 154.15 227.854 154.123L227.26 154.043C227.287 154.096 227.018 155.95 228.232 157.32Z" fill="#33192C"/>
<path d="M232.631 189.611H233.332H234.007L233.683 141.067V141.04H232.981H232.307V141.067L231.956 189.611H232.631Z" fill="#33192C"/>
<path d="M237.407 137.387C234.007 136.097 232.766 139.563 232.766 139.563C230.823 136.903 229.204 139.133 229.204 139.133C226.722 138.192 226.425 141.282 226.425 141.282C225.697 141.389 225.427 141.819 225.346 142.33C225.211 143.377 225.967 144.344 227.019 144.559C232.388 145.634 237.811 144.532 239.808 144.049C240.456 143.888 240.833 143.216 240.59 142.598C240.294 141.9 239.511 142.034 239.511 142.034C239.511 142.034 240.779 138.649 237.407 137.387Z" fill="#3F9896"/>
<path d="M239.268 156.702C236.786 156.326 236.165 159.711 236.165 159.711C236.165 159.711 235.572 158.448 234.007 158.502C233.467 158.529 233.143 158.797 232.954 159.2C232.334 160.355 233.089 161.752 234.357 161.994C236.624 162.451 240.509 162.155 241.885 162.048C242.398 161.994 242.856 161.725 243.072 161.269C243.234 160.973 243.288 160.624 243.072 160.221C242.506 159.2 241.453 159.791 241.453 159.791C241.453 159.791 241.75 157.105 239.268 156.702Z" fill="#3F9896"/>
<path d="M223.725 153.344C223.563 153.666 223.59 153.962 223.725 154.177C223.914 154.526 224.291 154.768 224.669 154.795C225.775 154.902 228.878 155.117 230.659 154.768C231.684 154.553 232.251 153.452 231.765 152.538C231.603 152.243 231.333 152.001 230.929 152.001C229.688 151.974 229.229 152.968 229.229 152.968C229.229 152.968 228.743 150.255 226.774 150.577C224.777 150.873 225.02 153.022 225.02 153.022C225.02 153.022 224.157 152.538 223.725 153.344Z" fill="#3F9896"/>
<path d="M239.133 173.734C237.46 173.465 237.055 175.749 237.055 175.749C237.055 175.749 236.651 174.889 235.625 174.943C235.275 174.943 235.059 175.158 234.924 175.399C234.519 176.178 235.005 177.092 235.868 177.28C237.379 177.575 239.996 177.387 240.914 177.307C241.264 177.28 241.561 177.092 241.723 176.796C241.831 176.608 241.858 176.367 241.723 176.098C241.345 175.399 240.617 175.802 240.617 175.802C240.617 175.802 240.806 173.976 239.133 173.734Z" fill="#3F9896"/>
<path d="M237.377 145.715C235.704 145.446 235.299 147.73 235.299 147.73C235.299 147.73 234.894 146.87 233.869 146.924C233.518 146.924 233.303 147.139 233.168 147.38C232.763 148.159 233.249 149.073 234.112 149.261C235.623 149.556 238.24 149.368 239.157 149.288C239.508 149.261 239.805 149.073 239.967 148.777C240.075 148.589 240.102 148.347 239.967 148.079C239.589 147.38 238.861 147.783 238.861 147.783C238.861 147.783 239.049 145.983 237.377 145.715Z" fill="#3F9896"/>
<path d="M229.202 163.687C226.828 163.311 226.261 166.561 226.261 166.561C226.261 166.561 225.694 165.352 224.21 165.406C223.698 165.433 223.401 165.701 223.212 166.051C222.645 167.152 223.32 168.468 224.534 168.71C226.693 169.14 230.389 168.871 231.684 168.764C232.17 168.71 232.547 168.468 232.763 168.065C232.898 167.797 233.006 167.421 232.817 167.045C232.278 166.078 231.252 166.642 231.252 166.642C231.252 166.642 231.576 164.063 229.202 163.687Z" fill="#3F9896"/>
<path d="M255.862 149.502L255.376 149.422C255.349 149.556 254.918 152.565 256.914 154.795C258.263 156.299 260.341 157.078 263.147 157.078C263.309 157.078 263.471 157.078 263.632 157.078L263.605 156.111C260.88 156.192 258.884 155.547 257.67 154.177C255.997 152.296 256.348 149.637 256.375 149.583L255.862 149.502Z" fill="#33192C"/>
<path d="M255.862 149.502L256.347 149.583L255.862 149.502Z" fill="#33192C"/>
<path d="M264.845 144.13L264.818 145.097C264.98 145.097 265.142 145.097 265.304 145.097C268.11 145.097 270.188 144.345 271.537 142.813C273.533 140.584 273.102 137.575 273.075 137.44L272.13 137.575L272.616 137.494L272.13 137.575C272.13 137.602 272.508 140.288 270.835 142.169C269.567 143.539 267.57 144.21 264.845 144.13Z" fill="#33192C"/>
<path d="M272.158 117.588L271.7 117.669L272.158 117.588Z" fill="#33192C"/>
<path d="M264.442 124.196L264.415 125.163C264.577 125.163 264.739 125.163 264.901 125.163C267.707 125.163 269.784 124.411 271.133 122.88C273.13 120.65 272.698 117.641 272.671 117.507L272.186 117.588L271.7 117.668L272.186 117.588L271.7 117.668C271.7 117.695 272.078 120.381 270.405 122.262C269.164 123.632 267.167 124.277 264.442 124.196Z" fill="#33192C"/>
<path d="M272.562 163.069L272.076 163.123L272.562 163.069Z" fill="#33192C"/>
<path d="M264.845 169.651L264.818 170.618C264.98 170.618 265.142 170.618 265.304 170.618C268.11 170.618 270.188 169.866 271.537 168.334C273.533 166.105 273.102 163.096 273.075 162.961L272.589 163.042L272.103 163.123L272.589 163.042L272.103 163.123C272.103 163.149 272.481 165.836 270.808 167.716C269.567 169.086 267.57 169.731 264.845 169.651Z" fill="#33192C"/>
<path d="M255.188 127.125L255.673 127.206L255.188 127.125Z" fill="#33192C"/>
<path d="M256.24 132.417C257.589 133.921 259.666 134.7 262.472 134.7C262.634 134.7 262.796 134.7 262.958 134.7L262.931 133.733C260.206 133.814 258.209 133.169 256.995 131.799C255.322 129.918 255.673 127.259 255.7 127.205L254.756 127.071C254.675 127.178 254.243 130.187 256.24 132.417Z" fill="#33192C"/>
<path d="M263.443 185.205H264.576H265.71L265.143 105.902V105.848H264.01H262.904V105.902L262.337 185.205H263.443Z" fill="#33192C"/>
<path d="M271.214 99.8573C265.656 97.7619 263.633 103.43 263.633 103.43C260.476 99.1051 257.805 102.732 257.805 102.732C253.731 101.2 253.245 106.224 253.245 106.224C252.058 106.385 251.599 107.111 251.491 107.943C251.275 109.663 252.516 111.248 254.216 111.597C262.985 113.343 271.862 111.57 275.154 110.764C276.206 110.496 276.826 109.394 276.422 108.4C275.936 107.245 274.668 107.487 274.668 107.487C274.668 107.487 276.772 101.953 271.214 99.8573Z" fill="#3F9896"/>
<path d="M274.262 131.45C270.188 130.832 269.216 136.366 269.216 136.366C269.216 136.366 268.245 134.297 265.709 134.378C264.846 134.405 264.306 134.888 263.982 135.506C262.984 137.387 264.198 139.67 266.276 140.073C269.972 140.825 276.312 140.369 278.579 140.154C279.388 140.073 280.144 139.616 280.548 138.891C280.791 138.408 280.899 137.817 280.548 137.172C279.631 135.506 277.877 136.473 277.877 136.473C277.877 136.473 278.336 132.094 274.262 131.45Z" fill="#3F9896"/>
<path d="M248.874 125.942C248.577 126.48 248.658 126.936 248.874 127.313C249.171 127.904 249.791 128.253 250.439 128.307C252.247 128.468 257.319 128.844 260.233 128.253C261.906 127.904 262.85 126.104 262.068 124.599C261.798 124.116 261.393 123.713 260.692 123.713C258.668 123.659 257.886 125.298 257.886 125.298C257.886 125.298 257.103 120.865 253.866 121.376C250.628 121.886 251.006 125.378 251.006 125.378C251.006 125.378 249.603 124.626 248.874 125.942Z" fill="#3F9896"/>
<path d="M274.045 159.254C271.32 158.824 270.645 162.558 270.645 162.558C270.645 162.558 269.998 161.188 268.298 161.215C267.704 161.242 267.353 161.564 267.138 161.967C266.463 163.23 267.273 164.761 268.676 165.03C271.158 165.54 275.421 165.218 276.932 165.084C277.471 165.03 277.984 164.734 278.254 164.251C278.416 163.928 278.497 163.552 278.254 163.096C277.633 161.967 276.473 162.639 276.473 162.639C276.473 162.639 276.77 159.684 274.045 159.254Z" fill="#3F9896"/>
<path d="M271.212 113.477C268.487 113.048 267.812 116.782 267.812 116.782C267.812 116.782 267.165 115.412 265.465 115.439C264.871 115.465 264.52 115.788 264.305 116.191C263.63 117.453 264.44 118.985 265.843 119.253C268.325 119.764 272.588 119.441 274.099 119.307C274.638 119.253 275.151 118.958 275.421 118.474C275.583 118.152 275.664 117.776 275.421 117.319C274.8 116.191 273.64 116.862 273.64 116.862C273.64 116.862 273.937 113.907 271.212 113.477Z" fill="#3F9896"/>
<path d="M257.858 142.867C253.999 142.276 253.055 147.541 253.055 147.541C253.055 147.541 252.111 145.58 249.709 145.661C248.873 145.688 248.387 146.144 248.063 146.735C247.119 148.508 248.252 150.684 250.249 151.087C253.756 151.813 259.8 151.356 261.959 151.168C262.741 151.087 263.362 150.711 263.739 150.013C263.982 149.556 264.144 148.965 263.82 148.347C262.957 146.762 261.284 147.676 261.284 147.676C261.284 147.676 261.716 143.458 257.858 142.867Z" fill="#3F9896"/>
<path d="M12.4112 151.141L11.9256 151.061C11.8986 151.195 11.4669 154.204 13.4635 156.434C14.8126 157.938 16.8901 158.717 19.6961 158.717C19.858 158.717 20.0199 158.717 20.1818 158.717L20.1548 157.75C17.4297 157.83 15.4331 157.186 14.219 155.816C12.5462 153.935 12.8969 151.276 12.9239 151.222L12.4112 151.141Z" fill="#33192C"/>
<path d="M12.4111 151.141L12.8968 151.195L12.4111 151.141Z" fill="#33192C"/>
<path d="M21.3707 145.742L21.3438 146.709C21.5056 146.709 21.6675 146.709 21.8294 146.709C24.6354 146.709 26.713 145.957 28.062 144.425C30.0586 142.196 29.6269 139.187 29.5999 139.052L28.6556 139.187L29.1412 139.106L28.6556 139.187C28.6556 139.214 29.0333 141.9 27.3605 143.781C26.0924 145.177 24.0958 145.822 21.3707 145.742Z" fill="#33192C"/>
<path d="M28.7083 119.227L28.2227 119.308L28.7083 119.227Z" fill="#33192C"/>
<path d="M20.9645 125.835L20.9375 126.802C21.0994 126.802 21.2613 126.802 21.4232 126.802C24.2292 126.802 26.3067 126.05 27.6558 124.519C29.6524 122.289 29.2207 119.28 29.1937 119.146L28.708 119.227L28.2224 119.307L28.708 119.227L28.2224 119.307C28.2224 119.334 28.6001 122.02 26.9273 123.901C25.7131 125.244 23.6896 125.916 20.9645 125.835Z" fill="#33192C"/>
<path d="M29.0876 164.681L28.6289 164.762L29.0876 164.681Z" fill="#33192C"/>
<path d="M21.3707 171.289L21.3438 172.256C21.5056 172.256 21.6675 172.256 21.8294 172.256C24.6354 172.256 26.713 171.504 28.062 169.973C30.0586 167.743 29.6269 164.735 29.5999 164.6L29.1143 164.681L28.6286 164.761L29.1143 164.681L28.6286 164.761C28.6286 164.788 29.0063 167.475 27.3335 169.355C26.0924 170.725 24.0958 171.37 21.3707 171.289Z" fill="#33192C"/>
<path d="M11.71 128.763L12.1956 128.844L11.71 128.763Z" fill="#33192C"/>
<path d="M12.7621 134.056C14.1111 135.56 16.1887 136.339 18.9947 136.339C19.1566 136.339 19.3185 136.339 19.4803 136.339L19.4534 135.372C16.7283 135.453 14.7317 134.808 13.5176 133.438C11.8447 131.557 12.1955 128.898 12.2225 128.844L11.2781 128.71C11.2242 128.817 10.7925 131.826 12.7621 134.056Z" fill="#33192C"/>
<path d="M19.9945 186.844H21.1007H22.234L21.6673 107.514V107.487H20.5611H19.4279V107.514L18.8613 186.844H19.9945Z" fill="#33192C"/>
<path d="M27.7651 101.469C22.207 99.3741 20.1834 105.042 20.1834 105.042C17.0266 100.717 14.3555 104.344 14.3555 104.344C10.2814 102.813 9.79575 107.836 9.79575 107.836C8.60858 107.997 8.14991 108.723 8.04198 109.556C7.82614 111.275 9.06726 112.86 10.7671 113.209C19.5359 114.955 28.4126 113.182 31.7043 112.376C32.7566 112.108 33.3771 111.006 32.9724 110.012C32.4867 108.857 31.2186 109.099 31.2186 109.099C31.2186 109.099 33.2962 103.565 27.7651 101.469Z" fill="#3F9896"/>
<path d="M30.8127 133.089C26.7385 132.471 25.7672 138.005 25.7672 138.005C25.7672 138.005 24.7959 135.936 22.2597 136.017C21.3963 136.044 20.8567 136.527 20.5329 137.145C19.5346 139.026 20.7488 141.309 22.8263 141.712C26.5227 142.464 32.8632 142.007 35.1296 141.793C35.9391 141.712 36.6945 141.255 37.0992 140.53C37.3421 140.046 37.45 139.455 37.0992 138.811C36.1819 137.145 34.4281 138.112 34.4281 138.112C34.4281 138.112 34.8598 133.706 30.8127 133.089Z" fill="#3F9896"/>
<path d="M5.39557 127.581C5.09878 128.119 5.17972 128.575 5.39557 128.951C5.69236 129.542 6.31293 129.892 6.96047 129.945C8.76819 130.106 13.8406 130.483 16.7546 129.892C18.4274 129.542 19.3717 127.742 18.5893 126.238C18.3195 125.754 17.9147 125.352 17.2132 125.352C15.1897 125.298 14.4072 126.936 14.4072 126.936C14.4072 126.936 13.6248 122.504 10.3871 123.014C7.14933 123.525 7.52707 127.017 7.52707 127.017C7.52707 127.017 6.12406 126.238 5.39557 127.581Z" fill="#3F9896"/>
<path d="M30.597 160.893C27.8719 160.463 27.1974 164.197 27.1974 164.197C27.1974 164.197 26.5499 162.827 24.8501 162.854C24.2565 162.881 23.9057 163.203 23.6899 163.606C23.0154 164.869 23.8248 166.4 25.2278 166.669C27.7101 167.179 31.973 166.857 33.484 166.722C34.0236 166.669 34.5362 166.373 34.806 165.89C34.9679 165.567 35.0489 165.191 34.806 164.734C34.1855 163.606 33.0253 164.278 33.0253 164.278C33.0253 164.278 33.3221 161.296 30.597 160.893Z" fill="#3F9896"/>
<path d="M27.7367 115.116C25.0116 114.687 24.3371 118.421 24.3371 118.421C24.3371 118.421 23.6895 117.051 21.9897 117.077C21.3961 117.104 21.0454 117.427 20.8295 117.83C20.155 119.092 20.9644 120.624 22.3675 120.892C24.8497 121.403 29.1127 121.08 30.6236 120.946C31.1632 120.892 31.6759 120.597 31.9457 120.113C32.1076 119.791 32.1885 119.415 31.9457 118.958C31.3251 117.83 30.165 118.501 30.165 118.501C30.165 118.501 30.4617 115.546 27.7367 115.116Z" fill="#3F9896"/>
<path d="M14.3809 144.479C10.5227 143.888 9.57833 149.153 9.57833 149.153C9.57833 149.153 8.634 147.192 6.23269 147.273C5.39628 147.3 4.91062 147.756 4.58685 148.347C3.64252 150.12 4.77572 152.296 6.77231 152.699C10.2798 153.425 16.3236 152.968 18.4821 152.78C19.2645 152.699 19.8851 152.323 20.2628 151.625C20.5056 151.168 20.6675 150.577 20.3437 149.959C19.4804 148.374 17.8075 149.288 17.8075 149.288C17.8075 149.288 18.2662 145.097 14.3809 144.479Z" fill="#3F9896"/>
<path d="M111.058 124.357L104.421 125.271L104.529 132.228L111.193 132.148L111.058 124.357Z" fill="#FE9F73"/>
<path d="M83.4216 122.182L82.0186 129.006L88.7098 130.322L90.2478 122.693L83.4216 122.182Z" fill="#FE9F73"/>
<path d="M105.582 127.715C106.958 127.715 108.873 127.554 111.005 126.909C112.03 126.614 112.731 125.674 112.758 124.626L113.676 68.6676C113.676 68.5333 113.676 68.399 113.649 68.2647L113.595 67.996C113.352 66.4648 111.733 65.5514 110.276 66.1155L101.103 69.581C100.131 69.9571 99.4838 70.8974 99.5378 71.9182C99.7806 79.1178 100.86 107.218 103.153 125.62C103.288 126.802 104.34 127.715 105.582 127.715Z" fill="#33192C"/>
<path d="M90.5795 126.56C91.4429 126.453 92.1714 125.835 92.3602 125.002L99.5102 100.905L103.854 76.539L108.495 63.2949L89.851 68.6678C89.851 68.6678 89.7161 82.9595 87.6656 98.702C86.5324 107.433 83.2676 116.513 82.728 124.142C82.6471 125.163 83.3486 126.05 84.3469 126.265C85.8308 126.56 88.0163 126.856 90.5795 126.56Z" fill="#33192C"/>
<path d="M92.6244 124.223C92.6783 124.223 92.7053 124.196 92.7323 124.143L99.6394 100.905L102.877 82.7181C102.877 82.6643 102.85 82.6106 102.796 82.6106C102.742 82.6106 102.688 82.6375 102.661 82.6912L99.4236 100.851L92.5165 124.062C92.4895 124.116 92.5434 124.17 92.5974 124.196C92.5974 124.223 92.6244 124.223 92.6244 124.223Z" fill="black"/>
<path d="M85.4216 110.173C85.4756 110.173 85.5026 110.146 85.5296 110.093C86.312 106.735 87.4722 100.153 88.0658 96.4994C88.0658 96.4456 88.0928 96.3919 88.0928 96.365V96.2576C88.1197 96.0427 89.6846 77.372 89.6846 77.184C89.6846 77.1302 89.6577 77.0765 89.5767 77.0765C89.5228 77.0765 89.4688 77.1034 89.4688 77.184L87.8769 96.0427C87.8769 96.1501 87.8499 96.2038 87.8499 96.2576C87.8499 96.3113 87.823 96.365 87.796 96.4725C87.1754 100.099 86.0422 106.681 85.2598 110.039C85.2867 110.12 85.3407 110.173 85.4216 110.173C85.3947 110.173 85.3947 110.173 85.4216 110.173Z" fill="black"/>
<path d="M112.778 122.827C112.832 122.827 112.886 122.773 112.886 122.719L113.642 77.3454C113.642 77.2917 113.588 77.238 113.534 77.238C113.48 77.238 113.426 77.2917 113.426 77.3454L112.67 122.719C112.67 122.8 112.724 122.827 112.778 122.827Z" fill="black"/>
<path d="M117.88 134.378C118.285 134.378 118.609 134.002 118.528 133.599C118.474 133.276 118.177 133.062 117.853 133.062H116.909L112.565 130.536L110.191 133.062H104.336C104.201 133.062 104.066 133.169 104.066 133.33V134.19C104.066 134.297 104.147 134.378 104.255 134.378H117.88Z" fill="#EF3A4C"/>
<path d="M116.153 131.906L111.189 129.73C109.192 131.638 106.926 130.053 106.926 130.053C105.415 129.381 104.443 130.698 104.443 130.698V133.062H117.907C117.502 132.363 116.153 131.906 116.153 131.906Z" fill="#49263E"/>
<path d="M104.47 130.698H104.362V133.035H104.47V130.698Z" fill="black"/>
<path d="M109.221 130.617C109.221 130.617 108.034 130.778 106.928 130.026L106.874 130.106C107.683 130.644 108.493 130.724 108.925 130.724C109.113 130.724 109.221 130.697 109.221 130.697V130.617Z" fill="black"/>
<path d="M105.039 132.121L104.985 132.202L105.633 132.632L105.687 132.551L105.039 132.121Z" fill="black"/>
<path d="M105.496 132.014L105.442 132.094L106.089 132.497L106.143 132.417L105.496 132.014Z" fill="black"/>
<path d="M118.339 134.244C118.5 134.109 118.581 133.921 118.581 133.706C118.581 133.33 118.258 133.008 117.853 133.008H104.389C104.174 133.008 104.012 133.169 104.012 133.384V134.029H104.12V133.384C104.12 133.223 104.255 133.115 104.416 133.115H117.88C118.231 133.115 118.5 133.384 118.5 133.733C118.5 133.921 118.42 134.082 118.285 134.19L118.339 134.244Z" fill="black"/>
<path d="M117.852 133.089L117.932 133.035C117.932 133.008 117.636 132.471 116.637 132.041C115.639 131.611 111.241 129.704 111.187 129.677L111.133 129.757C111.187 129.784 115.585 131.692 116.583 132.122C117.582 132.551 117.852 133.089 117.852 133.089Z" fill="black"/>
<path d="M94.3526 134.351C94.7573 134.458 95.162 134.19 95.189 133.787C95.2159 133.465 95.0001 133.196 94.6763 133.088L93.7859 132.847L90.3324 129.22L87.3375 131.02L81.6985 129.435C81.5636 129.408 81.4017 129.462 81.3747 129.623L81.1319 130.456C81.1049 130.563 81.1589 130.644 81.2668 130.671L94.3526 134.351Z" fill="#EF3A4C"/>
<path d="M93.3557 131.503L89.2006 128.065C86.7454 129.354 84.9916 127.232 84.9916 127.232C83.7235 126.184 82.4284 127.178 82.4284 127.178L81.7539 129.435L94.6778 133.088C94.5429 132.309 93.3557 131.503 93.3557 131.503Z" fill="#49263E"/>
<path d="M82.3712 127.151L81.7236 129.408L81.8046 129.435L82.4791 127.178L82.3712 127.151Z" fill="black"/>
<path d="M87.0651 128.494V128.387C87.0651 128.387 85.8779 128.226 85.0145 127.205L84.9336 127.259C85.5542 127.984 86.3096 128.306 86.7413 128.414C86.9302 128.468 87.0651 128.494 87.0651 128.494Z" fill="black"/>
<path d="M82.6444 128.71L82.5635 128.763L83.0491 129.328L83.1301 129.274L82.6444 128.71Z" fill="black"/>
<path d="M83.1015 128.71L83.0205 128.763L83.5062 129.354L83.5871 129.301L83.1015 128.71Z" fill="black"/>
<path d="M94.7787 134.271L94.8327 134.351C95.0215 134.271 95.1564 134.11 95.2374 133.895C95.3453 133.519 95.1295 133.143 94.7517 133.035L81.8278 129.382C81.612 129.328 81.4231 129.435 81.3422 129.65L81.1533 130.268L81.2612 130.295L81.4501 129.677C81.5041 129.516 81.639 129.435 81.8009 129.489L94.7247 133.143C95.0485 133.223 95.2374 133.572 95.1564 133.895C95.0755 134.056 94.9406 134.19 94.7787 134.271Z" fill="black"/>
<path d="M94.6495 133.088L94.7574 133.062C94.7574 133.035 94.6495 132.444 93.7861 131.745C92.9497 131.074 89.2533 128.038 89.2263 128.011L89.1724 128.092C89.1993 128.119 92.8957 131.154 93.7321 131.826C94.5416 132.497 94.6495 133.088 94.6495 133.088Z" fill="black"/>
<path d="M116.774 31.7297C117.421 29.8492 119.202 12.4681 119.202 12.4681L113.941 12.092L111.027 25.7927L107.115 34.3356L113.212 37.9891C113.212 37.9891 116.477 32.5625 116.774 31.7297Z" fill="#FE9F73"/>
<path d="M116.744 4.81156C116.447 4.75783 116.177 4.97274 116.15 5.26825L115.88 8.06213C115.88 8.11586 115.826 8.16958 115.746 8.16958H115.611C115.557 8.16958 115.503 8.11586 115.503 8.06213L115.395 5.4563C115.395 5.18766 115.179 4.97274 114.909 4.94588C114.612 4.94588 114.369 5.18766 114.396 5.4563C114.396 5.4563 114.316 9.4322 114.262 10.0501L113.128 9.1367C112.939 8.92178 112.643 8.89492 112.427 9.08297C112.211 9.27102 112.184 9.56652 112.373 9.78144L114.154 12.4947C114.262 12.629 114.639 12.6559 114.936 12.629C117.877 13.1395 118.336 13.1932 119.145 13.2469L119.334 10.0769C119.388 9.16356 119.604 8.27704 119.982 7.44425L120.089 7.22934C120.197 6.96069 120.089 6.66519 119.793 6.55773C119.55 6.47714 119.253 6.5846 119.145 6.82637L118.471 8.35763C118.444 8.41136 118.39 8.43823 118.336 8.43823C118.255 8.43823 118.201 8.35763 118.228 8.27704L118.929 5.91299C119.01 5.64435 118.848 5.40257 118.552 5.37571C118.282 5.34884 117.985 5.53689 117.904 5.80553L117.175 8.19645C117.149 8.25018 117.095 8.27704 117.041 8.27704H116.987C116.933 8.27704 116.879 8.22331 116.879 8.14272L117.149 5.37571C117.202 5.10706 117.014 4.83842 116.744 4.81156Z" fill="#FE9F73"/>
<path d="M83.452 41.3203L88.7673 36.5653L83.3171 28.909L77.867 16.0142L72.7676 17.3574C72.7676 17.3574 77.786 34.0938 78.7843 35.8131C79.216 36.619 83.452 41.3203 83.452 41.3203Z" fill="#FE9F73"/>
<path d="M72.8218 13.2203C72.7678 13.2471 72.7139 13.2203 72.6869 13.1665L71.7156 11.7965C71.5537 11.5816 71.2569 11.501 71.041 11.6353C70.7982 11.7965 70.7173 12.1188 70.8791 12.3606L71.014 12.5487C71.5537 13.3009 71.9314 14.1337 72.1473 15.0202L72.9297 18.0827C73.7121 17.8678 74.1438 17.7335 76.9229 16.6858C77.2197 16.6589 77.5704 16.5783 77.6514 16.4171L78.8655 13.4083C79.0004 13.1665 78.9195 12.871 78.6766 12.7367C78.4338 12.6024 78.137 12.683 78.0021 12.9248L77.0848 14.0531C76.8959 13.4621 76.0865 9.56674 76.0865 9.56674C76.0325 9.27123 75.7627 9.08318 75.4659 9.16378C75.1961 9.2175 75.0342 9.48615 75.0882 9.75479L75.4929 12.3338C75.4929 12.3875 75.4659 12.4412 75.412 12.4681L75.277 12.4949C75.2231 12.5218 75.1421 12.4681 75.1152 12.4143L74.3327 9.72792C74.2518 9.45928 73.955 9.2981 73.6852 9.40555C73.4423 9.48615 73.3074 9.78165 73.3884 10.0234L74.1708 12.683C74.1978 12.7367 74.1438 12.8173 74.0899 12.8442H74.0629C74.0089 12.871 73.955 12.8442 73.928 12.7904L72.7678 10.5607C72.6329 10.3189 72.3091 10.1578 72.0393 10.2383C71.7695 10.3189 71.6616 10.5876 71.7695 10.8294L72.9027 13.0054C72.9297 13.1128 72.9027 13.1934 72.8218 13.2203Z" fill="#FE9F73"/>
<path d="M99.9911 32.4282L98.5071 28.6135L93.4077 29.2313L94.9726 33.6908L95.4583 34.8191C95.4583 34.8191 96.0518 37.2638 96.3486 37.6936C96.6454 38.1234 97.7247 38.8219 99.0198 38.3383C99.4245 38.1771 99.7482 37.9622 100.018 37.7473C100.558 37.3175 101.097 37.3175 100.774 36.7265L99.5054 34.3087C100.558 33.6908 99.9911 32.4282 99.9911 32.4282Z" fill="#FE9F73"/>
<path d="M96.1293 31.7295C96.1563 31.7295 96.1563 31.7027 96.1563 31.7027C96.1832 31.6758 96.561 30.7356 97.3434 31.0042C97.3704 31.0042 97.3974 31.0042 97.4244 30.9773C97.4244 30.9505 97.4244 30.9236 97.3974 30.8968C96.507 30.6281 96.0753 31.6489 96.0483 31.6758C96.0483 31.7027 96.0483 31.7295 96.0753 31.7564C96.1023 31.7295 96.1023 31.7295 96.1293 31.7295Z" fill="#49263E"/>
<path d="M98.2102 30.5477L98.2371 30.5208C98.2371 30.5208 98.5339 29.9567 98.8847 30.0641C98.9117 30.0641 98.9386 30.0641 98.9656 30.0373C98.9656 30.0104 98.9656 29.9835 98.9386 29.9567C98.5069 29.7955 98.1562 30.4402 98.1562 30.4671C98.1292 30.494 98.1562 30.5208 98.1832 30.5477H98.2102Z" fill="#49263E"/>
<path d="M97.2155 31.7298C97.2965 31.7029 97.3504 31.5955 97.3235 31.5149C97.2965 31.4343 97.1886 31.3806 97.1076 31.4074C97.0267 31.4343 96.9727 31.5417 96.9997 31.6223C97.0267 31.7298 97.1076 31.7835 97.2155 31.7298Z" fill="black"/>
<path d="M98.8562 30.924C98.9371 30.8971 98.9911 30.7897 98.9641 30.7091C98.9371 30.6285 98.8292 30.5748 98.7482 30.6016C98.6673 30.6285 98.6133 30.736 98.6403 30.8166C98.6673 30.8971 98.7752 30.9509 98.8562 30.924Z" fill="black"/>
<path d="M95.0565 30.3058C95.0565 30.3058 98.2133 30.3058 99.1037 28.5059C100.021 26.706 99.3465 26.2762 98.699 25.8195C98.3752 25.5777 97.161 25.336 96.1897 26.3299C95.6501 26.8672 94.8407 26.1956 94.2471 26.9209C93.6535 27.6463 93.0599 28.7208 93.2758 28.9895C93.4916 29.2581 93.6535 29.4193 93.6535 29.4193L95.0565 30.3058Z" fill="#FEC786"/>
<path d="M95.7791 34.7116L94.6728 30.5745L93.4587 29.2313V28.8283C93.4587 28.8283 92.1906 29.2581 92.2985 30.5745C92.4064 31.8908 93.1349 32.3475 93.2698 32.6968C93.4587 33.046 94.1602 35.5444 95.7791 34.7116Z" fill="#FEC786"/>
<path d="M95.3537 33.3147C95.8934 33.0998 96.1632 32.5088 95.9473 31.9715C95.7315 31.4342 95.1379 31.1656 94.5983 31.3805C94.0586 31.5954 93.7888 32.1864 94.0047 32.7237C94.2205 33.261 94.8141 33.5296 95.3537 33.3147Z" fill="#FE9F73"/>
<path d="M95.2155 32.2133L95.3234 32.267L95.2694 32.1864C95.1615 32.0252 95.0266 31.9446 94.8917 31.9178C94.6219 31.8909 94.406 32.0521 94.406 32.079C94.406 32.079 94.3791 32.1058 94.406 32.1327C94.406 32.1327 94.433 32.1596 94.46 32.1327C94.46 32.1327 94.6758 31.9715 94.8917 31.9984C94.9996 32.0252 95.1075 32.079 95.1885 32.1595C95.0536 32.1327 94.8377 32.1327 94.6758 32.3476C94.5679 32.4819 94.5679 32.6968 94.7028 32.858C94.8108 32.9923 94.9996 33.0998 95.1885 33.0192C95.2155 33.0192 95.2155 32.9923 95.2155 32.9923C95.2155 32.9655 95.1885 32.9655 95.1885 32.9655C94.9996 33.0461 94.8377 32.9386 94.7568 32.8312C94.6758 32.7237 94.6219 32.5625 94.7298 32.4013C94.8647 32.079 95.1885 32.2133 95.2155 32.2133Z" fill="#F07162"/>
<path d="M100.155 35.4903L99.5079 34.2814C99.5079 34.2814 97.8891 35.3023 96.4591 34.2008C96.4321 34.2008 97.3494 36.3231 100.155 35.4903Z" fill="#F07162"/>
<path d="M99.6405 34.9266C101.313 34.1744 99.9643 31.7297 99.9643 31.7297C99.4786 31.6223 96.6996 33.2073 96.4568 33.1804C96.2949 33.1804 95.5664 31.7029 95.2966 31.1387C95.1617 30.8969 94.9728 30.682 94.73 30.5477L94.9189 31.273L95.8632 33.6371C96.4298 34.7117 97.2122 36.028 99.6405 34.9266Z" fill="#FEC786"/>
<path d="M98.2643 32.3744H98.2913L98.8039 31.9446L98.1024 30.7089C98.1024 30.682 98.0754 30.682 98.0754 30.7089C98.0484 30.7089 98.0484 30.7357 98.0754 30.7357L98.7499 31.9446L98.2913 32.3207C98.2643 32.3476 98.2643 32.3476 98.2643 32.3744Z" fill="#F07162"/>
<path d="M98.8042 33.261C99.1819 33.0998 99.1549 32.6162 99.1549 32.6162L98.1026 33.0461C98.0757 33.0729 98.3994 33.4222 98.8042 33.261Z" fill="#FBFDFC"/>
<path d="M94.3509 72.8049C94.3778 72.8049 94.4048 72.8049 94.4048 72.778C94.4318 72.7243 94.4318 72.6706 94.4048 72.6437L92.0575 70.5214C92.0035 70.4946 91.9496 70.4946 91.9226 70.5214C91.8956 70.5752 91.8956 70.6289 91.9226 70.6558L94.2699 72.778C94.2969 72.8049 94.3239 72.8049 94.3509 72.8049Z" fill="black"/>
<path d="M94.462 73.9874C94.489 73.9874 94.516 73.9605 94.516 73.9605C94.5429 73.9068 94.5429 73.8531 94.516 73.8262L92.7352 72.2681C92.6813 72.2412 92.6273 72.2412 92.6003 72.2681C92.5733 72.3218 92.5733 72.3756 92.6003 72.4024L94.3811 73.9605C94.408 73.9874 94.435 73.9874 94.462 73.9874Z" fill="black"/>
<path d="M104.524 35.8668C103.661 36.2698 91.9241 36.9683 91.9241 36.9683L83.6139 29.1508L78.2177 16.3097C76.8147 16.3365 72.7676 18.2708 72.7676 18.2708L78.1638 35.2758C78.3796 35.9743 78.7574 36.619 79.27 37.1294C81.4824 39.4129 87.715 45.8335 88.2007 46.8543C88.8213 48.1169 89.6577 74.5782 89.6577 74.5782C109.57 74.4976 113.941 69.7157 113.941 69.7157C113.941 69.7157 111.566 43.738 111.512 42.3948C111.512 42.3948 114.723 36.6459 115.775 34.4162C115.775 34.4162 116.558 32.9118 117.043 31.5954C117.529 30.2791 119.418 12.7905 119.418 12.7905C117.772 12.1995 113.644 12.3338 113.644 12.3338C113.644 12.3338 110.676 25.9002 110.784 25.7659C110.919 25.6047 105.388 35.437 104.524 35.8668Z" fill="#FD7583"/>
<path d="M82.6172 29.7417L83.5885 29.2582L91.8717 37.0488L91.8987 37.0757L95.5951 36.8339C95.649 36.8339 95.676 36.7802 95.676 36.7533C95.676 36.6996 95.622 36.6727 95.5951 36.6727L91.9796 36.9145L83.6965 29.1239L83.6425 29.0701L82.5633 29.6074C82.5093 29.6343 82.5093 29.688 82.5363 29.7149C82.5093 29.7417 82.5633 29.7417 82.6172 29.7417Z" fill="black"/>
<path d="M83.6139 29.2314H83.6408C83.6948 29.2045 83.6948 29.1508 83.6948 29.1239L78.2986 16.2828C78.2716 16.2291 78.2177 16.2291 78.1907 16.2291C78.1367 16.2559 78.1367 16.3097 78.1367 16.3365L83.5329 29.1776C83.5329 29.2045 83.5599 29.2314 83.6139 29.2314Z" fill="black"/>
<path d="M89.3614 65.8741C89.3614 65.8741 89.3883 65.8741 89.3614 65.8741C89.4153 65.8741 89.4423 65.8204 89.4423 65.7935C89.1185 58.191 88.3091 46.9617 88.2821 46.8543C88.2821 46.8005 88.2282 46.7737 88.1742 46.7737C88.1202 46.7737 88.0933 46.8274 88.0933 46.8811C88.0933 46.9886 88.9297 58.2178 89.2534 65.8204C89.2804 65.8204 89.3344 65.8741 89.3614 65.8741Z" fill="black"/>
<path d="M113.402 63.2683C113.429 63.2683 113.429 63.2683 113.402 63.2683C113.456 63.2683 113.483 63.2146 113.483 63.1609C112.566 49.1915 111.433 41.6964 111.433 41.6158C111.433 41.562 111.379 41.5352 111.325 41.5352C111.271 41.5352 111.244 41.5889 111.244 41.6426C111.244 41.7232 112.377 49.2183 113.294 63.1877C113.321 63.2415 113.375 63.2683 113.402 63.2683Z" fill="black"/>
<path d="M111.541 42.4486C111.568 42.4486 111.595 42.4217 111.622 42.3948C111.649 42.3411 115.373 35.84 116.317 33.5565C116.452 33.2341 116.56 32.9655 116.668 32.7237C117.342 31.1387 117.639 30.4134 117.99 26.33C117.99 26.2763 117.963 26.2494 117.909 26.2226C117.855 26.2226 117.828 26.2494 117.801 26.3032C117.477 30.3597 117.18 31.0313 116.506 32.6431C116.398 32.8849 116.29 33.1804 116.155 33.4759C115.238 35.7594 111.514 42.2336 111.487 42.2874C111.46 42.3411 111.487 42.3948 111.514 42.3948C111.514 42.4486 111.514 42.4486 111.541 42.4486Z" fill="black"/>
<g opacity="0.5">
<path d="M99.1535 36.592L98.8027 36.6995C98.8567 36.8875 104.28 56.5253 105.575 72.5901L105.926 72.5632C104.631 56.4447 99.2075 36.7801 99.1535 36.592Z" fill="#F7546C"/>
</g>
<path d="M112.484 42.7978C114.21 43.8186 114.291 46.1827 115.128 47.6871C117.745 36.8876 106.143 43.6843 99.8295 37.7473C99.4518 37.3981 99.047 37.0488 98.6963 36.5921C100.801 42.8515 107.195 41.7501 111.701 42.5023C111.971 42.556 112.241 42.6635 112.484 42.7978Z" fill="#33192C"/>
<path d="M99.8042 37.7471L99.9931 36.7799L99.2376 36.2964L98.5361 36.5113L98.6171 37.5321L99.2916 37.9082L99.8042 37.7471Z" fill="#49263E"/>
<path d="M99.9916 37.425L100.72 36.3235L100.127 35.437L98.8584 36.1086L95.7287 35.8668L95.5938 36.7265L98.6156 37.7742L98.9934 36.619L99.9916 37.425Z" fill="#F7546C"/>
<path d="M103.501 73.6918C111.433 72.4023 113.97 69.7965 113.97 69.7965L113.862 68.6682C107.062 73.7993 89.6597 73.4769 89.6597 73.4769V74.5515C89.6866 74.5515 95.5685 74.9813 103.501 73.6918Z" fill="#21111D"/>
<path d="M104.364 73.7455L107.575 73.0202C107.71 72.9933 107.791 72.859 107.737 72.7247L107.359 71.4889C107.332 71.3815 107.197 71.3009 107.089 71.3277L103.932 72.0262C103.797 72.0531 103.743 72.1874 103.77 72.2949L104.094 73.5575C104.121 73.7187 104.229 73.7724 104.364 73.7455Z" fill="#FEC786"/>
<path d="M111.025 24.6642C111.079 24.6642 111.106 24.6373 111.106 24.5836L113.75 12.3873C114.263 12.3604 117.555 12.2529 119.416 12.844C119.47 12.8708 119.524 12.844 119.524 12.7902C119.551 12.7365 119.524 12.6828 119.47 12.6828C117.42 12.038 113.697 12.2261 113.67 12.2261H113.589L110.917 24.5568C110.917 24.6105 110.944 24.6642 111.025 24.6642C110.998 24.6642 111.025 24.6642 111.025 24.6642Z" fill="black"/>
<path d="M233.979 186.199C233.979 186.199 231.47 181.74 229.473 185.366C227.476 188.993 227.503 194.178 227.503 194.178L280.413 194.231C280.413 194.231 280.494 189.262 276.987 191.035C276.987 191.035 276.663 187.945 274.396 189.96C274.396 189.96 274.801 180.88 268.056 180.987C268.056 180.987 264.845 180.45 262.902 184.614C262.902 184.614 261.392 181.256 258.855 184.533C258.855 184.533 262.552 176.582 260.42 175.695C258.289 174.809 256.346 179.295 256.346 179.295C256.346 179.295 258.424 169.731 254.781 169.355C251.139 168.979 250.815 174.674 250.815 174.674C250.815 174.674 249.385 170.591 247.496 171.961C245.608 173.304 247.307 177.737 247.307 177.737C247.307 177.737 245.257 174.03 243.611 176.447C241.965 178.865 243.098 181.82 243.098 181.82C243.098 181.82 241.372 179.967 239.105 181.095C236.839 182.196 238.35 186.172 238.35 186.172C238.35 186.172 235.652 183.808 233.979 186.199Z" fill="#3F9896"/>
<path d="M220.299 176.931C208.509 175.91 208.374 189.208 208.374 189.208C208.374 189.208 203.005 184.157 199.146 190.551C199.146 190.551 192.482 186.709 189.109 193.802C189.055 193.936 189.001 194.07 189.001 194.204H234.626C234.599 193.775 234.437 193.345 234.087 192.969C233.331 192.163 232.009 191.491 229.824 191.357C229.824 191.384 230.579 177.844 220.299 176.931Z" fill="#7FC6A6"/>
<path d="M7.69041 191.061C4.18289 189.288 4.26383 194.258 4.26383 194.258L57.2005 194.205C57.2005 194.205 57.2545 189.02 55.2309 185.393C53.2343 181.766 50.7251 186.226 50.7251 186.226C49.0522 183.835 46.3272 186.145 46.3272 186.145C46.3272 186.145 47.8111 182.169 45.5717 181.068C43.3053 179.967 41.5785 181.793 41.5785 181.793C41.5785 181.793 42.7117 178.865 41.0659 176.42C39.42 174.003 37.3695 177.71 37.3695 177.71C37.3695 177.71 39.0963 173.304 37.1806 171.934C35.2919 170.591 33.862 174.674 33.862 174.674C33.862 174.674 33.5382 168.979 29.8958 169.355C26.2533 169.731 28.3309 179.295 28.3309 179.295C28.3309 179.295 26.3612 174.809 24.2567 175.695C22.1522 176.582 25.8216 184.533 25.8216 184.533C23.2854 181.256 21.7745 184.614 21.7745 184.614C19.8318 180.45 16.6211 180.987 16.6211 180.987C9.90285 180.88 10.2806 189.96 10.2806 189.96C8.01418 187.945 7.69041 191.061 7.69041 191.061Z" fill="#3F9896"/>
<path d="M50.5894 192.996C50.2387 193.372 50.0768 193.802 50.0498 194.231H95.6746C95.6746 194.097 95.6207 193.963 95.5667 193.828C92.1941 186.736 85.5298 190.578 85.5298 190.578C81.6715 184.157 76.3023 189.235 76.3023 189.235C76.3023 189.235 76.1674 175.937 64.3767 176.958C54.0969 177.844 54.8524 191.411 54.8524 191.411C52.667 191.518 51.3719 192.19 50.5894 192.996Z" fill="#7FC6A6"/>
<path d="M56.256 88.1714C56.0671 86.5327 52.7755 81.2673 50.5091 82.127C48.2427 82.9598 53.8007 121.107 53.8007 121.107C53.8007 121.107 68.6403 133.411 69.0989 133.411C69.5846 133.438 82.4006 136.608 82.6974 136.446C82.9942 136.258 88.6332 123.686 88.6332 123.686C88.6332 123.686 84.5051 112.027 82.7513 107.03C80.9976 102.06 78.4074 93.007 76.3298 94.0278C74.2523 95.0755 77.8947 120.274 77.8947 120.274L73.7127 113.907C73.7127 113.907 69.8814 100.851 69.5037 97.3859C69.1259 93.9204 66.4009 85.3776 64.1614 85.5656C61.949 85.7537 63.7028 106.359 63.7028 106.359L60.1413 102.624C60.1413 102.624 56.4449 89.8102 56.256 88.1714Z" fill="#ED7163"/>
<path d="M56.4176 88.1715C56.2557 86.9358 54.34 83.524 52.3435 82.3151C51.6419 81.8853 51.0214 81.7779 50.4548 81.9928C50.3738 82.0196 50.3199 82.1271 50.3469 82.2077C50.3738 82.2883 50.4818 82.342 50.5627 82.3151C51.0214 82.154 51.561 82.2345 52.1546 82.6106C54.0163 83.7389 55.9319 87.0701 56.0668 88.2253C56.2557 89.864 59.8172 102.168 59.9521 102.678V102.705L63.8913 106.842L63.8643 106.385C63.8643 106.332 63.4057 101.174 63.2438 96.0696C62.947 86.8821 63.7834 85.8075 64.1611 85.7806C66.1307 85.6194 68.8828 93.7056 69.3145 97.4397C69.6922 100.878 73.4965 113.854 73.5235 113.988L73.5505 114.042L78.1373 121L78.0293 120.274C78.0293 120.221 77.112 113.907 76.4644 107.541C75.3043 96.0428 76.0058 94.3772 76.3835 94.1891C76.5454 94.1085 76.7073 94.1085 76.8961 94.1891C78.4341 94.8339 80.3227 100.448 81.6988 104.532C81.9955 105.445 82.2923 106.305 82.5621 107.084C84.235 111.812 88.0932 122.746 88.417 123.686C86.2585 128.495 82.9938 135.641 82.5891 136.312C81.9146 136.285 76.8961 135.076 73.5235 134.297C70.7984 133.653 69.2605 133.303 69.0717 133.277C68.9907 133.277 68.9098 133.33 68.9098 133.438C68.9098 133.518 68.9637 133.599 69.0717 133.599C69.2335 133.599 71.2841 134.082 73.4426 134.593C80.0259 136.151 81.9955 136.581 82.5621 136.608C82.6701 136.608 82.724 136.608 82.751 136.581C83.0478 136.393 86.6363 128.468 88.7408 123.74L88.7678 123.686L88.7408 123.632C88.6868 123.525 84.5857 111.893 82.8589 106.976C82.5891 106.197 82.2923 105.338 81.9955 104.424C80.4576 99.8037 78.6769 94.5652 77.0041 93.8668C76.7343 93.7593 76.4644 93.7593 76.2216 93.8936C75.8709 94.0548 74.8186 94.5921 76.1407 107.568C76.6533 112.672 77.3548 117.749 77.5976 119.603L73.8203 113.881C73.6314 113.263 69.989 100.771 69.6113 97.4128C69.2605 94.3234 66.6973 85.5926 64.2421 85.4583C64.1881 85.4583 64.1341 85.4583 64.1072 85.4583C63.4326 85.512 62.5962 86.6671 62.893 96.0965C63.0279 100.341 63.3517 104.586 63.4596 105.983L60.1949 102.571C60.06 101.765 56.6064 89.7297 56.4176 88.1715Z" fill="#20111D"/>
<path d="M42.1987 94.5919C42.1718 94.5382 42.1448 94.5113 42.1178 94.4576C39.4737 90.2668 35.6154 85.0014 31.9999 85.8342C28.5194 86.6401 41.794 112.94 42.9003 115.116C42.9542 115.224 42.9812 115.251 42.9812 115.251C42.9812 115.251 50.7517 130.563 55.7972 134.593C60.4649 138.3 84.4509 151.813 88.1204 153.881C88.4171 154.042 88.579 154.15 88.579 154.15L89.4964 158.475L90.4677 163.096V163.123L90.5217 163.418L91.0343 165.836L91.0883 166.158L92.5183 172.821L92.6262 173.304L92.7881 174.11L92.869 174.432L93.4356 177.065L93.5165 177.387L97.105 194.258H131.209L131.803 183.432L131.857 182.384L131.883 181.766C131.83 181.551 131.776 181.336 131.749 181.148C131.695 180.934 131.641 180.719 131.614 180.504C131.425 179.671 131.236 178.838 131.047 178.005C131.02 177.898 130.993 177.764 130.966 177.656C130.777 176.796 130.561 175.937 130.373 175.077C130.076 173.788 129.779 172.471 129.482 171.209C129.455 171.128 129.455 171.074 129.428 170.994C129.428 170.94 129.401 170.913 129.401 170.859C129.374 170.779 129.374 170.725 129.347 170.645C128.97 169.06 128.619 167.501 128.241 165.97C128.214 165.89 128.214 165.836 128.187 165.755C128.187 165.728 128.16 165.675 128.16 165.648C128.025 165.057 127.89 164.466 127.728 163.875C127 160.785 126.244 157.777 125.543 154.929C122.899 144.371 120.498 135.855 118.879 132.309C118.852 132.256 118.825 132.202 118.798 132.175C112.754 119.2 92.6262 119.334 75.4393 109.878C68.2354 105.902 63.3788 99.1051 60.5728 101.415C60.5188 101.442 60.4918 101.496 60.4379 101.523C57.6588 104.129 73.9014 123.149 73.9014 123.149C73.9014 123.149 60.8156 119.979 55.3655 115.707C55.4194 115.627 44.8429 98.8096 42.1987 94.5919Z" fill="#FE9F73"/>
<path d="M114.534 132.471C114.561 132.524 114.615 132.551 114.696 132.551C114.723 132.551 114.75 132.551 114.75 132.524C114.831 132.471 114.858 132.39 114.831 132.309C114.804 132.256 112.214 127.339 107.627 125.916C107.546 125.889 107.438 125.943 107.411 126.023C107.384 126.104 107.438 126.211 107.519 126.238C111.998 127.608 114.507 132.417 114.534 132.471Z" fill="#20111D"/>
<path d="M111.54 132.014C111.567 132.068 111.621 132.094 111.702 132.094C111.729 132.094 111.756 132.094 111.783 132.068C111.864 132.014 111.891 131.906 111.837 131.853C111.81 131.799 108.734 127.151 104.012 126.211C103.931 126.184 103.85 126.238 103.823 126.345C103.796 126.426 103.85 126.507 103.958 126.534C108.518 127.447 111.513 131.96 111.54 132.014Z" fill="#20111D"/>
<path d="M55.689 134.727C60.3027 138.408 84.1809 151.866 87.9852 153.989C88.2011 154.096 88.336 154.204 88.4169 154.231L89.3073 158.394L90.3056 163.069V163.096L90.3595 163.391L90.8722 165.809V165.836L90.9261 166.158L92.3561 172.821L92.4371 173.25L92.6259 174.083L92.7069 174.406L93.2735 177.011L93.3544 177.334L96.9429 194.231H97.2667L93.6782 177.361L93.5973 177.038L93.0307 174.406L92.9497 174.083L92.7878 173.331L92.6799 172.821L91.2769 166.185L91.196 165.863L90.6833 163.418L90.6294 163.123V163.096L89.658 158.529L88.7137 154.042L88.6597 154.016C88.6597 154.016 88.5788 153.962 88.4439 153.881C85.8267 152.404 60.6265 138.246 55.9048 134.485C50.9403 130.536 43.1968 115.358 43.1428 115.197C43.1159 115.116 43.0079 115.089 42.927 115.116C42.8461 115.143 42.8191 115.251 42.8461 115.331C42.9 115.492 50.6705 130.724 55.689 134.727Z" fill="#20111D"/>
<path d="M42.333 94.5114C42.2791 94.4308 42.1981 94.4039 42.1172 94.4576C42.0362 94.5114 42.0093 94.592 42.0632 94.6726C44.6804 98.8365 55.203 115.546 55.2839 115.707L55.3109 115.734L55.3379 115.761C60.761 120.006 73.8198 123.202 73.9278 123.229L74.4134 123.337L74.0896 122.961C69.6108 117.695 58.4407 103.618 60.6261 101.577C60.6801 101.523 60.7071 101.415 60.6261 101.362C60.5722 101.308 60.4643 101.281 60.4103 101.362C59.1692 102.517 61.0309 106.439 66.0763 113.343C69.1521 117.534 72.4978 121.564 73.523 122.799C71.0948 122.182 60.3293 119.253 55.5537 115.519C55.095 114.794 44.8962 98.5947 42.333 94.5114Z" fill="#20111D"/>
<path d="M132.53 170.107C132.53 170.107 132.827 162.773 129.266 155.198C129.266 155.198 116.639 153.801 88.0117 153.881C88.0117 153.881 85.7993 166.373 87.4991 172.821C87.4991 172.821 115.505 173.116 132.53 170.107Z" fill="white"/>
<path d="M133.125 178.408V178.086L133.071 166.373C133.071 166.373 132.801 166.346 132.315 166.266C131.506 166.158 130.076 165.97 128.187 165.729C124.761 165.299 119.796 164.708 114.373 164.197C114.346 164.197 114.346 164.197 114.319 164.197C107.115 163.526 99.0478 162.988 92.5184 163.069C91.8709 163.069 91.2233 163.096 90.6297 163.123C90.5758 163.123 90.5218 163.123 90.4678 163.123C90.4139 163.123 90.3599 163.123 90.306 163.123C89.0918 163.176 87.9586 163.257 86.9333 163.364C86.6635 163.391 86.3937 163.418 86.1239 163.445V163.606L85.0986 194.231H133.179L133.125 178.408Z" fill="#49263E"/>
<path d="M133.286 177.173V176.555V175.991L133.259 166.212L133.097 166.185C133.07 166.185 132.8 166.158 132.287 166.078C132.125 166.051 131.937 166.024 131.748 165.997C131.343 165.943 130.884 165.89 130.318 165.836C130.264 165.836 130.21 165.836 130.156 165.809C130.102 165.809 130.048 165.782 129.967 165.782C129.427 165.728 128.807 165.648 128.159 165.567C124.733 165.164 119.822 164.654 114.399 164.17H114.372C114.345 164.17 114.345 164.17 114.318 164.17C107.222 163.552 99.2356 163.042 92.5173 163.042H92.4364C92.1935 163.042 91.9777 163.042 91.7349 163.042C91.6809 163.042 91.6269 163.042 91.573 163.042C91.519 163.042 91.4651 163.042 91.4111 163.042C91.1413 163.042 90.8985 163.042 90.6287 163.042C90.5747 163.042 90.5207 163.042 90.4668 163.042C90.4128 163.042 90.3588 163.042 90.3049 163.042C89.3066 163.069 88.3622 163.096 87.4719 163.15C87.283 163.15 87.1211 163.176 86.9592 163.176C86.6894 163.203 86.4196 163.203 86.1228 163.23C86.0149 163.23 85.9609 163.311 85.9609 163.418C85.9609 163.499 86.0419 163.553 86.1228 163.579H86.1498C86.3926 163.553 86.6624 163.553 86.9053 163.526C87.0672 163.526 87.256 163.499 87.4449 163.499C88.3622 163.445 89.3605 163.418 90.3588 163.391C90.4128 163.391 90.4668 163.391 90.5207 163.391C90.5747 163.391 90.6286 163.391 90.6826 163.391C90.9524 163.391 91.2222 163.391 91.492 163.391C91.546 163.391 91.6 163.391 91.6539 163.391C91.7079 163.391 91.7618 163.391 91.8158 163.391C103.795 163.311 120.2 165.003 128.213 165.943C128.888 166.024 129.508 166.105 130.048 166.158C130.102 166.158 130.183 166.185 130.237 166.185C130.291 166.185 130.345 166.212 130.399 166.212C130.911 166.266 131.343 166.32 131.721 166.373C131.937 166.4 132.152 166.427 132.314 166.454C132.557 166.481 132.746 166.508 132.881 166.534L132.908 174.809V175.373V175.991V178.086V178.408L132.962 194.285H133.313L133.259 178.301L133.286 177.173Z" fill="#20111D"/>
<path d="M89.4965 174.406C114.697 174.244 132.909 178.355 133.071 178.408C133.179 178.435 133.26 178.381 133.287 178.301C133.314 178.22 133.26 178.113 133.152 178.113C132.963 178.059 114.724 173.949 89.4695 174.11C89.3616 174.11 89.3076 174.191 89.3076 174.271C89.3076 174.352 89.3886 174.406 89.4695 174.432L89.4965 174.406Z" fill="#20111D"/>
<path d="M120.146 175.937V175.588C120.146 175.534 120.119 175.507 120.065 175.507C120.011 175.507 119.984 175.534 119.984 175.588V175.91V176.232V177.522C119.984 177.549 120.011 177.602 120.065 177.602H120.092C120.146 177.602 120.173 177.576 120.173 177.522V176.259L120.146 175.937Z" fill="#20111D"/>
<path d="M120.065 191.088V193.023C120.065 193.049 120.092 193.103 120.146 193.103H120.173C120.227 193.103 120.254 193.076 120.254 193.023V191.088C120.254 191.035 120.227 191.008 120.173 191.008C120.119 191.008 120.065 191.035 120.065 191.088Z" fill="#20111D"/>
<path d="M120.12 187.139C120.066 187.139 120.039 187.166 120.039 187.22V189.154C120.039 189.181 120.066 189.235 120.12 189.235H120.146C120.2 189.235 120.227 189.208 120.227 189.154V187.22C120.2 187.166 120.173 187.139 120.12 187.139Z" fill="#20111D"/>
<path d="M120.12 183.244C120.066 183.244 120.039 183.271 120.039 183.325V185.259C120.039 185.286 120.066 185.339 120.12 185.339H120.146C120.2 185.339 120.227 185.313 120.227 185.259V183.325C120.2 183.298 120.146 183.244 120.12 183.244Z" fill="#20111D"/>
<path d="M120.092 179.376C120.038 179.376 120.011 179.402 120.011 179.456V181.39C120.011 181.417 120.038 181.471 120.092 181.471H120.119C120.173 181.471 120.2 181.444 120.2 181.39V179.456C120.173 179.429 120.119 179.376 120.092 179.376Z" fill="#20111D"/>
<path d="M221.19 87.0163C219.059 86.3985 214.715 94.2428 213.636 97.5471C212.583 100.878 206.27 112.913 206.27 112.913L200.928 118.34L195.774 114.901C193.076 119.441 189.73 119.576 189.73 119.576C189.73 119.576 192.779 133.008 193.049 133.25C193.319 133.491 206.513 132.847 206.971 132.927C207.43 133.008 224.401 123.82 224.401 123.82C224.401 123.82 237.325 87.4999 235.274 86.2373C233.224 84.9747 228.988 89.4879 228.448 91.0728C227.936 92.631 221.811 104.478 221.811 104.478L217.548 107.487C217.575 107.514 223.349 87.6342 221.19 87.0163Z" fill="#ED7163"/>
<path d="M204.812 106.144C202.924 112.242 200.819 118.259 200.792 118.313L200.549 119.012L206.404 113.075L206.431 113.048C206.485 112.94 212.745 100.959 213.797 97.6546C214.957 94.0548 219.247 86.6671 221.136 87.2044C221.487 87.3119 222.107 88.5208 220.003 97.4934C218.842 102.463 217.385 107.433 217.385 107.487L217.251 107.944L221.945 104.639L221.972 104.612C222.215 104.129 228.097 92.7385 228.61 91.1803C228.987 90.0789 231.496 87.1776 233.547 86.4254C234.222 86.1836 234.761 86.1836 235.166 86.4522C235.247 86.506 235.355 86.4791 235.382 86.3985C235.436 86.3179 235.409 86.2105 235.328 86.1836C234.815 85.8881 234.195 85.8612 233.412 86.1299C231.227 86.9358 228.663 89.8909 228.259 91.0997C227.773 92.6041 222.026 103.726 221.648 104.451L217.79 107.165C218.168 105.848 219.328 101.711 220.299 97.6009C222.431 88.4402 221.837 87.1238 221.19 86.9358C221.136 86.9089 221.109 86.9089 221.055 86.9089C218.627 86.5597 214.418 94.619 213.446 97.6009C212.421 100.825 206.404 112.349 206.107 112.94L201.278 117.83C201.898 116.083 203.517 111.221 205.028 106.332L204.812 106.144Z" fill="#20111D"/>
<path d="M220.569 101.335H218.815L221.405 126.695H222.107L220.569 101.335Z" fill="#4C222E"/>
<path d="M197.501 101.335L195.937 126.695H196.665L199.255 101.335H197.501Z" fill="#4C222E"/>
<path d="M211.826 65.9013L203.758 101.684L221.242 99.8308L227.097 65.9013H211.826Z" fill="#EF3A4C"/>
<path d="M219.841 102.732C220.704 102.732 221.486 102.221 221.864 101.496C222.026 101.308 222.134 101.093 222.188 100.825L228.205 67.5935C228.34 66.8413 227.881 66.0891 227.152 65.9279C226.37 65.7399 225.615 66.2772 225.48 67.0562L220.164 96.392C219.976 97.3591 219.166 98.0575 218.195 98.0575C212.205 98.0575 192.077 97.5471 192.077 97.5471C190.809 97.5471 189.865 99.1053 189.865 100.395C189.865 101.684 190.89 102.732 192.158 102.732H219.841Z" fill="#D61632"/>
<path d="M220.245 96.392L225.56 67.0562C225.614 66.707 225.83 66.4115 226.127 66.1966C226.424 66.0085 226.774 65.9279 227.125 66.0085C227.179 66.0354 227.233 65.9817 227.26 65.9279C227.26 65.8742 227.233 65.7936 227.179 65.7936C226.774 65.713 226.37 65.7936 226.019 66.0085C225.668 66.2503 225.452 66.5995 225.371 67.0025L220.056 96.3382C219.894 97.2516 219.112 97.9232 218.194 97.9232C218.14 97.9232 218.086 97.9769 218.086 98.0307C218.086 98.0844 218.14 98.1381 218.194 98.1381C219.193 98.165 220.083 97.4128 220.245 96.392Z" fill="#21111D"/>
<path d="M208.212 102.866L219.085 102.839C221.999 103.108 222.35 100.556 222.377 100.422L223.024 96.8486C223.024 96.7949 222.997 96.7143 222.943 96.7143C222.889 96.7143 222.835 96.7412 222.808 96.7949L222.161 100.368C222.161 100.475 221.891 102.839 219.112 102.598L208.239 102.624C208.185 102.624 208.131 102.678 208.131 102.732C208.104 102.813 208.158 102.866 208.212 102.866Z" fill="#21111D"/>
<path d="M221.215 66.0097H226.558C226.612 66.0097 226.665 65.9557 226.665 65.9018C226.665 65.8478 226.612 65.7939 226.558 65.7939H221.215C221.161 65.7939 221.107 65.8478 221.107 65.9018C221.107 65.9557 221.161 66.0097 221.215 66.0097Z" fill="#21111D"/>
<path d="M187.84 84.0882L188.812 84.7329C188.812 84.7329 199.118 84.2762 199.091 84.4911C199.091 84.5717 198.795 85.5657 198.336 86.9089C204.703 87.3388 213.607 87.285 215.253 84.6792C216.602 82.5301 215.28 79.4675 214.794 77.587L213.041 78.3392L211.098 79.2526C211.098 79.2526 208.076 79.763 208.049 79.763L208.292 80.2197C204.542 80.6764 192.751 81.16 190.808 81.3749C189.675 81.5092 188.542 82.9599 187.84 84.0882Z" fill="#FE9F73"/>
<path d="M210.611 97.6007C212.121 97.5469 213.471 97.6544 214.28 97.4664C217.572 96.741 218.381 86.5326 214.658 80.2733C210.934 74.0139 197.875 93.2218 197.875 93.2218L199.171 97.6275C199.144 97.6544 205.889 97.7619 210.611 97.6007Z" fill="#258D8C"/>
<path d="M194.883 116.46L187.085 115.492L186.95 123.632L194.775 123.74L194.883 116.46Z" fill="#FE9F73"/>
<path d="M184.035 96.3648L188.999 95.8006L200.358 82.2073L191.886 83.9804C191.886 83.9804 175.32 85.0281 174.861 86.9354C174.402 88.8428 173.134 117.614 174.16 126.238C174.16 126.238 180.149 122.772 183.144 122.047L184.035 96.3648Z" fill="#18726F"/>
<path d="M196.342 97.5741L199.256 97.6815L206.325 85.2971L199.85 83.6853C199.85 83.6853 187.088 87.2851 186.602 89.1656C186.116 91.0729 184.551 110.227 185.577 118.851C185.577 118.851 192.565 118.152 195.56 117.427L196.342 97.5741Z" fill="#258D8C"/>
<path d="M189.894 117.722V117.964C190.487 117.99 191 117.99 191.485 117.99C194.48 117.99 195.533 117.534 195.587 117.534L195.64 117.507L196.423 97.5199L195.182 98.111L195.29 98.3259L196.18 97.896L195.425 117.346C195.101 117.453 193.563 117.883 189.894 117.722Z" fill="#21111D"/>
<path d="M194.477 100.019C194.477 100.153 194.37 112.43 194.073 113.612L194.289 113.666C194.612 112.43 194.693 100.502 194.693 99.9918L194.477 100.019Z" fill="#21111D"/>
<path d="M186.033 96.0159C186.006 96.0159 183.901 96.0965 182.363 96.58L182.444 96.7949C183.955 96.3114 186.033 96.2308 186.06 96.2308L186.033 96.0159Z" fill="#21111D"/>
<path d="M182.23 114.123C182.554 112.269 182.257 99.7771 182.23 99.2398H181.987C181.987 99.3741 182.311 112.269 181.987 114.096L182.23 114.123Z" fill="#21111D"/>
<path d="M214.633 97.2516C202.815 98.1382 194.91 97.2516 194.829 97.2516L194.802 97.4666C194.856 97.4666 198.39 97.8695 204.218 97.8695C207.159 97.8695 210.694 97.7621 214.66 97.4666L214.633 97.2516Z" fill="#21111D"/>
<path d="M200.174 77.265C199.958 77.265 190.784 81.1872 190.784 81.1872L192.646 84.7064L197.799 83.5781L200.174 77.265Z" fill="#FEC786"/>
<path d="M211.532 81.0259L214.392 80.3812C214.392 80.3812 214.392 80.3812 214.419 80.3812C214.473 80.3543 214.5 80.3006 214.473 80.2468C214.473 80.1931 214.392 80.1662 214.338 80.1662L211.478 80.811C211.424 80.811 211.397 80.8916 211.397 80.9453C211.397 81.0259 211.478 81.0528 211.532 81.0259Z" fill="#21111D"/>
<path d="M188.92 85.1628L189.891 85.8075C189.891 85.8075 200.198 85.3508 200.171 85.5657C200.171 85.6463 199.874 86.6403 199.416 87.9835C205.783 88.4133 214.687 88.3596 216.333 85.7538C217.682 83.6046 216.36 80.5421 215.874 78.6616L214.12 79.4138L212.178 80.3272C212.178 80.3272 209.156 80.8376 209.129 80.8376L209.371 81.2943C205.621 81.751 193.83 82.2345 191.888 82.4495C190.755 82.5838 189.648 84.0345 188.92 85.1628Z" fill="#F9B59D"/>
<path d="M201.464 67.0833L198.308 80.8647L194.8 81.0527C193.667 83.2019 194.503 88.9777 194.503 88.9777L211.501 90.885C211.501 90.885 215.171 91.476 218.274 87.527C220.324 84.8943 221.026 76.835 221.026 70.9518C221.026 70.9518 220.675 62.0866 217.221 61.603C215.009 61.3075 209.154 61.0926 209.154 61.0926C209.154 61.0926 208.372 61.3075 208.614 61.1732C202.193 62.3015 201.464 67.0833 201.464 67.0833Z" fill="#FEC786"/>
<path d="M185.815 72.268H169.626L175.292 86.5866H191.454L185.815 72.268Z" fill="#49263E"/>
<path d="M191.455 86.5866L185.816 72.268H184.979L190.619 86.5866H191.455Z" fill="#3A1F33"/>
<path d="M179.852 80.4077C180.284 80.2734 180.446 79.6018 180.23 78.957C180.014 78.3123 179.474 77.8825 179.043 78.0168C178.611 78.1511 178.449 78.8227 178.665 79.4674C178.881 80.1391 179.42 80.5689 179.852 80.4077Z" fill="#E2F2F1"/>
<path d="M197.39 85.9955C197.39 85.6731 197.12 85.4044 196.797 85.4044H190.753V86.5596H196.797C197.12 86.5865 197.39 86.3178 197.39 85.9955Z" fill="#3A1F33"/>
<path d="M195.287 85.8075H191.456V85.9964H195.287V85.8075Z" fill="#49263E"/>
<path d="M211.53 81.0794C211.557 81.0794 211.584 81.0525 211.584 80.9988C211.611 80.9182 213.391 73.3962 214.147 68.6681C214.147 68.6144 214.12 68.5607 214.066 68.5338C214.012 68.5338 213.958 68.5607 213.931 68.6144C213.176 73.3425 211.395 80.8645 211.395 80.9451C211.368 80.9988 211.422 81.0525 211.476 81.0794C211.476 81.1062 211.503 81.1062 211.53 81.0794Z" fill="#21111D"/>
<path d="M200.522 80.9719C200.549 80.9719 200.576 80.9451 200.576 80.8913C200.603 80.8107 203.247 72.4828 203.786 69.5815C203.786 69.5278 203.759 69.474 203.705 69.4472C203.651 69.4472 203.597 69.474 203.57 69.5278C203.031 72.4022 200.387 80.7301 200.36 80.8107C200.333 80.8645 200.387 80.9182 200.441 80.9451C200.495 80.9719 200.522 80.9719 200.522 80.9719Z" fill="#21111D"/>
<path d="M211.233 65.122C214.848 64.7459 215.523 62.0326 215.523 62.0058C215.523 61.952 215.496 61.9252 215.442 61.8983C215.388 61.8983 215.361 61.9252 215.334 61.9789C215.334 62.0058 214.632 64.6922 210.936 64.9608C210.882 64.9608 210.855 65.0146 210.855 65.0683C210.855 65.122 210.909 65.1489 210.963 65.1489C211.071 65.1489 211.152 65.122 211.233 65.122Z" fill="#21111D"/>
<path d="M201.574 67.0831C201.574 67.0831 201.763 65.8205 202.815 64.4773C203.786 63.2415 205.675 61.6566 209.263 61.173C209.317 61.173 209.371 61.1193 209.344 61.0655C209.344 61.0118 209.29 60.9581 209.236 60.9849C205.567 61.4685 203.624 63.1072 202.626 64.3698C201.574 65.7399 201.358 66.9757 201.358 67.0563L198.93 77.6676V77.7213L199.658 78.9571C199.685 79.0108 199.739 79.0108 199.793 79.0108C199.793 79.0108 199.793 79.0108 199.82 79.0108C199.874 78.984 199.901 78.9034 199.847 78.8765L199.173 77.7213L201.574 67.0831Z" fill="#21111D"/>
<path d="M195.987 79.0109L199.09 77.7751C199.144 77.7483 199.171 77.6946 199.144 77.6408C199.117 77.5871 199.063 77.5602 199.009 77.5871L195.906 78.8228C195.852 78.8497 195.825 78.9034 195.852 78.9572C195.852 79.0109 195.933 79.0378 195.987 79.0109Z" fill="#21111D"/>
<path d="M197.392 82.8256L194.802 81.0525C194.802 81.0525 193.669 83.6852 194.505 88.9775L198.606 86.7746L197.392 82.8256Z" fill="#FEC786"/>
<path d="M215.202 81.1869C215.229 81.1869 215.229 81.1869 215.256 81.1869C215.283 81.16 215.337 81.1332 215.337 81.0794C215.337 81.0257 215.283 80.972 215.229 80.972C215.067 80.972 199.742 80.5153 194.831 80.9182H194.777L194.75 80.972C194.723 81.0526 193.995 82.7181 194.184 86.2105C194.184 86.2642 194.238 86.3179 194.291 86.3179C194.345 86.3179 194.399 86.2642 194.399 86.2105C194.238 83.148 194.804 81.4555 194.912 81.1332C199.85 80.7302 215.04 81.1869 215.202 81.1869Z" fill="#21111D"/>
<path d="M213.691 52.066L208.295 53.06L208.187 57.7075C208.187 57.7075 208.079 59.2119 209.401 59.4268L209.105 61.4148C208.997 62.167 209.428 62.8654 210.13 63.1072C210.481 63.2147 210.885 63.3221 211.371 63.3221C212.882 63.349 213.718 62.2476 213.853 61.7103C213.988 61.1461 213.691 58.4597 213.691 58.4597L213.772 57.1434L213.691 52.066Z" fill="#FE9F73"/>
<path d="M209.374 59.4273L209.158 60.9049C212.315 60.7437 212.45 58.2453 212.45 58.2453C211.398 59.884 209.374 59.4273 209.374 59.4273Z" fill="#F07162"/>
<path d="M210.316 55.2898C211.017 54.7525 211.773 55.5315 211.8 55.5853C211.8 55.5853 211.827 55.6121 211.854 55.6121C211.881 55.6121 211.881 55.6121 211.908 55.5853C211.935 55.5584 211.935 55.5315 211.908 55.5047C211.908 55.5047 211.071 54.5913 210.262 55.2092C210.235 55.236 210.235 55.2629 210.262 55.2898C210.262 55.3166 210.289 55.3166 210.316 55.2898Z" fill="#49263E"/>
<path d="M212.852 52.8183C212.582 53.2481 212.42 55.5047 212.42 55.5047L212.663 55.2629L214.012 55.0211C214.012 54.9943 213.122 52.3616 212.852 52.8183Z" fill="#E23E3D"/>
<path d="M208.397 54.9136C208.694 54.6718 209.233 55.1285 209.233 55.1553C209.233 55.1553 209.26 55.1822 209.287 55.1822C209.314 55.1822 209.314 55.1822 209.341 55.1553C209.368 55.1285 209.368 55.1016 209.341 55.0747C209.314 55.0479 208.721 54.5375 208.343 54.833C208.316 54.8598 208.316 54.8867 208.343 54.9136C208.343 54.9404 208.37 54.9404 208.397 54.9136Z" fill="#49263E"/>
<path d="M210.959 55.8268C210.959 55.7194 210.878 55.6388 210.77 55.6388C210.662 55.6388 210.582 55.7194 210.582 55.8268C210.582 55.9343 210.662 56.0149 210.77 56.0149C210.851 56.0149 210.932 55.9343 210.959 55.8268Z" fill="black"/>
<path d="M208.967 55.5853C208.967 55.4778 208.886 55.3972 208.778 55.3972C208.67 55.3972 208.589 55.4778 208.589 55.5853C208.589 55.6927 208.67 55.7733 208.778 55.7733C208.886 55.7733 208.967 55.6927 208.967 55.5853Z" fill="black"/>
<path d="M214.393 55.8544C214.42 55.2365 213.907 54.7261 213.287 54.6993C212.666 54.6724 212.153 55.1828 212.127 55.8007C212.1 56.4186 212.612 56.929 213.233 56.9558C213.853 56.9558 214.366 56.4723 214.393 55.8544Z" fill="#FE9F73"/>
<path d="M213.365 55.3435C213.581 55.2361 213.851 55.3167 213.878 55.3167C213.905 55.3167 213.905 55.3166 213.905 55.2898C213.905 55.2629 213.905 55.2629 213.878 55.2629C213.878 55.2629 213.581 55.1555 213.338 55.2898C213.203 55.3704 213.095 55.5047 213.041 55.6927L213.014 55.8002L213.095 55.7196C213.095 55.7196 213.392 55.451 213.689 55.6659C213.851 55.7733 213.878 55.9883 213.824 56.1226C213.77 56.2569 213.662 56.4181 213.446 56.4181C213.419 56.4181 213.419 56.4181 213.419 56.445C213.419 56.4718 213.419 56.4718 213.446 56.4718C213.689 56.4718 213.851 56.3106 213.905 56.1226C213.958 55.9077 213.905 55.7196 213.743 55.6122C213.5 55.451 213.257 55.5316 213.149 55.6122C213.176 55.4778 213.257 55.3972 213.365 55.3435Z" fill="#F07162"/>
<path d="M209.482 55.2901C209.455 55.2901 209.455 55.2901 209.455 55.317L209.212 56.8214L209.887 57.0632C209.887 57.0632 209.914 57.0632 209.914 57.0363C209.914 57.0094 209.914 57.0094 209.887 57.0094L209.266 56.7945L209.509 55.3438C209.509 55.2901 209.509 55.2901 209.482 55.2901Z" fill="#F07162"/>
<path d="M210.343 57.6807C210.316 57.6807 209.102 57.627 209.102 57.627C209.102 57.627 209.236 58.1374 209.695 58.1643C210.154 58.1643 210.343 57.6807 210.343 57.6807Z" fill="#FBFDFC"/>
<path d="M206.919 51.7708C206.541 53.1409 209.833 53.7856 211.857 53.1946C211.857 53.1946 213.152 53.5976 214.015 54.9945C214.015 54.9945 214.447 52.8185 213.799 51.9857C213.152 51.1529 209.347 49.6217 208.862 50.0247C208.376 50.4276 208.835 50.938 208.835 50.938C208.835 50.938 207.297 50.4008 206.919 51.7708Z" fill="#E23E3D"/>
<path d="M213.745 90.7773C213.961 90.7236 214.203 90.643 214.446 90.5624C215.58 90.1326 217.009 89.2729 218.359 87.5805C220.382 85.0015 221.111 77.1303 221.138 71.1933C221.138 71.1396 221.084 71.0859 221.03 71.0859C220.976 71.0859 220.922 71.1396 220.922 71.1933C220.895 77.1034 220.166 84.9209 218.197 87.4462C216.605 89.461 214.878 90.2669 213.718 90.5624C212.45 90.9117 211.532 90.7505 211.532 90.7505C211.478 90.7505 211.424 90.7773 211.397 90.8311C211.397 90.8848 211.424 90.9385 211.478 90.9654C211.532 90.9922 212.45 91.1266 213.745 90.7773Z" fill="#21111D"/>
<path d="M182.739 122.396H182.631V125.109H182.739V122.396Z" fill="black"/>
<path d="M181.949 124.053L181.211 124.549L181.271 124.638L182.009 124.142L181.949 124.053Z" fill="black"/>
<path d="M181.417 123.943L180.679 124.439L180.74 124.528L181.478 124.032L181.417 123.943Z" fill="black"/>
<path d="M194.995 122.397C194.995 122.397 193.835 120.866 192.108 121.645C192.108 121.645 189.464 123.499 187.144 121.242L181.37 123.794C181.37 123.794 179.238 124.493 179.238 125.594H195.022V122.397H194.995Z" fill="#7FC6A6"/>
<path d="M195.044 122.397H194.937V125.11H195.044V122.397Z" fill="black"/>
<path d="M192.075 121.59C190.78 122.477 189.404 122.289 189.404 122.289L189.377 122.396C189.377 122.396 189.512 122.423 189.728 122.423C190.24 122.423 191.212 122.316 192.129 121.698L192.075 121.59Z" fill="black"/>
<path d="M194.258 124.061L193.52 124.556L193.58 124.646L194.318 124.15L194.258 124.061Z" fill="black"/>
<path d="M193.738 123.934L193 124.43L193.06 124.519L193.799 124.023L193.738 123.934Z" fill="black"/>
<path d="M195.152 126.722C195.26 126.722 195.368 126.614 195.368 126.507V125.379C195.368 125.271 195.26 125.164 195.152 125.164H179.045C178.748 125.164 178.532 125.405 178.532 125.674V126.184C178.532 126.48 178.775 126.695 179.045 126.695H195.152V126.722Z" fill="#49263E"/>
<path d="M180.826 124.089C181.986 123.606 187.112 121.322 187.166 121.322L187.112 121.215C187.058 121.241 181.932 123.498 180.772 123.982C179.585 124.492 179.261 125.137 179.261 125.164L179.369 125.217C179.369 125.19 179.665 124.573 180.826 124.089Z" fill="black"/>
<path d="M195.422 126.346V125.567C195.422 125.325 195.233 125.11 194.964 125.11H179.288C178.829 125.11 178.451 125.486 178.451 125.943C178.451 126.184 178.559 126.426 178.748 126.587L178.829 126.507C178.667 126.373 178.586 126.184 178.586 125.97C178.586 125.567 178.91 125.244 179.315 125.244H194.991C195.179 125.244 195.314 125.379 195.314 125.567V126.346H195.422Z" fill="black"/>
<path d="M220.299 101.442C220.272 101.415 220.218 101.362 220.164 101.335C217.358 99.0513 212.501 105.848 205.297 109.797C188.137 119.253 168.01 119.092 161.939 132.094C161.912 132.148 161.885 132.202 161.858 132.229C160.239 135.775 157.838 144.291 155.194 154.848C154.465 157.696 153.737 160.705 153.008 163.794C152.873 164.385 152.738 164.976 152.576 165.567C152.576 165.594 152.549 165.648 152.549 165.675C152.522 165.755 152.522 165.809 152.495 165.89C152.118 167.421 151.767 169.006 151.389 170.564C151.362 170.644 151.362 170.698 151.335 170.779C151.335 170.833 151.308 170.886 151.308 170.913C151.281 170.994 151.281 171.047 151.254 171.128C150.958 172.418 150.661 173.707 150.364 174.996C150.175 175.856 149.959 176.716 149.77 177.575C149.743 177.683 149.716 177.817 149.689 177.925C149.501 178.757 149.312 179.59 149.123 180.423C149.069 180.638 149.042 180.853 148.988 181.068C148.934 181.283 148.88 181.498 148.853 181.686L148.88 182.304L148.934 183.351L149.528 194.178H183.631L187.22 177.307L187.301 176.984L187.868 174.352L187.948 174.029L188.11 173.223L188.218 172.74L189.648 166.078L189.729 165.755L190.242 163.337L190.296 163.042V163.015L191.267 158.394L192.184 154.069C192.184 154.069 192.346 153.989 192.643 153.801C196.313 151.732 220.299 138.219 224.966 134.512C230.012 130.482 237.782 115.17 237.782 115.17C237.782 115.17 237.809 115.116 237.863 115.036C238.969 112.86 252.244 86.5595 248.764 85.7536C245.148 84.9208 241.29 90.1862 238.646 94.377C238.619 94.4307 238.592 94.4576 238.565 94.5113C235.921 98.729 225.344 115.546 225.344 115.546C219.894 119.817 206.808 122.987 206.808 122.987C206.808 122.987 223.078 104.048 220.299 101.442Z" fill="#FE9F73"/>
<path d="M166.121 132.551C166.175 132.551 166.256 132.524 166.283 132.47C166.31 132.417 168.819 127.608 173.298 126.238C173.379 126.211 173.433 126.131 173.406 126.023C173.379 125.942 173.298 125.889 173.19 125.916C168.576 127.313 166.013 132.256 165.986 132.309C165.932 132.39 165.986 132.497 166.067 132.524C166.094 132.551 166.094 132.551 166.121 132.551Z" fill="#20111D"/>
<path d="M169.143 132.094C169.197 132.094 169.251 132.068 169.305 132.014C169.332 131.96 172.327 127.42 176.914 126.533C176.995 126.507 177.049 126.426 177.049 126.345C177.022 126.265 176.941 126.211 176.86 126.211C172.138 127.151 169.062 131.799 169.035 131.853C168.981 131.933 169.008 132.041 169.089 132.068C169.089 132.068 169.116 132.094 169.143 132.094Z" fill="#20111D"/>
<path d="M187.544 177.011L188.111 174.406L188.192 174.083L188.38 173.25L188.461 172.821L189.891 166.158L189.945 165.836V165.809L190.458 163.391L190.512 163.096V163.069L191.51 158.394L192.401 154.231C192.481 154.177 192.643 154.096 192.832 153.989C196.637 151.866 220.515 138.408 225.128 134.727C230.147 130.724 237.917 115.492 237.998 115.331C238.025 115.251 237.998 115.143 237.917 115.116C237.836 115.089 237.729 115.116 237.702 115.197C237.621 115.358 229.877 130.536 224.94 134.485C220.191 138.273 195.018 152.404 192.401 153.881C192.266 153.962 192.185 153.989 192.185 154.016L192.131 154.042L191.186 158.529L190.215 163.096V163.123L190.161 163.418L189.648 165.863L189.568 166.185L188.165 172.821L188.057 173.331L187.895 174.083L187.814 174.406L187.247 177.038L187.166 177.361L183.551 194.231H183.875L187.463 177.334L187.544 177.011Z" fill="#20111D"/>
<path d="M206.404 123.337L206.889 123.229C207.024 123.202 220.083 120.006 225.479 115.761L225.506 115.734L225.533 115.707C225.641 115.546 236.137 98.8365 238.754 94.6726C238.808 94.592 238.781 94.4845 238.7 94.4576C238.619 94.4039 238.511 94.4308 238.484 94.5114C235.894 98.5947 225.722 114.794 225.263 115.519C220.488 119.253 209.722 122.155 207.294 122.773C208.319 121.537 211.665 117.507 214.741 113.316C219.786 106.412 221.648 102.49 220.407 101.335C220.353 101.281 220.245 101.281 220.191 101.335C220.137 101.389 220.137 101.496 220.191 101.55C222.377 103.591 211.206 117.695 206.728 122.934L206.404 123.337Z" fill="#20111D"/>
<path d="M193.319 172.821C195.019 166.373 192.806 153.881 192.806 153.881C164.18 153.801 151.553 155.198 151.553 155.198C147.991 162.773 148.288 170.107 148.288 170.107C165.313 173.116 193.319 172.821 193.319 172.821Z" fill="white"/>
<path d="M194.695 163.606V163.445C194.425 163.418 194.182 163.391 193.886 163.364C192.833 163.257 191.7 163.176 190.513 163.123C190.459 163.123 190.405 163.123 190.351 163.123C190.297 163.123 190.243 163.123 190.189 163.123C189.569 163.096 188.948 163.096 188.3 163.069C181.771 162.988 173.704 163.526 166.5 164.197C166.473 164.197 166.473 164.197 166.446 164.197C161.023 164.708 156.058 165.299 152.632 165.729C150.743 165.97 149.313 166.158 148.504 166.266C148.018 166.346 147.748 166.373 147.748 166.373L147.694 178.086V178.408L147.64 194.231H195.693L194.695 163.606Z" fill="#49263E"/>
<path d="M147.883 178.032V175.937V175.319V174.755L147.91 166.481C148.045 166.454 148.234 166.454 148.476 166.4C148.638 166.373 148.854 166.346 149.07 166.319C149.448 166.266 149.879 166.212 150.392 166.158C150.446 166.158 150.5 166.158 150.554 166.131C150.608 166.131 150.689 166.105 150.743 166.105C151.282 166.051 151.903 165.97 152.578 165.89C160.591 164.949 176.995 163.257 188.975 163.338C189.029 163.338 189.083 163.338 189.137 163.338C189.191 163.338 189.245 163.338 189.299 163.338C189.568 163.338 189.838 163.338 190.108 163.338C190.162 163.338 190.216 163.338 190.27 163.338C190.324 163.338 190.378 163.338 190.432 163.338C191.457 163.364 192.428 163.391 193.346 163.445C193.535 163.445 193.697 163.472 193.885 163.472C194.155 163.499 194.398 163.499 194.641 163.526H194.668C194.749 163.526 194.83 163.472 194.83 163.364C194.83 163.284 194.776 163.203 194.668 163.176C194.398 163.15 194.128 163.15 193.831 163.123C193.67 163.123 193.481 163.096 193.319 163.096C192.401 163.042 191.457 163.015 190.486 162.988C190.432 162.988 190.378 162.988 190.324 162.988C190.27 162.988 190.216 162.988 190.162 162.988C189.892 162.988 189.649 162.988 189.38 162.988C189.326 162.988 189.272 162.988 189.218 162.988C189.164 162.988 189.11 162.988 189.056 162.988C188.813 162.988 188.597 162.988 188.354 162.988H188.273C181.555 162.988 173.569 163.499 166.473 164.117C166.446 164.117 166.446 164.117 166.419 164.117H166.392C160.969 164.6 156.058 165.111 152.632 165.514C151.984 165.594 151.363 165.675 150.824 165.728C150.77 165.728 150.689 165.755 150.635 165.755C150.581 165.755 150.527 165.782 150.473 165.782C149.933 165.836 149.448 165.917 149.043 165.943C148.827 165.97 148.665 165.997 148.503 166.024C148.018 166.078 147.721 166.131 147.694 166.131L147.532 166.158L147.505 175.937V176.501V177.119V178.167V178.193L147.451 194.178H147.802L147.856 178.301L147.883 178.032Z" fill="#20111D"/>
<path d="M147.721 178.408C147.91 178.355 166.095 174.244 191.295 174.406H191.322C191.403 174.379 191.457 174.325 191.484 174.244C191.484 174.164 191.403 174.083 191.322 174.083C166.068 173.922 147.829 178.032 147.64 178.086C147.532 178.113 147.478 178.193 147.505 178.274C147.532 178.382 147.64 178.435 147.721 178.408Z" fill="#20111D"/>
<path d="M160.646 181.39C160.646 181.444 160.673 181.471 160.726 181.471H160.753C160.78 181.471 160.807 181.444 160.834 181.39V179.456C160.834 179.402 160.807 179.376 160.753 179.376C160.699 179.376 160.672 179.402 160.672 179.456L160.646 181.39Z" fill="#20111D"/>
<path d="M160.619 185.286C160.619 185.339 160.646 185.366 160.7 185.366H160.727C160.754 185.366 160.808 185.339 160.808 185.286V183.351C160.808 183.298 160.781 183.271 160.727 183.271C160.673 183.271 160.646 183.298 160.646 183.351L160.619 185.286Z" fill="#20111D"/>
<path d="M160.753 177.602C160.807 177.602 160.834 177.549 160.834 177.522V176.232V175.91V175.588C160.834 175.534 160.807 175.507 160.753 175.507C160.699 175.507 160.672 175.534 160.672 175.588V175.937V176.259V177.522C160.672 177.576 160.699 177.602 160.753 177.602Z" fill="#20111D"/>
<path d="M160.564 193.023C160.564 193.076 160.591 193.103 160.645 193.103H160.672C160.699 193.103 160.753 193.076 160.753 193.023V191.088C160.753 191.035 160.726 191.008 160.672 191.008C160.618 191.008 160.591 191.035 160.591 191.088L160.564 193.023Z" fill="#20111D"/>
<path d="M160.591 189.154C160.591 189.208 160.618 189.235 160.672 189.235H160.699C160.726 189.235 160.78 189.208 160.78 189.154V187.22C160.78 187.166 160.753 187.139 160.699 187.139C160.645 187.139 160.618 187.166 160.618 187.22L160.591 189.154Z" fill="#20111D"/>
<path d="M171.809 16.9782L171.405 20.3093L171 23.6405L175.695 25.118C175.911 27.1329 176.45 29.094 177.287 30.8939L174.022 34.5474L176.099 37.1801L178.177 39.8128L182.548 37.5562C184.086 38.7919 185.867 39.8128 187.782 40.5112L188.079 45.4005L191.425 45.8035L194.77 46.2065L196.254 41.5321C198.278 41.3172 200.247 40.7799 202.055 39.9471L205.725 43.1977L208.369 41.1291L211.013 39.0606L208.746 34.7086C209.988 33.1773 211.013 31.4043 211.714 29.4969L216.625 29.2014L217.03 25.8702L217.434 22.5391L212.74 21.0615C212.524 19.0467 211.984 17.0856 211.148 15.2857L214.412 11.6322L212.335 8.99951L210.257 6.36682L205.886 8.62341C204.348 7.38766 202.568 6.36682 200.652 5.66835L200.355 0.779062L197.01 0.376099L193.664 0L192.18 4.67437C190.156 4.88929 188.187 5.42657 186.379 6.25936L182.71 3.00879L180.066 5.07734L177.421 7.14588L179.688 11.4979C178.447 13.0291 177.421 14.8022 176.72 16.7095L171.809 16.9782ZM189.725 11.3367C196.254 8.86519 203.539 12.1426 206.021 18.6169C208.504 25.118 205.212 32.3714 198.709 34.8429C192.18 37.3144 184.895 34.037 182.413 27.5627C179.931 21.0615 183.195 13.8082 189.725 11.3367Z" fill="#FD7583"/>
<path d="M139.222 41.2934L139.276 43.7381L139.33 46.1827L142.891 46.7737C143.242 48.1707 143.835 49.5407 144.645 50.7765L142.648 53.7584L144.429 55.4509L146.21 57.1433L149.124 55.0479C150.419 55.8001 151.795 56.3374 153.225 56.6329L153.953 60.1521L156.409 60.0984L158.864 60.0446L159.457 56.4986C160.86 56.1493 162.236 55.5583 163.478 54.7524L166.472 56.7403L168.172 54.9673L169.872 53.1943L167.768 50.2929C168.523 49.0034 169.063 47.6334 169.359 46.2096L172.894 45.4842L172.84 43.0396L172.786 40.5949L169.225 40.0039C168.874 38.607 168.28 37.2369 167.471 36.0012L169.467 33.0192L167.687 31.3268L165.906 29.6343L162.992 31.7298C161.697 30.9776 160.321 30.4403 158.891 30.1448L158.162 26.6255L155.707 26.6793L153.252 26.733L152.658 30.2791C151.255 30.6283 149.879 31.2193 148.638 32.0253L145.643 30.0373L143.943 31.8103L142.244 33.5834L144.348 36.4847C143.593 37.7742 143.053 39.1443 142.756 40.5681L139.222 41.2934ZM147.181 40.8904C148.584 36.0012 153.71 33.2073 158.621 34.6042C163.532 36.0012 166.338 41.1054 164.935 45.9946C163.532 50.8839 158.405 53.6778 153.495 52.2809C148.584 50.8571 145.778 45.7529 147.181 40.8904Z" fill="#FEC786"/>
<path d="M36.9102 40.3263L36.9641 42.771L37.0181 45.2156L40.5796 45.8066C40.9303 47.2036 41.5239 48.5736 42.3333 49.8094L40.3367 52.7913L42.1175 54.4838L43.8982 56.1762L46.8122 54.0808C48.1073 54.833 49.4833 55.3703 50.9133 55.6658L51.6418 59.185L54.097 59.1313L56.5523 59.0775L57.1459 55.5315C58.5489 55.1822 59.9249 54.5912 61.166 53.7853L64.1609 55.7732L65.8607 54.0002L67.5605 52.2272L65.456 49.3258C66.2115 48.0363 66.7511 46.6663 67.0479 45.2425L70.5824 44.5171L70.5285 42.0725L70.4745 39.6278L66.913 39.0368C66.5622 37.6399 65.9687 36.2698 65.1592 35.0341L67.1558 32.0521L65.3751 30.3597L63.5943 28.6672L60.6804 30.7626C59.3853 30.0105 58.0093 29.4732 56.5793 29.1777L55.8508 25.6584L53.3955 25.7122L50.9403 25.7659L50.3467 29.312C48.9437 29.6612 47.5676 30.2522 46.3265 31.0582L43.3316 29.0702L41.6318 30.8432L39.932 32.6163L42.0365 35.5176C41.2811 36.8071 40.7415 38.1772 40.4447 39.601L36.9102 40.3263ZM44.8965 39.9233C46.2995 35.0341 51.4259 32.2402 56.3365 33.6371C61.247 35.0341 64.053 40.1383 62.65 45.0275C61.247 49.9168 56.1206 52.7107 51.2101 51.3138C46.2995 49.89 43.4665 44.7858 44.8965 39.9233Z" fill="#FEC786"/>
<path d="M147.775 109.717C147.235 110.066 147.451 110.952 148.098 110.925C149.879 110.899 154.088 110.925 157.704 111.436C159.215 111.651 160.591 110.442 160.645 108.83C160.671 108.185 160.51 107.406 159.97 106.52C157.973 103.081 153.926 106.063 153.845 107.755C153.845 107.755 153.225 105.177 150.85 105.499C148.449 105.821 149.07 109.555 149.07 109.555C149.07 109.555 148.314 109.367 147.775 109.717Z" fill="white"/>
<path d="M164.505 70.5214C161.753 70.1453 161.051 73.1004 161.051 73.1004C160.971 71.1662 156.33 67.7275 154.036 71.6766C153.443 72.6974 153.227 73.5839 153.281 74.3361C153.362 76.1629 154.954 77.5598 156.654 77.3181C160.809 76.7271 165.638 76.7271 167.689 76.7539C168.417 76.7539 168.66 75.7599 168.04 75.357C167.392 74.954 166.556 75.1958 166.556 75.1958C166.556 75.1958 167.257 70.8975 164.505 70.5214Z" fill="white"/>
<path d="M85.3682 78.2587C84.6936 78.4736 87.1489 83.6047 88.3631 80.5153C88.7948 79.4407 87.3108 73.3694 85.4491 72.4291C83.6144 71.4889 85.4761 73.3157 85.4761 73.3157C85.4761 73.3157 86.0427 78.0438 85.3682 78.2587Z" fill="#49263E"/>
<path d="M86.7464 77.2111C87.1241 76.2977 85.4513 72.08 85.4513 72.08C85.4513 72.08 81.9977 71.677 81.9977 71.5965C81.9708 71.5159 81.5391 73.5307 81.5391 73.5307L83.3738 80.8109L86.5575 80.4348L85.883 77.8827C86.5575 77.6946 86.7464 77.2111 86.7464 77.2111Z" fill="#FE9F73"/>
<path d="M84.9905 74.3634C84.9905 74.3365 84.9635 74.3634 84.9905 74.3634C84.9635 74.3902 84.8826 74.7395 85.0444 75.0887C85.1254 75.3036 85.2873 75.4379 85.5031 75.5185C85.5031 75.5991 85.4761 75.8409 85.3682 75.8946V75.9215L85.3952 75.9484C85.5571 75.8409 85.5571 75.5185 85.5571 75.4917V75.4648H85.5301C85.3143 75.3842 85.1524 75.2499 85.0714 75.035C84.9365 74.7395 85.0175 74.3902 85.0175 74.3902C85.0175 74.3634 85.0175 74.3634 84.9905 74.3634Z" fill="#F07162"/>
<path d="M83.3174 77.8289C83.3174 77.8289 84.8553 78.6885 86.0964 78.7422L85.8806 77.8826C85.8806 77.8826 84.3696 78.1512 83.3174 77.8289Z" fill="#F07162"/>
<path d="M82.9665 74.9812C82.9935 74.9812 82.9935 74.9812 82.9935 74.9544C83.0205 74.9275 83.4791 74.1216 84.1807 74.444C84.2076 74.444 84.2346 74.444 84.2616 74.4171C84.2616 74.3902 84.2616 74.3634 84.2346 74.3365C83.4522 73.9873 82.9125 74.8738 82.9125 74.9006C82.8856 74.9275 82.9125 74.9544 82.9395 74.9812H82.9665Z" fill="#49263E"/>
<path d="M85.2331 74.2828C85.2331 74.2828 85.2601 74.2828 85.2601 74.2559C85.2601 74.2559 85.6108 73.7723 85.9076 73.9067C85.9346 73.9335 85.9616 73.9067 85.9886 73.8798C86.0156 73.8529 85.9886 73.8261 85.9616 73.7992C85.5839 73.6112 85.1791 74.1484 85.1791 74.1753C85.1522 74.2022 85.1791 74.229 85.2061 74.2559C85.2061 74.2828 85.2331 74.3096 85.2331 74.2828Z" fill="#49263E"/>
<path d="M84.0475 75.2233C84.1284 75.1964 84.1824 75.1158 84.1554 75.0352C84.1284 74.9546 84.0474 74.9009 83.9665 74.9277C83.8856 74.9546 83.8316 75.0352 83.8586 75.1158C83.8856 75.1695 83.9665 75.2233 84.0475 75.2233Z" fill="black"/>
<path d="M85.8805 74.7663C85.9614 74.7395 86.0154 74.6589 85.9884 74.5783C85.9614 74.4977 85.8805 74.444 85.7995 74.4708C85.7186 74.4977 85.6646 74.5783 85.6916 74.6589C85.6916 74.7395 85.7995 74.7663 85.8805 74.7663Z" fill="black"/>
<path d="M85.2895 76.7813C85.6942 76.7276 85.8021 76.244 85.8021 76.244C85.8021 76.244 84.6959 76.3784 84.6689 76.3784C84.6689 76.3784 84.8848 76.835 85.2895 76.7813Z" fill="#FBFDFC"/>
<path d="M84.422 72.1608C84.503 72.1071 83.127 71.6504 83.127 71.6504L84.1253 72.51C84.1253 72.4832 84.3141 72.2145 84.422 72.1608Z" fill="#FE9F73"/>
<path d="M81.7531 72.5369C81.7531 72.5369 82.3467 74.1219 86.3399 73.504C86.3399 73.504 86.6637 70.8713 83.6418 70.737C80.593 70.6026 80.8628 72.8324 80.9167 72.8055C80.9707 72.7786 81.7531 72.5369 81.7531 72.5369Z" fill="#49263E"/>
<path d="M81.9659 71.5425C80.401 70.844 78.7551 73.02 79.1329 74.6856C79.7264 77.372 79.3217 82.7717 81.6421 82.2613L82.1277 82.1539C84.8528 81.9121 81.9119 75.411 81.9119 75.411C82.0738 74.5513 82.5325 73.3155 82.5325 73.3155C82.5325 73.3155 83.5308 72.241 81.9659 71.5425Z" fill="#49263E"/>
<path d="M82.1607 77.1575C82.6463 77.0232 82.9431 76.5396 82.8082 76.0829C82.6733 75.5994 82.1877 75.3039 81.729 75.4382C81.2433 75.5725 80.9465 76.0561 81.0814 76.5128C81.1894 76.9963 81.675 77.265 82.1607 77.1575Z" fill="#FE9F73"/>
<path d="M82.1285 76.1899L82.2095 76.2436L82.1555 76.163C82.0746 76.0287 81.9667 75.9213 81.8587 75.8944C81.6429 75.8407 81.427 75.975 81.427 75.975C81.427 75.975 81.4 76.0019 81.427 76.0019C81.427 76.0019 81.454 76.0287 81.454 76.0019C81.454 76.0019 81.6429 75.8675 81.8317 75.9213C81.9127 75.9481 81.9936 76.0019 82.0476 76.0825C81.9397 76.0556 81.7508 76.0287 81.5889 76.1899C81.481 76.2974 81.454 76.4854 81.5619 76.6197C81.6429 76.7541 81.8048 76.8615 81.9667 76.8078C81.9936 76.8078 81.9936 76.7809 81.9936 76.7809C81.9936 76.7541 81.9667 76.7541 81.9667 76.7541C81.8048 76.8078 81.6699 76.7003 81.6159 76.5929C81.5619 76.4854 81.535 76.3511 81.6429 76.2168C81.8587 76.0556 82.1285 76.1899 82.1285 76.1899Z" fill="#F07162"/>
<path d="M85.4473 71.3008L85.9059 72.7515L87.7946 76.5662C87.1471 72.4023 85.4473 71.3008 85.4473 71.3008Z" fill="#49263E"/>
<path d="M87.958 125.916L86.0693 131.933L91.2227 133.518L93.3002 126.829L87.958 125.916Z" fill="white"/>
<path d="M86.878 109.424L84.4961 114.245L89.6286 116.759L92.0105 111.938L86.878 109.424Z" fill="white"/>
<path d="M92.7623 131.288C92.7623 131.288 99.1837 109.018 99.1837 106.17C99.1837 103.323 85.5314 96.6335 85.5314 96.6335L79.3258 100.206C79.3258 100.206 69.9903 100.959 67.8588 102.409C65.7004 103.86 84.5331 112.349 84.5331 112.349L83.265 107.97C83.3729 107.97 87.7438 109.904 87.7438 109.904L89.1198 110.818C89.1198 110.818 86.9883 125.217 86.6106 129.059C86.5836 129.059 89.6595 131.208 92.7623 131.288Z" fill="#8CD2F9"/>
<path d="M84.9361 115.519C84.9361 115.519 87.7421 112.269 88.0389 109.367C88.0389 109.367 77.4893 103.108 73.8739 102.141C70.2584 101.174 67.6413 101.98 67.2636 103.135C66.8588 104.263 66.4811 107.487 67.2636 108.535C68.046 109.609 81.7793 114.66 84.9361 115.519Z" fill="#8CD2F9"/>
<path d="M67.3421 103.054C67.3691 103.054 67.4231 103.027 67.4231 103.001C68.2595 101.335 76.9204 100.475 77.433 100.556C77.487 100.583 77.514 100.556 77.5409 100.529C77.5679 100.475 77.5679 100.422 77.514 100.395C77.3521 100.287 74.9238 100.583 74.8968 100.583C73.8715 100.717 71.8749 100.986 70.1751 101.442C68.5023 101.872 67.504 102.383 67.2342 102.947C67.2072 103.001 67.2342 103.054 67.2882 103.081C67.3152 103.054 67.3152 103.054 67.3421 103.054Z" fill="#21111D"/>
<path d="M86.9302 112.484C86.9571 112.484 86.9572 112.51 86.9841 112.51C87.0111 112.51 87.0381 112.484 87.0651 112.457C88.0634 110.899 88.1443 109.314 88.1443 109.26V109.206L88.0904 109.179C88.0364 109.126 82.0196 105.069 73.3857 101.389C73.3318 101.362 73.2778 101.389 73.2508 101.442C73.2238 101.496 73.2508 101.55 73.3048 101.577C81.507 105.069 87.3349 108.911 87.9285 109.314C87.9015 109.609 87.7396 111.006 86.8762 112.349C86.8762 112.376 86.8762 112.457 86.9302 112.484Z" fill="#21111D"/>
<path d="M75.1151 102.302C75.1421 102.329 75.169 102.329 75.196 102.329C75.223 102.329 75.25 102.329 75.25 102.302C75.3039 102.275 75.304 102.195 75.277 102.168C74.8723 101.657 74.1438 101.228 74.1168 101.228C74.0628 101.201 74.0089 101.228 73.9819 101.254C73.9549 101.308 73.9819 101.362 74.0089 101.389C74.0358 101.416 74.7373 101.819 75.1151 102.302Z" fill="#21111D"/>
<path d="M96.7791 116.433C96.7791 116.486 96.8061 116.54 96.8601 116.54H96.8871C96.941 116.54 96.968 116.513 96.995 116.459C97.022 116.379 99.0455 107.97 99.3153 106.493C99.5852 104.988 96.5633 102.947 96.4554 102.839C96.4014 102.812 96.3474 102.812 96.3205 102.866C96.2935 102.92 96.2935 102.974 96.3474 103C96.3744 103.027 99.3693 105.069 99.1265 106.439C98.8297 107.944 96.8061 116.352 96.7791 116.433Z" fill="#21111D"/>
<path d="M90.3065 111.651C90.3335 111.651 90.3335 111.678 90.3605 111.678C90.3874 111.678 90.4144 111.651 90.4414 111.624C90.4684 111.571 90.4684 111.517 90.4144 111.49L87.9861 109.959C87.9322 109.932 87.8782 109.932 87.8512 109.986C87.8242 110.039 87.8242 110.093 87.8782 110.12L90.3065 111.651Z" fill="#21111D"/>
<path d="M89.0642 110.711C89.0642 110.657 89.0372 110.603 88.9832 110.603C88.9293 110.603 88.8753 110.63 88.8753 110.684L88.3357 115.492L86.501 129.032V129.086L86.528 129.113C88.3357 130.751 92.5717 131.342 92.7606 131.369C92.7606 131.369 92.7606 131.369 92.7875 131.369C92.8415 131.369 92.8685 131.342 92.8955 131.289C92.8955 131.235 92.8685 131.181 92.8145 131.181C92.7606 131.181 88.5246 130.59 86.7168 129.005L88.5515 115.519L89.0642 110.711Z" fill="#21111D"/>
<path d="M68.7747 108.749C68.8017 108.749 68.8286 108.723 68.8556 108.696C68.8826 108.642 68.8826 108.588 68.8286 108.561C67.8034 107.809 67.7764 107.165 67.7764 107.138C67.7764 107.084 67.7224 107.03 67.6685 107.03C67.6145 107.03 67.5605 107.084 67.5605 107.138C67.5605 107.165 67.5605 107.89 68.6937 108.723C68.7207 108.723 68.7477 108.749 68.7747 108.749Z" fill="#21111D"/>
<path d="M69.7731 108.562C69.8001 108.562 69.8541 108.535 69.8541 108.508C69.8811 108.454 69.8541 108.4 69.8001 108.374C68.6669 107.783 68.559 107.138 68.559 107.138C68.559 107.084 68.505 107.057 68.4511 107.057C68.3971 107.057 68.3701 107.111 68.3701 107.165C68.3701 107.192 68.478 107.917 69.7192 108.562C69.7461 108.535 69.7731 108.562 69.7731 108.562Z" fill="#21111D"/>
<path d="M84.7187 80.193H79.4304C78.8638 80.193 78.1083 80.5691 78.0544 80.5691C75.9229 81.6974 70.095 88.0911 70.3918 92.1208C70.6616 95.7743 75.9499 95.049 81.2381 95.9086L82.3983 91.0462L80.4827 90.5358L86.6343 88.2792L84.7187 80.193Z" fill="#FEC786"/>
<path d="M90.6022 96.7412C93.5161 95.8547 99.6948 95.989 99.9646 92.3355C100.261 88.3059 93.678 81.6973 91.5735 80.569C91.5465 80.5421 90.7641 80.1929 90.1975 80.1929H84.9092V89.5148L89.1182 90.6699L88.9833 90.9654L90.6022 96.7412Z" fill="#FEC786"/>
<path d="M93.4082 100.932L93.4622 90.7774C93.4622 90.7774 85.3679 86.3448 85.206 86.3448C85.0441 86.3448 78.0561 89.4342 77.1927 89.9446C76.3293 90.455 76.3293 92.0669 76.3293 92.0669C76.3293 92.0669 75.7357 100.395 75.9516 100.449C84.1807 102.598 93.4082 100.932 93.4082 100.932Z" fill="#FEC786"/>
<path d="M84.6389 83.0136C84.6929 83.0136 84.7468 82.9868 84.7468 82.933C84.7468 82.8793 84.7199 82.8256 84.6659 82.8256C81.644 82.6375 80.6457 80.569 80.6457 80.5421C80.6188 80.4884 80.5648 80.4615 80.5108 80.4884C80.4569 80.5152 80.4299 80.569 80.4569 80.6227C80.4299 80.6496 81.4822 82.8256 84.6389 83.0136Z" fill="#21111D"/>
<path d="M87.9823 80.1932H81.291C81.291 80.1932 82.5052 82.2886 84.7985 82.2617C85.8778 82.2617 87.011 81.8856 87.9823 80.1932Z" fill="#FE9F73"/>
<path d="M83.8567 93.625C83.8567 93.625 83.425 94.0817 83.8567 94.5922C83.8567 94.5922 83.7218 95.022 84.3154 95.4787C84.882 95.9622 86.7977 96.3921 87.3643 96.3652C87.9039 96.3383 91.4924 95.8279 91.4924 95.8279L90.2782 91.6908L88.7943 92.5505C88.7943 92.5505 88.2277 91.5565 87.9309 91.1804C87.6341 90.8043 87.4452 90.9924 87.4452 91.1267C87.4452 91.2073 87.4182 91.8251 87.4182 92.3087L87.3913 92.2818C87.3913 92.2818 87.2024 92.5505 86.6088 92.6579C85.5835 92.2818 83.8028 91.7714 83.8028 91.7714C83.8028 91.7714 83.6409 92.0669 83.7758 92.7117C83.8298 92.6579 83.425 93.1952 83.8567 93.625Z" fill="#F78C63"/>
<path d="M87.745 92.1477V90.8582L86.5308 90.5358L86.0991 92.3895L86.6657 92.6044C87.3672 92.7118 87.745 92.1477 87.745 92.1477Z" fill="#FD7583"/>
<path d="M85.0195 93.2757C85.0195 93.2757 85.0465 93.2757 85.0195 93.2757C85.0735 93.2757 85.1005 93.2488 85.1005 93.2219C85.1005 93.1951 85.1005 93.1413 85.0465 93.1413C84.5608 92.9802 83.8593 92.5772 83.8323 92.5772C83.8054 92.5503 83.7514 92.5772 83.7514 92.6041C83.7244 92.6309 83.7514 92.6847 83.7784 92.6847C83.8324 92.7115 84.5069 93.1145 85.0195 93.2757Z" fill="#F07162"/>
<path d="M85.0202 94.1086C85.0472 94.1086 85.0472 94.1086 85.0202 94.1086C85.0742 94.1086 85.1012 94.0817 85.1012 94.0548C85.1012 94.028 85.0742 93.9742 85.0472 93.9742C84.4267 93.8668 83.887 93.5444 83.887 93.5444C83.8601 93.5175 83.8061 93.5444 83.8061 93.5713C83.7791 93.5981 83.8061 93.6519 83.8331 93.6519C83.8601 93.6787 84.3997 94.0011 85.0202 94.1086Z" fill="#F07162"/>
<path d="M84.8853 95.0756C84.9393 95.0756 84.9663 95.0488 84.9663 95.0219C84.9663 94.995 84.9393 94.9413 84.9123 94.9413C84.3727 94.8338 83.914 94.5115 83.887 94.5115C83.8601 94.4846 83.8061 94.5115 83.8061 94.5383C83.7791 94.5652 83.8061 94.6189 83.8331 94.6189C83.8331 94.6458 84.3187 94.9413 84.8853 95.0756Z" fill="#F07162"/>
<path d="M91.7622 96.7413C91.8431 96.7413 92.4097 94.2429 92.4097 94.1623C92.4097 94.0548 91.2765 91.2341 91.2765 91.2341L89.2529 91.7445L91.0607 96.0697C91.0337 96.0697 91.6812 96.7413 91.7622 96.7413Z" fill="#4CB7D8"/>
<path d="M93.9459 89.7298C93.9999 89.7298 94.0538 89.6492 94.0538 89.5955C94.0538 89.5418 93.9729 89.4881 93.9189 89.4881L93.0825 89.6224L91.1939 86.721C91.1669 86.6673 91.0859 86.6404 91.032 86.6942C90.978 86.721 90.951 86.8016 91.005 86.8554L92.9746 89.891L93.9459 89.7298Z" fill="#21111D"/>
<path d="M91.1148 81.7241C91.1148 81.7241 91.7623 81.7241 92.5178 82.7987C92.5448 82.8256 92.5717 82.8524 92.5987 82.8524C92.6257 82.8524 92.6257 82.8524 92.6527 82.8256C92.7066 82.7987 92.7066 82.745 92.6797 82.6912C91.8702 81.5361 91.1687 81.5361 91.1148 81.5361C91.0608 81.5361 91.0068 81.5898 91.0068 81.6435C91.0068 81.6704 91.0608 81.7241 91.1148 81.7241Z" fill="#21111D"/>
<path d="M92.2775 83.7924C92.3045 83.8193 92.3315 83.8461 92.3585 83.8461C92.3854 83.8461 92.3854 83.8461 92.4124 83.8461C92.4664 83.8193 92.4934 83.7656 92.4664 83.7118C91.8458 82.4492 91.1173 82.3418 91.0903 82.3418C91.0364 82.3418 90.9824 82.3686 90.9824 82.4223C90.9824 82.4761 91.0094 82.5298 91.0634 82.5298C91.0634 82.5298 91.7109 82.6373 92.2775 83.7924Z" fill="#21111D"/>
<path d="M86.7708 91.9057C87.2295 91.6371 87.8231 91.1266 87.8501 91.0998C87.877 91.0729 87.877 91.046 87.8501 91.0192C87.8231 90.9923 87.7961 90.9923 87.7691 91.0192C87.7691 91.0192 87.1486 91.5565 86.7169 91.8251C86.6899 91.852 86.6629 91.8788 86.6899 91.9057C86.6899 91.9057 86.7169 91.9326 86.7708 91.9057C86.7438 91.9326 86.7708 91.9057 86.7708 91.9057Z" fill="#F07162"/>
<path d="M86.9362 92.7384C87.5568 92.4966 88.0155 92.0668 88.0424 92.0399C88.0694 92.013 88.0694 91.9862 88.0424 91.9593C88.0155 91.9324 87.9885 91.9324 87.9615 91.9593C87.9615 91.9593 87.5028 92.3891 86.9092 92.6041C86.8823 92.6309 86.8553 92.6578 86.8823 92.6846C86.8553 92.7384 86.8823 92.7384 86.9362 92.7384Z" fill="#F07162"/>
<path d="M87.2565 93.6519C87.2565 93.6519 87.2835 93.6519 87.2565 93.6519C87.7962 93.4101 88.2009 93.0071 88.2009 93.0071C88.2279 92.9803 88.2279 92.9265 88.2009 92.9265C88.1739 92.8997 88.1199 92.8997 88.1199 92.9265C88.1199 92.9265 87.7152 93.3295 87.2296 93.5444C87.2026 93.5713 87.1756 93.5981 87.2026 93.625C87.2026 93.625 87.2296 93.6519 87.2565 93.6519Z" fill="#F07162"/>
<path d="M78.1924 89.8371L79.4875 86.4791C79.5145 86.4254 79.4875 86.3448 79.4065 86.3179C79.3526 86.2911 79.2716 86.3179 79.2447 86.3985L78.0035 89.6222L77.1401 89.6759C77.0862 89.6759 77.0322 89.7297 77.0322 89.8103C77.0322 89.864 77.0862 89.9177 77.1671 89.9177L78.1924 89.8371Z" fill="#21111D"/>
<path d="M82.4266 91.0729C82.4266 91.0729 80.0522 91.5296 79.9713 91.5833C79.8903 91.6371 79.2158 93.9474 79.2158 94.1354C79.2158 94.3235 81.3743 96.0697 81.3743 96.0697L82.4266 91.0729Z" fill="#4CB7D8"/>
<path d="M76.0055 94.5652C75.9515 94.5384 75.8706 94.5652 75.8436 94.619C75.8166 94.6727 75.8436 94.7533 75.8976 94.7801C78.7845 95.989 81.2938 96.1502 81.3207 96.1502H81.4287L82.4 91.046L78.11 89.5954C78.056 89.5685 77.9751 89.5954 77.9481 89.6759C77.9211 89.7297 77.9481 89.8103 78.0291 89.8371L82.1032 91.2341L81.2128 95.9353C80.7541 95.8816 78.5417 95.6398 76.0055 94.5652Z" fill="#21111D"/>
<path d="M93.2189 89.6759C93.192 89.6222 93.138 89.5685 93.0571 89.5954L88.7671 91.046L89.7384 96.1502H89.8463C89.8733 96.1502 92.3825 95.989 95.2695 94.7801C95.3235 94.7533 95.3504 94.6727 95.3235 94.619C95.2965 94.5652 95.2155 94.5384 95.1616 94.5652C92.6254 95.6129 90.4129 95.8547 89.9273 95.9084L89.0369 91.2072L93.111 89.8103C93.192 89.8103 93.2189 89.7565 93.2189 89.6759Z" fill="#21111D"/>
<path d="M94.4864 136.554L91.5185 133.142C89.333 133.841 88.1999 131.853 88.1999 131.853C87.3095 130.805 86.0953 131.423 86.0953 131.423L85.124 133.438L95.3228 138.354C95.6466 137.655 94.4864 136.554 94.4864 136.554Z" fill="#FD7583"/>
<path d="M86.066 131.422L85.2363 133.141L85.3093 133.176L86.1389 131.457L86.066 131.422Z" fill="black"/>
<path d="M89.7377 133.196L89.7647 133.115C89.7647 133.115 88.8204 132.82 88.2538 131.853L88.1729 131.88C88.5776 132.578 89.1711 132.927 89.4949 133.089C89.6568 133.169 89.7377 133.196 89.7377 133.196Z" fill="black"/>
<path d="M86.0667 132.739L86.0127 132.766L86.3365 133.304L86.3904 133.277L86.0667 132.739Z" fill="black"/>
<path d="M86.4711 132.793L86.3901 132.847L86.7139 133.384L86.7949 133.357L86.4711 132.793Z" fill="black"/>
<path d="M95.0764 139.106C95.2653 139.187 95.5081 139.106 95.589 138.918L95.7239 138.649C95.8049 138.461 95.7239 138.22 95.5351 138.139L85.1474 133.169C85.0664 133.142 84.9855 133.169 84.9315 133.25L84.6078 133.948C84.5808 134.029 84.6078 134.109 84.6887 134.163L95.0764 139.106Z" fill="#49263E"/>
<path d="M95.3499 138.058H95.4308C95.4308 138.032 95.4308 137.521 94.8102 136.849C94.2167 136.178 91.5995 133.169 91.5725 133.142L91.5186 133.196C91.5455 133.223 94.1627 136.232 94.7563 136.903C95.3499 137.548 95.3499 138.058 95.3499 138.058Z" fill="black"/>
<path d="M95.2958 139.025L95.3228 139.106C95.4847 139.052 95.6196 138.945 95.7005 138.784C95.8354 138.488 95.7005 138.139 95.4037 138.005L85.2859 133.169C85.124 133.089 84.9351 133.169 84.8542 133.303L84.6113 133.787L84.6923 133.814L84.9351 133.33C84.9891 133.223 85.124 133.169 85.2589 133.223L95.3767 138.058C95.6196 138.193 95.7545 138.488 95.6196 138.73C95.5656 138.891 95.4307 138.999 95.2958 139.025Z" fill="black"/>
<path d="M94.65 101.55C95.1896 101.55 95.6213 101.12 95.6213 100.583V90.455C95.6213 89.9177 95.1896 89.4879 94.65 89.4879H75.9791C75.4395 89.4879 75.0078 89.9177 75.0078 90.455V100.583C75.0078 101.12 75.4395 101.55 75.9791 101.55H94.65Z" fill="#49263E"/>
<path d="M85.9345 94.5115C85.9345 94.0548 85.5568 93.6787 85.0981 93.6787C84.6395 93.6787 84.2617 94.0548 84.2617 94.5115C84.2617 94.9682 84.6395 95.3443 85.0981 95.3443C85.5568 95.3174 85.9345 94.9682 85.9345 94.5115Z" fill="white"/>
<path d="M69.0976 64.3966C64.1601 63.9668 64.1062 69.5545 64.1062 69.5545C64.1062 69.5545 61.8667 67.4323 60.2479 70.1187C60.2479 70.1187 57.4419 68.5068 56.0388 71.4888C55.9849 71.5694 55.9849 71.6768 56.0119 71.7574H75.0874C75.1144 71.5425 75.0335 71.3276 74.8716 71.1395C74.5478 70.7903 74.0082 70.5217 73.0908 70.4679C73.0908 70.4411 73.3876 64.7727 69.0976 64.3966Z" fill="white"/>
<path d="M125.57 94.4576C125.301 94.7263 125.22 95.0486 125.247 95.371H153.172C153.199 95.2367 153.172 95.1023 153.118 94.968C151.067 90.616 146.966 92.9801 146.966 92.9801C144.592 89.0579 141.327 92.1473 141.327 92.1473C141.327 92.1473 141.246 84.0074 134.015 84.6253C127.729 85.1626 128.188 93.4636 128.188 93.4636C126.838 93.5711 126.056 93.9741 125.57 94.4576Z" fill="white"/>
<path d="M285 193.882H0V194.527H285V193.882Z" fill="#33192C"/>
<defs>
<linearGradient id="paint0_linear_1004_6123" x1="227.5" y1="14.9351" x2="31.7494" y2="189.025" gradientUnits="userSpaceOnUse">
<stop offset="0.0313228" stop-color="#86E5E3"/>
<stop offset="1" stop-color="#C8F59B"/>
</linearGradient>
</defs>
</svg>
