<svg width="285" height="196" viewBox="0 0 285 196" fill="none" xmlns="http://www.w3.org/2000/svg">
<path fill-rule="evenodd" clip-rule="evenodd" d="M145 0.54274C79.8304 0.54274 27 53.5624 27 118.965C27 147.694 37.1935 174.034 54.1488 194.54H235.851C252.806 174.034 263 147.694 263 118.965C263 53.5624 210.17 0.54274 145 0.54274Z" fill="url(#paint0_linear_1004_6112)"/>
<path d="M229.093 81.2925C228.522 79.1729 226.322 77.5696 223.687 77.5696C223.198 77.5696 222.736 77.6239 222.274 77.7326C220.97 75.3141 218.145 73.6564 214.858 73.6564C214.016 73.6564 213.201 73.7651 212.413 73.9825C210.647 71.4553 207.441 69.7704 203.774 69.7704C199.427 69.7704 195.706 72.1618 194.293 75.5043C193.288 75.0152 192.147 74.7434 190.924 74.7434C187.094 74.7434 183.997 77.4337 183.997 80.7218C183.997 80.9121 183.997 81.1023 184.024 81.2925H229.093Z" fill="white"/>
<path d="M73.9738 135.914C73.4848 134.039 71.5289 132.625 69.1926 132.625C68.7579 132.625 68.3504 132.68 67.9429 132.761C66.802 130.642 64.2755 129.147 61.3959 129.147C60.6352 129.147 59.9289 129.256 59.2498 129.419C57.7013 127.191 54.8489 125.696 51.6161 125.696C47.7585 125.696 44.4714 127.816 43.2218 130.778C42.3524 130.343 41.3201 130.098 40.2335 130.098C36.8649 130.098 34.1211 132.462 34.1211 135.397C34.1211 135.56 34.1211 135.751 34.1483 135.914H73.9738Z" fill="white"/>
<path d="M99.7544 43.5741C99.3741 42.161 97.9071 41.1012 96.1684 41.1012C95.8425 41.1012 95.5436 41.1283 95.2448 41.2099C94.3755 39.6066 92.501 38.5196 90.3549 38.5196C89.7844 38.5196 89.2411 38.6011 88.7521 38.737C87.584 37.0521 85.465 35.938 83.0472 35.938C80.1676 35.938 77.6955 37.5141 76.7718 39.7424C76.1198 39.4163 75.3592 39.2533 74.5442 39.2533C72.0178 39.2533 69.9531 41.0196 69.9531 43.2208C69.9531 43.3567 69.9531 43.4654 69.9803 43.6012H99.7544V43.5741Z" fill="white"/>
<path d="M105.459 78.1131C106.627 74.4717 107.361 70.477 104.725 69.4987C102.063 68.5476 100.162 67.2704 98.3686 67.7867C97.1733 68.14 93.8047 72.8683 93.8047 72.8683C93.8047 72.8683 96.0866 74.9064 95.9236 74.1727C95.7878 73.439 98.4501 69.1726 100.162 69.4987C101.873 69.7976 104.372 71.0748 104.671 73.0857C104.943 75.0967 102.715 78.1131 102.715 78.1131L105.894 78.3848L105.459 78.1131Z" fill="#58556E"/>
<path d="M88.9692 71.2379C91.2511 70.0965 95.7607 71.3466 100.841 73.9825C105.948 76.5913 109.588 78.7653 109.588 80.6947C109.588 82.6241 103.313 95.0429 101.493 95.8581C99.6726 96.6462 93.2886 96.3201 86.6872 92.2167C80.0858 88.1134 77.2334 82.3523 77.2334 82.3523L88.9692 71.2379Z" fill="#58556E"/>
<path d="M105.622 80.3686C101.302 76.6185 90.2456 70.6672 88.996 71.2379C87.7463 71.8085 78.5099 79.9066 76.9071 81.4827C75.3043 83.086 85.2199 92.6515 91.7126 93.4396C98.2053 94.282 105.622 80.3686 105.622 80.3686Z" fill="#3A384D"/>
<path d="M106.057 80.4501C100.596 77.3794 93.1799 83.8741 78.0212 76.5641C73.5659 74.4173 68.5674 70.8846 70.2788 70.8031C71.9903 70.7487 75.3046 73.4662 81.6614 71.6999C88.0455 69.9335 92.4192 70.5042 95.1902 71.564C97.9611 72.5966 106.057 76.9989 106.057 78.7109C106.057 80.4501 106.057 80.4501 106.057 80.4501Z" fill="#58556E"/>
<path d="M88.0185 102.19C88.0185 102.19 84.2695 99.744 83.4274 100.288C82.5852 100.831 81.0911 101.646 80.3576 104.962C79.6241 108.25 76.9347 111.429 77.2607 114.31C77.5867 117.163 79.923 114.853 81.1998 112.625C82.4766 110.396 83.862 107.543 86.1983 106.483C88.5075 105.369 88.0185 102.19 88.0185 102.19Z" fill="#3A384D"/>
<path d="M182.801 132.734C183.235 132.734 186.821 132.109 189.81 129.12C192.771 126.158 192.472 131.864 188.859 135.044C185.246 138.223 185.898 140.126 183.561 140.234C181.225 140.343 179.215 135.343 179.215 135.343L182.801 132.734Z" fill="#3A384D"/>
<path d="M173.999 43.9544C173.999 43.9544 174.95 38.5738 176.553 38.0032C178.155 37.4597 181.225 40.1771 181.008 41.5087C180.791 42.8674 177.938 45.286 176.553 45.9382C175.167 46.5904 173.999 43.9544 173.999 43.9544Z" fill="#F9B59D"/>
<path d="M104.1 64.8246C100.188 66.2377 99.0203 71.1563 98.9117 71.7541C98.803 72.352 102.307 74.2814 103.693 74.1727C105.078 74.064 106.545 67.1616 106.545 67.1616L104.1 64.8246Z" fill="#F9B59D"/>
<path d="M143.302 59.9603C156.07 62.1886 163.106 64.2267 166.583 63.0311C169.897 61.8897 178.346 45.8567 178.346 45.8567C178.346 45.8567 174.407 42.7588 173.565 42.487C171.228 45.8295 165.089 53.384 163.377 53.058C160.416 52.4601 153.733 44.6882 150.854 42.487C146.833 39.4434 144.578 44.2534 142.215 47.5687C137.678 53.9547 143.302 59.9603 143.302 59.9603Z" fill="#49263E"/>
<path d="M146.534 38.0032C146.534 38.0032 154.521 44.9327 156.26 52.0796C157.998 59.2266 157.537 77.8684 152.429 80.7218C147.349 83.5751 141.916 85.1784 141.916 85.1784L146.534 38.0032Z" fill="#33192C"/>
<path d="M145.393 73.602C145.393 73.602 160.715 100.749 162.263 104.472C163.812 108.195 169.788 118.576 176.172 125.125C182.556 131.674 184.05 132.707 184.05 132.707C184.05 132.707 181.116 137 179.894 136.865C178.672 136.729 157.917 125.016 156.232 119.527C154.14 112.679 149.441 106.511 141.209 100.668C132.978 94.8254 126.485 86.4556 126.485 86.4556C126.485 86.4556 137.189 74.1455 137.895 74.1998C138.601 74.2542 145.393 73.602 145.393 73.602Z" fill="#49263E"/>
<path d="M146.561 104.934C144.985 103.494 143.193 102.054 141.209 100.641C132.978 94.7982 126.485 86.4284 126.485 86.4284C126.485 86.4284 137.189 74.1183 137.895 74.1727C138.601 74.2542 145.963 74.9064 145.963 74.9064C145.963 74.9064 147.702 78.3304 150.12 81.9718C146.751 90.2057 145.529 99.4451 146.561 104.934Z" fill="#33192C"/>
<path d="M153.734 64.1724C150.854 80.8033 133.93 103.25 126.785 112.109C119.613 120.94 83.8623 107.978 83.8623 107.978L87.1494 101.402C87.1494 101.402 106.872 100.831 114.017 102.57C117.114 102 124.639 81.2924 127.736 77.4336C130.833 73.5748 136.619 70.2867 136.619 70.2867L153.734 64.1724Z" fill="#49263E"/>
<path d="M127.871 84.2001C127.409 84.0914 126.213 84.2545 124.203 84.0099C125.616 81.0207 126.865 78.5206 127.735 77.4065C128.414 76.564 129.202 75.776 130.044 75.0151L132.489 73.5748L138.683 77.7054C135.966 82.8686 132.244 83.9827 129.772 84.0643C128.577 85.6947 120.916 99.2277 120.916 99.2277C120.916 99.2277 128.495 84.3632 127.871 84.2001Z" fill="#33192C"/>
<path d="M143.6 37.4053C143.6 37.4053 131.81 42.8675 131.266 45.2316C130.723 47.5958 133.087 67.216 131.076 72.4335C129.093 77.6239 145.8 79.825 148.028 78.6293C150.228 77.4336 156.395 68.1127 155.173 55.5308C153.733 41.1283 143.6 37.4053 143.6 37.4053Z" fill="#F2F2F2"/>
<path d="M141.155 37.4053C141.155 37.4053 148.001 46.2099 146.262 56.1015C144.524 65.9659 133.359 79.5804 125.019 82.3251C116.679 85.0697 109.181 78.0586 109.181 78.0586C109.181 78.0586 118.879 72.1617 124.285 65.8029C129.691 59.444 128.713 43.2479 130.56 42.7316C132.435 42.2153 141.155 37.4053 141.155 37.4053Z" fill="#49263E"/>
<path d="M124.312 65.8029C126.839 62.8408 127.98 57.7048 128.659 53.0579L138.711 49.4165C138.711 49.4165 132.272 65.9659 125.671 68.9279C121.84 70.6399 119.395 71.428 118.037 71.8085C120.238 69.9606 122.52 67.8953 124.312 65.8029Z" fill="#33192C"/>
<path d="M141.155 37.4053C141.291 36.8075 143.03 35.802 143.03 35.802C143.03 35.802 148.327 42.4055 148.816 44.5523C149.305 46.6991 147.077 51.0742 147.077 51.0742C147.077 51.0742 144.035 40.7207 141.155 37.4053Z" fill="#F2F2F2"/>
<path d="M135.124 40.6119C124.312 44.5251 114.614 49.5252 111.517 51.509C108.556 53.384 102.117 65.8028 102.117 65.8028C102.117 65.8028 105.948 68.8192 106.817 68.9008C107.686 68.9823 114.342 58.4929 116.488 58.1668C118.634 57.8407 128.441 58.0852 129.501 58.1668C134.499 58.5472 137.542 56.183 139.063 52.4057C141.97 45.1773 135.124 40.6119 135.124 40.6119Z" fill="#49263E"/>
<path d="M145.827 41.3728C145.827 41.3728 146.452 40.9652 147.321 41.9978C148.191 43.0305 148.327 44.5523 147.946 45.5034C147.539 46.4545 147.539 46.4545 147.539 46.4545C147.539 46.4545 151.94 51.2101 150.147 57.4602C148.354 63.7104 141.888 66.4822 136.346 63.7919C130.777 61.1016 125.398 62.0527 125.398 62.0527C125.398 62.0527 127.572 58.0037 129.392 57.5961C131.212 57.1885 137.515 60.9386 140.557 61.1832C144.062 61.4549 147.973 58.2211 147.783 52.6503C147.62 48.2752 146.371 45.7751 145.338 44.6338C144.279 43.5196 145.827 41.3728 145.827 41.3728Z" fill="#008AAA"/>
<path d="M175.603 161.884C175.603 161.884 188.479 170.069 192.228 175.488C195.977 180.936 198.884 194.512 198.884 194.512H262.589C262.589 194.512 260.605 168.002 206.001 163.309C205.947 163.337 178.346 159.705 175.603 161.884Z" fill="#632E18"/>
<path d="M285 155.068V194.54H262.534C262.534 194.54 254.765 181.885 248.055 178.617C241.344 175.349 234.825 176.745 232.814 176.745C230.804 176.745 237.405 174.119 237.405 174.119C237.405 174.119 235.449 174.594 233.955 174.594C232.923 174.594 233.303 173.868 233.629 173.449C233.113 174.008 232.081 175.041 231.701 174.427C231.184 173.589 230.206 172.164 230.206 172.164L230.043 173.477L227.843 172.639C227.843 172.639 229.147 174.985 228.278 175.181C227.408 175.377 226.213 172.276 226.186 172.192L226.702 175.181C225.126 175.181 225.099 172.36 225.099 172.36C225.099 172.36 224.637 173.672 222.247 174.315C219.91 174.957 221.486 172.08 221.568 171.968C221.54 172.024 220.535 173.142 216.976 175.153C213.363 177.22 207.197 172.89 202.606 170.292C198.042 167.666 190.136 165.599 186.089 165.795C182.122 165.99 182.666 163.169 182.693 163.085C182.666 163.141 182.122 164.398 181.389 164.482C180.655 164.566 181.552 162.415 181.552 162.415C181.552 162.415 180.818 163.169 179.053 163.253C177.287 163.337 179.786 162.024 179.786 162.024C177.45 162.303 172.75 161.744 173.891 160.99C175.032 160.236 176.798 159.398 176.798 159.398C173.402 159.035 170.061 155.207 170.821 154.313C171.038 154.062 171.609 154.034 172.587 154.397C177.042 156.045 188.995 153.196 187.23 152.833C185.464 152.47 184.241 150.403 185.926 151.241C187.61 152.079 190 150.486 190 150.486C188.099 150.291 187.637 148.056 188.343 148.894C189.05 149.732 191.984 149.676 191.984 149.676C189.892 149.425 190.354 146.268 190.354 146.268C190.435 147.944 194.456 148.615 194.456 148.615C194.456 148.615 212.576 147.972 215.754 148.419C218.932 148.894 220.101 148.503 220.101 148.503C220.101 148.503 217.194 145.989 218.253 145.961C219.313 145.933 221.568 148.391 221.568 148.391C221.323 147.553 222.111 146.129 222.111 146.129L222.763 148.754C223.306 147.805 225.099 147.441 225.099 147.441L223.496 149.62C223.496 149.62 228.93 150.626 227.843 150.347C226.783 150.067 226.974 148 227.137 148.838C227.3 149.676 230.587 149.62 230.587 149.62C230.098 149.285 229.174 148.28 229.174 148.28C235.123 151.66 245.392 150.71 245.392 150.71C245.392 150.71 241.969 146.771 244.659 148.28C247.321 149.788 253.135 148.838 253.135 148.838C250.717 148.056 251.505 144.844 251.505 144.844L255.552 149.62C255.552 149.62 255.063 144.145 255.552 144.229C256.041 144.313 256.856 151.269 256.856 151.269C256.856 151.269 257.997 147.525 259.111 147.525C259.98 147.525 259.057 150.067 258.568 151.269C259.084 150.57 260.66 149.592 265.414 149.984C272.558 150.57 285 155.068 285 155.068Z" fill="#80933B"/>
<path opacity="0.68" d="M188.223 167.171C188.223 167.171 191.929 167.047 194.336 169.918C196.744 172.79 197.988 175.042 197.988 175.042C197.988 175.042 197.312 171.057 196.365 169.819C195.418 168.582 199.178 169.696 201.261 171.824C203.371 173.953 205.751 185.908 206.238 188.16C206.725 190.413 208.321 192.764 207.942 192.64C207.564 192.517 203.56 191.873 203.56 191.873C203.56 191.873 199.909 183.012 200.585 177.418C200.585 177.418 199.016 180.784 201.234 188.259C203.452 195.734 202.478 193.606 202.478 193.606C202.478 193.606 200.179 192.863 199.99 192.492C199.827 192.121 197.474 182.517 196.798 179.398L197.258 183.334C197.258 183.334 196.203 180.784 194.85 177.69C193.525 174.596 189.981 170.933 188.575 170.042C187.168 169.151 183.111 166.775 183.002 166.255C182.894 165.76 186.6 166.255 187.087 166.874C187.574 167.493 189.765 169.696 190.739 169.597C191.712 169.498 190.414 169.696 188.223 167.171Z" fill="#B66237"/>
<path opacity="0.68" d="M203.693 172.238C203.693 172.238 206.358 173.152 208.063 174.881C209.742 176.61 210.595 182.759 210.595 182.759C210.595 182.759 209.928 176.239 209.262 174.634C208.596 173.029 211.314 175.869 213.02 175.869C214.725 175.869 218.696 175.375 218.696 175.375C218.696 175.375 220.961 176.042 220.694 177.499C220.428 178.956 222 189.23 222 189.23C222 189.23 219.468 190.638 218.909 189.23C218.376 187.822 217.896 180.685 217.896 180.166C217.896 179.623 216.537 180.462 217.497 185.921C218.456 191.379 218.696 191.897 218.696 191.897L216.484 192.391C216.484 192.391 214.245 183.525 214.166 180.882C214.086 178.24 213.712 177.573 213.712 177.573C213.712 177.573 213.259 180.808 213.739 183.13C214.245 185.451 215.445 192.416 215.445 192.416C215.445 192.416 212.114 193.404 210.808 192.416C209.475 191.428 208.25 179.499 207.957 178.734C207.663 177.993 208.01 183.624 208.756 187.526C209.502 191.428 209.502 191.428 209.502 191.428C209.502 191.428 207.93 191.848 206.731 185.624C205.532 179.4 203 172.288 203 172.288C203 172.288 205.212 173.621 205.532 176.264C205.532 176.214 205.985 173.967 203.693 172.238Z" fill="#B66237"/>
<path opacity="0.68" d="M224.664 192.855C224.664 192.855 222.309 176.236 221.187 175.068C220.066 173.901 224.328 174.571 224.664 174.323C225 174.075 226.01 175.913 226.795 175.739C227.58 175.565 228.505 175.416 228.505 175.416C228.505 175.416 228.168 174.174 229.009 178.496C229.851 182.819 231 192.259 231 192.259C231 192.259 230.187 192.756 228.925 192.333C227.664 191.911 226.402 182.422 225.785 179.59C225.169 176.758 224.552 177.503 225.477 181.85C226.402 186.173 227.327 192.184 227.327 192.184L224.664 192.855Z" fill="#B66237"/>
<path opacity="0.68" d="M232.009 192.116C232.009 191.788 229.35 177.122 230.15 176.692C230.922 176.263 232.896 176.44 233.325 176.692C233.754 176.945 233.982 177.626 234.211 180.252C234.44 182.877 235.212 182.195 235.126 184.644C235.04 187.092 235.04 187.698 235.126 188.203C235.212 188.708 236.27 187.345 235.698 186.007C235.126 184.644 235.898 184.341 235.469 182.296C235.04 180.252 235.126 181.438 234.955 179.494C234.783 177.551 233.182 176.516 235.126 176.44C237.071 176.364 241.046 175.935 241.017 178.308C240.989 180.681 241.418 183.129 241.246 184.745C241.075 186.36 239.845 187.875 239.473 186.613C239.101 185.351 239.33 185.805 238.873 182.296C238.415 178.813 238.301 178.636 238.015 178.131C237.729 177.626 237.872 181.085 238.272 183.887C238.672 186.689 238.472 188.279 238.987 188.456C239.502 188.632 240.96 188.96 241.847 187.092C242.733 185.224 242.733 191.333 242.991 191.333C243.248 191.333 238.158 192.595 237.214 192.091C236.27 191.586 236.642 187.345 236.642 187.345C236.642 187.345 235.898 188.203 235.87 190.475C235.841 192.772 235.355 192.999 234.955 192.797C234.554 192.595 232.324 187.092 231.981 183.382C231.666 179.646 230.98 184.745 233.267 191.762L232.009 192.116Z" fill="#B66237"/>
<path opacity="0.68" d="M245.585 192.855C245.416 191.942 244.15 183.746 243.982 183.252C243.813 182.758 243.729 184.733 243.982 187.547C244.235 190.362 243.757 192.189 243.813 191.596C243.897 191.028 243.054 183.968 242.632 180.833C242.21 177.697 241.451 176.29 242.632 176.364C243.813 176.438 246.147 176.784 248.228 177.846C250.31 178.932 252.756 180.265 252.925 182.166C253.094 184.067 252.925 187.449 252.925 187.449C252.925 187.449 251.744 188.535 251.491 186.042C251.238 183.548 250.731 180.981 250.563 180.66C250.394 180.339 250.225 182.487 250.478 185.375C250.731 188.263 249.803 188.683 250.984 189.35C252.166 190.016 251.828 191.423 251.153 191.497C250.478 191.571 248.735 193.546 247.497 183.227C246.907 178.166 246.232 177.179 246.316 178.166C246.4 179.154 248.228 191.744 248.228 191.744L245.585 192.855Z" fill="#B66237"/>
<path opacity="0.68" d="M252.818 191.639C252.818 191.639 252.566 190.433 252.174 189.662C251.753 188.892 252.146 189.226 252.818 188.789C253.491 188.353 253.659 185.169 253.659 183.628C253.659 182.088 254.583 182.524 255.088 182.935C255.592 183.372 256.265 185.195 256.181 187.095C256.096 188.969 256.601 187.993 256.265 185.22C255.928 182.447 257.441 185.785 258.506 186.735C259.599 187.685 260.664 188.635 260.664 189.072C260.664 189.508 261 191.665 261 191.665C261 191.665 258.002 193.385 257.918 191.665C257.834 189.945 257.834 188.404 257.834 188.404C257.834 188.404 257.161 189.611 257.077 191.768C256.993 193.925 254.92 192.281 255.004 191.845C255.088 191.408 255.004 185.374 254.752 185.734C254.499 186.068 254.836 191.152 254.163 191.665C253.491 192.153 252.818 191.639 252.818 191.639Z" fill="#B66237"/>
<path d="M285 155.068V194.54H262.534C262.534 194.54 275.628 193.702 280.952 182.835C286.277 171.968 270.928 162.582 263.159 158.671C255.389 154.76 249.25 155.291 243.164 155.235C237.079 155.207 234.987 155.682 231.483 153.503C227.978 151.297 227.815 150.403 227.489 153.503C227.164 156.492 222.274 153.95 221.567 153.978C222.029 153.783 224.175 152.693 222.409 151.939C220.318 151.045 217.764 154.341 217.764 154.341C217.764 154.341 214.015 152.107 212.874 151.939C211.76 151.799 215.02 156.213 211.407 153.503C207.821 150.766 203.964 150.794 205.431 151.157C206.898 151.52 208.147 154.341 208.147 154.341C208.147 154.341 204.453 151.883 201.383 151.939C198.313 151.967 196.873 153.392 188.289 156.185C179.704 158.951 170.767 154.313 170.767 154.313C170.984 154.062 171.554 154.034 172.532 154.397C176.988 156.045 188.941 153.196 187.175 152.833C185.409 152.47 184.187 150.403 185.871 151.241C187.555 152.079 189.946 150.486 189.946 150.486C188.044 150.291 187.582 148.056 188.289 148.894C188.995 149.732 191.929 149.676 191.929 149.676C189.837 149.425 190.299 146.268 190.299 146.268C190.381 147.944 194.401 148.615 194.401 148.615C194.401 148.615 212.521 147.972 215.699 148.419C218.878 148.894 220.046 148.503 220.046 148.503C220.046 148.503 217.139 145.989 218.199 145.961C219.258 145.933 221.513 148.391 221.513 148.391C221.268 147.553 222.056 146.129 222.056 146.129L222.708 148.754C223.252 147.805 225.045 147.441 225.045 147.441L223.442 149.62C223.442 149.62 228.875 150.626 227.788 150.347C226.729 150.067 226.919 148 227.082 148.838C227.245 149.676 230.532 149.62 230.532 149.62C230.043 149.285 229.119 148.28 229.119 148.28C235.069 151.66 245.338 150.71 245.338 150.71C245.338 150.71 241.915 146.771 244.604 148.28C247.266 149.788 253.08 148.838 253.08 148.838C250.662 148.056 251.45 144.844 251.45 144.844L255.498 149.62C255.498 149.62 255.009 144.145 255.498 144.229C255.987 144.313 256.802 151.269 256.802 151.269C256.802 151.269 257.943 147.525 259.057 147.525C259.926 147.525 259.002 150.067 258.513 151.269C259.029 150.57 260.605 149.592 265.359 149.984C272.558 150.57 285 155.068 285 155.068Z" fill="#99B54B"/>
<path d="M109 165.08C109 165.08 96.1344 172.452 92.3922 177.366C88.6499 182.28 85.7545 194.54 85.7545 194.54H22C22 194.54 23.994 170.602 78.6251 166.397C78.6251 166.372 106.214 163.13 109 165.08Z" fill="#632E18"/>
<path d="M0 158.313V194.54H22.4224C22.4224 194.54 30.1599 182.911 36.8622 179.92C43.5644 176.904 50.0759 178.193 52.0647 178.193C54.0536 178.193 47.4604 175.795 47.4604 175.795C47.4604 175.795 49.3947 176.233 50.8932 176.233C51.9285 176.233 51.5471 175.589 51.2201 175.176C51.7378 175.692 52.7731 176.646 53.1545 176.079C53.6722 175.305 54.653 174.016 54.653 174.016L54.8165 175.228L57.0233 174.454C57.0233 174.454 55.7155 176.594 56.5874 176.775C57.4592 176.955 58.658 174.119 58.6852 174.016L58.1676 176.775C59.7205 176.775 59.775 174.196 59.775 174.196C59.775 174.196 60.2382 175.408 62.6357 176.001C64.9788 176.594 63.3713 173.939 63.3168 173.861C63.3441 173.913 64.3521 174.918 67.8939 176.775C71.5175 178.657 77.6748 174.712 82.2247 172.288C86.7746 169.89 94.6755 167.982 98.7078 168.163C102.686 168.343 102.113 165.739 102.086 165.662C102.113 165.713 102.658 166.874 103.367 166.951C104.102 167.028 103.203 165.069 103.203 165.069C103.203 165.069 103.939 165.765 105.71 165.842C107.481 165.92 104.974 164.734 104.974 164.734C107.317 164.992 112.003 164.476 110.859 163.78C109.715 163.084 107.944 162.31 107.944 162.31C111.322 161.975 114.673 158.468 113.883 157.643C113.665 157.411 113.093 157.385 112.112 157.72C107.671 159.242 95.7381 156.638 97.509 156.277C99.2799 155.941 100.506 154.033 98.7895 154.807C97.1003 155.58 94.73 154.111 94.73 154.111C96.6372 153.93 97.1003 151.867 96.3647 152.641C95.6563 153.415 92.7412 153.363 92.7412 153.363C94.839 153.131 94.3486 150.243 94.3486 150.243C94.2669 151.79 90.2619 152.383 90.2619 152.383C90.2619 152.383 72.1714 151.79 69.011 152.203C65.8506 152.641 64.6791 152.28 64.6791 152.28C64.6791 152.28 67.5942 149.985 66.5317 149.959C65.4692 149.934 63.2351 152.203 63.2351 152.203C63.4803 151.429 62.6902 150.14 62.6902 150.14L62.0363 152.538C61.4914 151.687 59.6933 151.326 59.6933 151.326L61.3007 153.337C61.3007 153.337 55.879 154.265 56.9688 154.008C58.0313 153.75 57.8406 151.867 57.6772 152.641C57.5137 153.415 54.2171 153.363 54.2171 153.363C54.7075 153.054 55.6065 152.125 55.6065 152.125C49.6944 155.219 39.4232 154.369 39.4232 154.369C39.4232 154.369 42.8288 150.759 40.1588 152.125C37.4888 153.492 31.6857 152.641 31.6857 152.641C34.1104 151.919 33.2931 148.98 33.2931 148.98L29.2609 153.363C29.2609 153.363 29.7513 148.335 29.2609 148.412C28.7705 148.49 27.9804 154.884 27.9804 154.884C27.9804 154.884 26.8633 151.455 25.7191 151.455C24.8472 151.455 25.7735 153.776 26.2639 154.884C25.7463 154.24 24.1661 153.337 19.4255 153.698C12.3964 154.188 0 158.313 0 158.313Z" fill="#80933B"/>
<path opacity="0.68" d="M95.7701 171.484C95.7701 171.484 92.0673 171.372 89.6713 173.97C87.2754 176.545 86.0229 178.583 86.0229 178.583C86.0229 178.583 86.7036 175 87.6565 173.88C88.6095 172.761 84.8522 173.768 82.7285 175.672C80.632 177.575 78.2089 188.346 77.746 190.362C77.2832 192.377 75.6768 194.504 76.058 194.392C76.4391 194.28 80.4415 193.721 80.4415 193.721C80.4415 193.721 84.0898 185.749 83.4364 180.71C83.4364 180.71 85.0156 183.733 82.783 190.474C80.5776 197.214 81.5305 195.288 81.5305 195.288C81.5305 195.288 83.8448 194.616 84.0082 194.28C84.1715 193.945 86.513 185.301 87.2209 182.502L86.7581 186.04C86.7581 186.04 87.8199 183.756 89.154 180.957C90.4881 178.157 94.0276 174.866 95.4162 174.06C96.8047 173.253 100.889 171.104 100.998 170.656C101.107 170.208 97.4037 170.656 96.9136 171.216C96.4236 171.775 94.2454 173.768 93.2653 173.656C92.2579 173.567 93.5648 173.746 95.7701 171.484Z" fill="#B66237"/>
<path opacity="0.68" d="M80.3828 175.487C80.3828 175.487 77.6992 176.337 76.0085 177.944C74.3178 179.551 73.459 185.223 73.459 185.223C73.459 185.223 74.1299 179.184 74.8008 177.714C75.4718 176.245 72.7345 178.862 71.0169 178.862C69.2994 178.862 65.3277 178.403 65.3277 178.403C65.3277 178.403 63.0735 179.023 63.315 180.355C63.5833 181.687 62 191.193 62 191.193C62 191.193 64.5494 192.501 65.0862 191.193C65.6229 189.884 66.1059 183.294 66.1059 182.812C66.1059 182.307 67.4746 183.087 66.5085 188.139C65.5424 193.19 65.3009 193.65 65.3009 193.65L67.5282 194.109C67.5282 194.109 69.7557 185.911 69.8362 183.455C69.9167 180.998 70.2924 180.401 70.2924 180.401C70.2924 180.401 70.7486 183.386 70.2655 185.544C69.7557 187.68 68.548 194.132 68.548 194.132C68.548 194.132 71.8757 195.05 73.1907 194.132C74.5056 193.213 75.7401 182.169 76.0353 181.48C76.3305 180.791 75.9816 186.003 75.2571 189.608C74.5057 193.213 74.5056 193.213 74.5056 193.213C74.5056 193.213 76.0622 193.604 77.2698 187.84C78.4774 182.1 81 175.51 81 175.51C81 175.51 78.7994 176.727 78.4774 179.184C78.5311 179.161 78.0749 177.094 80.3828 175.487Z" fill="#B66237"/>
<path opacity="0.68" d="M60.3436 194.54C60.3436 194.54 62.6837 179.281 63.8114 178.202C64.9392 177.124 60.6537 177.744 60.3436 177.514C60.0053 177.285 58.9903 178.96 58.2009 178.822C57.4114 178.661 56.5092 178.524 56.5092 178.524C56.5092 178.524 56.8476 177.376 56.0018 181.346C55.1559 185.339 54 193.989 54 193.989C54 193.989 54.8176 194.448 56.0863 194.058C57.3269 193.668 58.6238 184.949 59.244 182.333C59.8643 179.74 60.4845 180.428 59.5542 184.398C58.6238 188.39 57.6934 193.897 57.6934 193.897L60.3436 194.54Z" fill="#B66237"/>
<path opacity="0.68" d="M52.1397 193.839C52.1397 193.539 54.586 180.171 53.8681 179.801C53.1501 179.408 51.342 179.57 50.9431 179.801C50.5443 180.032 50.3316 180.657 50.1188 183.039C49.9061 185.421 49.1882 184.82 49.2945 187.063C49.3743 189.306 49.3743 189.838 49.2945 190.301C49.2148 190.763 48.2309 189.538 48.7627 188.289C49.2945 187.063 48.5766 186.762 48.9755 184.912C49.3743 183.039 49.2945 184.126 49.4541 182.345C49.6136 180.564 51.1027 179.639 49.2945 179.57C47.4864 179.501 43.817 179.107 43.8435 181.281C43.8701 183.455 43.4713 185.675 43.6308 187.156C43.7904 188.613 44.9337 190 45.2794 188.844C45.6251 187.687 45.4124 188.104 45.8378 184.912C46.2633 181.744 46.3696 181.582 46.6355 181.119C46.9014 180.657 46.7685 183.825 46.3962 186.369C46.0239 188.913 46.2101 190.393 45.7315 190.532C45.2528 190.694 43.8967 190.995 43.0724 189.306C42.2481 187.618 42.2481 193.169 42.0088 193.169C41.7695 193.169 46.476 194.325 47.3535 193.862C48.2309 193.4 47.8853 189.538 47.8853 189.538C47.8853 189.538 48.5766 190.301 48.6032 192.382C48.6298 194.464 49.0552 194.672 49.4275 194.487C49.7998 194.302 51.8738 189.283 52.1663 185.907C52.4588 182.507 53.097 187.132 50.9697 193.539L52.1397 193.839Z" fill="#B66237"/>
<path opacity="0.68" d="M39.4333 194.54C39.6031 193.702 40.8483 186.229 41.0181 185.776C41.1879 185.323 41.2728 187.134 41.0181 189.694C40.7634 192.253 41.2445 193.928 41.1879 193.408C41.103 192.887 41.952 186.455 42.3765 183.579C42.801 180.703 43.5368 179.412 42.3765 179.503C41.2162 179.57 38.8674 179.888 36.7732 180.861C34.679 181.835 32.2453 183.081 32.0755 184.802C31.9057 186.523 32.0755 189.626 32.0755 189.626C32.0755 189.626 33.2357 190.599 33.4904 188.335C33.7451 186.07 34.2545 183.715 34.4243 183.42C34.5941 183.126 34.7639 185.074 34.5092 187.723C34.2545 190.373 35.1884 190.758 33.9998 191.347C32.8396 191.958 33.1508 193.226 33.83 193.317C34.5092 193.385 36.2638 195.174 37.509 185.753C38.1033 181.133 38.7825 180.227 38.6976 181.133C38.6127 182.039 36.7732 193.521 36.7732 193.521L39.4333 194.54Z" fill="#B66237"/>
<path opacity="0.68" d="M32.1767 193.519C32.1767 193.519 32.4305 192.451 32.8252 191.769C33.2482 191.087 32.8534 191.382 32.1767 191.019C31.5 190.632 31.3309 187.836 31.3309 186.472C31.3309 185.109 30.4004 185.495 29.9211 185.859C29.4136 186.245 28.7651 187.859 28.8496 189.518C28.9342 191.178 28.4267 190.314 28.7651 187.859C29.1034 185.404 27.609 188.359 26.5094 189.2C25.438 190.041 24.3383 190.86 24.3383 191.246C24.3383 191.632 24 193.519 24 193.519C24 193.519 27.0169 195.042 27.1015 193.519C27.1861 191.996 27.1861 190.632 27.1861 190.632C27.1861 190.632 27.8628 191.701 27.9474 193.587C28.032 195.474 30.1185 194.042 30.0339 193.656C29.9493 193.269 30.0339 187.973 30.2876 188.268C30.5414 188.564 30.203 193.042 30.8797 193.496C31.5 193.974 32.1767 193.519 32.1767 193.519Z" fill="#B66237"/>
<path d="M0 158.354V194.54H22.4455C22.4455 194.54 9.35455 193.767 4.03636 183.8C-1.28182 173.833 14.0455 165.231 21.7909 161.625C29.5364 158.019 35.6727 158.508 41.7545 158.483C47.8364 158.457 49.9364 158.895 53.4273 156.886C56.9182 154.877 57.1091 154.053 57.4091 156.886C57.7364 159.642 62.6182 157.298 63.3 157.324C62.8364 157.143 60.6818 156.165 62.4545 155.469C64.5545 154.645 67.0909 157.659 67.0909 157.659C67.0909 157.659 70.8546 155.598 71.9727 155.469C73.0909 155.341 69.8455 159.41 73.4182 156.912C77.0182 154.413 80.8364 154.413 79.3909 154.748C77.9182 155.083 76.6636 157.684 76.6636 157.684C76.6636 157.684 80.3455 155.444 83.4273 155.469C86.5091 155.495 87.9546 156.809 96.5182 159.358C105.082 161.908 114 157.633 114 157.633C113.782 157.401 113.209 157.375 112.227 157.71C107.782 159.23 95.8364 156.628 97.6091 156.268C99.3818 155.933 100.609 154.027 98.8909 154.8C97.2 155.572 94.8273 154.104 94.8273 154.104C96.7364 153.924 97.2 151.864 96.4636 152.636C95.7546 153.409 92.8364 153.357 92.8364 153.357C94.9364 153.126 94.4455 150.241 94.4455 150.241C94.3636 151.786 90.3546 152.379 90.3546 152.379C90.3546 152.379 72.2455 151.786 69.0818 152.198C65.9182 152.636 64.7455 152.276 64.7455 152.276C64.7455 152.276 67.6636 149.984 66.6 149.958C65.5364 149.932 63.3 152.198 63.3 152.198C63.5455 151.426 62.7545 150.138 62.7545 150.138L62.1 152.533C61.5545 151.683 59.7545 151.323 59.7545 151.323L61.3636 153.332C61.3636 153.332 55.9364 154.259 57.0273 154.001C58.0909 153.744 57.9 151.864 57.7364 152.636C57.5727 153.409 54.2727 153.357 54.2727 153.357C54.7636 153.048 55.6636 152.121 55.6636 152.121C49.7455 155.212 39.4636 154.362 39.4636 154.362C39.4636 154.362 42.8727 150.756 40.2 152.121C37.5273 153.486 31.7182 152.636 31.7182 152.636C34.1455 151.915 33.3273 148.979 33.3273 148.979L29.2909 153.357C29.2909 153.357 29.7818 148.335 29.2909 148.412C28.8 148.49 28.0091 154.877 28.0091 154.877C28.0091 154.877 26.8909 151.452 25.7455 151.452C24.8727 151.452 25.8 153.77 26.2909 154.877C25.7727 154.233 24.1909 153.332 19.4455 153.692C12.4091 154.233 0 158.354 0 158.354Z" fill="#99B54B"/>
<path d="M178.86 17.4863L243.869 8.30126L243.733 61.4821L178.86 17.4863Z" fill="#245C2E"/>
<path d="M243.597 8.62736L243.462 60.993L179.594 17.6494L243.597 8.62736ZM244.141 8.00235L178.127 17.3233L244.005 62.0256L244.141 8.00235Z" fill="#245C2E"/>
<path d="M247.402 8.30126H244.142V153.224H247.402V8.30126Z" fill="#245C2E"/>
<path d="M236.154 18.9538C235.909 18.6277 235.529 18.4375 235.121 18.4375L231.916 18.3016C231.943 17.1603 231.861 16.4266 231.861 16.4266L224.499 16.3994L217.137 16.3722C217.137 16.3722 217.056 17.1331 217.083 18.2473L213.877 18.356C213.47 18.356 213.089 18.5462 212.845 18.8723C212.6 19.1984 212.465 19.606 212.546 19.9864C212.736 21.0734 213.252 23.1931 214.584 25.0138C215.344 26.0192 216.241 26.8345 217.3 27.3779C218.441 27.9758 219.772 28.3019 221.212 28.3291C222.109 28.8726 223.168 29.2258 224.472 29.2802C225.776 29.2258 226.863 28.8726 227.759 28.3291C229.226 28.3019 230.53 27.9758 231.671 27.3779C232.731 26.8345 233.654 26.0464 234.415 25.0138C235.773 23.1931 236.289 21.1006 236.48 19.9864C236.534 19.6603 236.425 19.2527 236.154 18.9538ZM213.85 19.7962C213.85 19.7962 213.85 19.769 213.877 19.7419C213.904 19.7147 213.932 19.7147 213.932 19.7147L217.137 19.606C217.3 21.8343 217.816 24.742 219.446 26.7801C215.317 25.7746 214.149 21.6984 213.85 19.7962ZM235.148 19.8506C234.822 21.7528 233.654 25.829 229.525 26.8345C231.155 24.7964 231.698 21.8887 231.861 19.6603L235.094 19.769C235.094 19.769 235.121 19.769 235.148 19.7962C235.148 19.8234 235.148 19.8234 235.148 19.8506Z" fill="#245C2E"/>
<path d="M236.154 18.9538C235.909 18.6277 235.529 18.4375 235.121 18.4375L231.916 18.3016C231.943 17.1603 231.861 16.4266 231.861 16.4266L224.499 16.3994L217.137 16.3722C217.137 16.3722 217.056 17.1331 217.083 18.2473L213.877 18.356C213.47 18.356 213.089 18.5462 212.845 18.8723C212.6 19.1984 212.465 19.606 212.546 19.9864C212.736 21.0734 213.252 23.1931 214.584 25.0138C215.344 26.0192 216.241 26.8345 217.3 27.3779C218.441 27.9758 219.772 28.3019 221.212 28.3291C222.109 28.8726 223.168 29.2258 224.472 29.2802C225.776 29.2258 226.863 28.8726 227.759 28.3291C229.226 28.3019 230.53 27.9758 231.671 27.3779C232.731 26.8345 233.654 26.0464 234.415 25.0138C235.773 23.1931 236.289 21.1006 236.48 19.9864C236.534 19.6603 236.425 19.2527 236.154 18.9538ZM213.85 19.7962C213.85 19.7962 213.85 19.769 213.877 19.7419C213.904 19.7147 213.932 19.7147 213.932 19.7147L217.137 19.606C217.3 21.8343 217.816 24.742 219.446 26.7801C215.317 25.7746 214.149 21.6984 213.85 19.7962ZM235.148 19.8506C234.822 21.7528 233.654 25.829 229.525 26.8345C231.155 24.7964 231.698 21.8887 231.861 19.6603L235.094 19.769C235.094 19.769 235.121 19.769 235.148 19.7962C235.148 19.8234 235.148 19.8234 235.148 19.8506Z" fill="#245C2E"/>
<path d="M226.292 40.8566L224.988 28.0845L224.472 29.3618V29.3346L223.956 28.0574L222.598 40.8295L226.292 40.8566Z" fill="#245C2E"/>
<path d="M226.292 40.8566L224.988 28.0845L224.472 29.3618V29.3346L223.956 28.0574L222.598 40.8295L226.292 40.8566Z" fill="#245C2E"/>
<path d="M225.723 29.3345C225.723 30.0411 225.152 30.6117 224.446 30.5846C223.74 30.5846 223.169 30.0139 223.196 29.3074C223.196 28.6008 223.767 28.0301 224.473 28.0573C225.179 28.0573 225.75 28.628 225.723 29.3345Z" fill="#245C2E"/>
<path d="M225.723 29.3345C225.723 30.0411 225.152 30.6117 224.446 30.5846C223.74 30.5846 223.169 30.0139 223.196 29.3074C223.196 28.6008 223.767 28.0301 224.473 28.0573C225.179 28.0573 225.75 28.628 225.723 29.3345Z" fill="#245C2E"/>
<path d="M225.831 34.8509H223.087C222.842 34.8509 222.625 34.6335 222.625 34.389V34.2803C222.625 34.0357 222.842 33.8183 223.087 33.8183H225.831C226.075 33.8183 226.292 34.0357 226.292 34.2803V34.389C226.292 34.6335 226.102 34.8509 225.831 34.8509Z" fill="#245C2E"/>
<path d="M225.831 34.8509H223.087C222.842 34.8509 222.625 34.6335 222.625 34.389V34.2803C222.625 34.0357 222.842 33.8183 223.087 33.8183H225.831C226.075 33.8183 226.292 34.0357 226.292 34.2803V34.389C226.292 34.6335 226.102 34.8509 225.831 34.8509Z" fill="#245C2E"/>
<path d="M226.592 41.7533H222.3C222.001 41.7533 221.757 41.5087 221.757 41.2098V41.0739C221.757 40.775 222.001 40.5304 222.3 40.5304H226.592C226.891 40.5304 227.136 40.775 227.136 41.0739V41.2098C227.136 41.5087 226.891 41.7533 226.592 41.7533Z" fill="#245C2E"/>
<path d="M226.592 41.7533H222.3C222.001 41.7533 221.757 41.5087 221.757 41.2098V41.0739C221.757 40.775 222.001 40.5304 222.3 40.5304H226.592C226.891 40.5304 227.136 40.775 227.136 41.0739V41.2098C227.136 41.5087 226.891 41.7533 226.592 41.7533Z" fill="#245C2E"/>
<path d="M225.668 34.851L223.223 34.8238L223.169 35.5304H225.75L225.668 34.851Z" fill="#245C2E"/>
<path d="M225.668 34.851L223.223 34.8238L223.169 35.5304H225.75L225.668 34.851Z" fill="#245C2E"/>
<path d="M221.784 40.8566C221.757 40.9109 221.757 40.9653 221.757 40.9925V41.2642C221.757 41.5088 221.974 41.7262 222.219 41.7262H226.674C226.918 41.7262 227.136 41.5088 227.136 41.2642V40.9925C227.136 40.9381 227.136 40.8838 227.109 40.8566H221.784Z" fill="#245C2E"/>
<path d="M221.784 40.8566C221.757 40.9109 221.757 40.9653 221.757 40.9925V41.2642C221.757 41.5088 221.974 41.7262 222.219 41.7262H226.674C226.918 41.7262 227.136 41.5088 227.136 41.2642V40.9925C227.136 40.9381 227.136 40.8838 227.109 40.8566H221.784Z" fill="#245C2E"/>
<path d="M227.46 42.8132H221.402C220.995 42.8132 220.669 42.4871 220.669 42.0795V41.9164C220.669 41.5088 220.995 41.1827 221.402 41.1827H227.46C227.868 41.1827 228.194 41.5088 228.194 41.9164V42.0795C228.194 42.4871 227.868 42.8132 227.46 42.8132Z" fill="#245C2E"/>
<path d="M227.46 42.8132H221.402C220.995 42.8132 220.669 42.4871 220.669 42.0795V41.9164C220.669 41.5088 220.995 41.1827 221.402 41.1827H227.46C227.868 41.1827 228.194 41.5088 228.194 41.9164V42.0795C228.194 42.4871 227.868 42.8132 227.46 42.8132Z" fill="#245C2E"/>
<path d="M231.862 16.4266H229.172C229.172 16.4809 229.172 16.5624 229.172 16.6168C225.07 16.6711 217.165 16.7526 217.165 16.7526L229.009 18.3016C228.493 21.9158 226.836 26.3725 221.783 26.6171C220.615 26.5627 219.637 26.2638 218.795 25.829C219.882 27.7312 221.647 29.1986 224.5 29.3345C233.057 28.8997 231.862 16.4266 231.862 16.4266Z" fill="#245C2E"/>
<path d="M231.997 17.6223L217.002 17.5951C216.458 17.5951 216.051 17.1603 216.051 16.6168V16.3994C216.051 15.8559 216.485 15.4483 217.029 15.4483L232.024 15.4755C232.568 15.4755 232.975 15.9103 232.975 16.4538V16.6712C232.948 17.1875 232.513 17.6223 231.997 17.6223Z" fill="#245C2E"/>
<path d="M231.997 17.6223L217.002 17.5951C216.458 17.5951 216.051 17.1603 216.051 16.6168V16.3994C216.051 15.8559 216.485 15.4483 217.029 15.4483L232.024 15.4755C232.568 15.4755 232.975 15.9103 232.975 16.4538V16.6712C232.948 17.1875 232.513 17.6223 231.997 17.6223Z" fill="#245C2E"/>
<path d="M218.524 18.7092C218.524 18.7092 217.681 27.9486 225.016 28.0845C224.989 28.0845 219.746 26.1007 218.524 18.7092Z" fill="#245C2E"/>
<path d="M224.609 19.3071L225.695 21.5354L228.167 21.9158L226.374 23.655L226.782 26.1007L224.609 24.9322L222.381 26.0735L222.816 23.6278L221.05 21.8886L223.495 21.5354L224.609 19.3071Z" fill="#245C2E"/>
<path d="M224.391 18.9538L225.477 21.1821L227.922 21.5626L226.156 23.3017L226.564 25.7474L224.363 24.5789L222.163 25.7203L222.598 23.2746L220.805 21.5354L223.277 21.1821L224.391 18.9538Z" fill="#245C2E"/>
<path d="M224.391 18.9538L225.477 21.1821L227.922 21.5626L226.156 23.3017L226.564 25.7474L224.363 24.5789L222.163 25.7203L222.598 23.2746L220.805 21.5354L223.277 21.1821L224.391 18.9538Z" fill="#245C2E"/>
<path d="M178.86 17.4863L243.869 8.30126L243.733 61.4821L178.86 17.4863Z" fill="#00B7EC"/>
<path d="M243.597 8.62736L243.462 60.993L179.594 17.6494L243.597 8.62736ZM244.141 8.00235L178.127 17.3233L244.005 62.0256L244.141 8.00235Z" fill="black"/>
<path d="M247.402 8.30126H244.142V153.224H247.402V8.30126Z" fill="#5A6D73"/>
<path d="M236.154 18.9538C235.909 18.6277 235.529 18.4375 235.121 18.4375L231.916 18.3016C231.943 17.1603 231.861 16.4266 231.861 16.4266L224.499 16.3994L217.137 16.3722C217.137 16.3722 217.056 17.1331 217.083 18.2473L213.877 18.356C213.47 18.356 213.089 18.5462 212.845 18.8723C212.6 19.1984 212.465 19.606 212.546 19.9864C212.736 21.0734 213.252 23.1931 214.584 25.0138C215.344 26.0192 216.241 26.8345 217.3 27.3779C218.441 27.9758 219.772 28.3019 221.212 28.3291C222.109 28.8726 223.168 29.2258 224.472 29.2802C225.776 29.2258 226.863 28.8726 227.759 28.3291C229.226 28.3019 230.53 27.9758 231.671 27.3779C232.731 26.8345 233.654 26.0464 234.415 25.0138C235.773 23.1931 236.289 21.1006 236.48 19.9864C236.534 19.6603 236.425 19.2527 236.154 18.9538ZM213.85 19.7962C213.85 19.7962 213.85 19.769 213.877 19.7419C213.904 19.7147 213.932 19.7147 213.932 19.7147L217.137 19.606C217.3 21.8343 217.816 24.742 219.446 26.7801C215.317 25.7746 214.149 21.6984 213.85 19.7962ZM235.148 19.8506C234.822 21.7528 233.654 25.829 229.525 26.8345C231.155 24.7964 231.698 21.8887 231.861 19.6603L235.094 19.769C235.094 19.769 235.121 19.769 235.148 19.7962C235.148 19.8234 235.148 19.8234 235.148 19.8506Z" fill="#FCC13F"/>
<path d="M226.292 40.8566L224.988 28.0845L224.472 29.3618V29.3346L223.956 28.0574L222.598 40.8295L226.292 40.8566Z" fill="#FCC13F"/>
<path d="M225.723 29.3345C225.723 30.0411 225.152 30.6117 224.446 30.5846C223.74 30.5846 223.169 30.0139 223.196 29.3074C223.196 28.6008 223.767 28.0301 224.473 28.0573C225.179 28.0573 225.75 28.628 225.723 29.3345Z" fill="#FCC13F"/>
<path d="M225.831 34.8509H223.087C222.842 34.8509 222.625 34.6335 222.625 34.389V34.2803C222.625 34.0357 222.842 33.8183 223.087 33.8183H225.831C226.075 33.8183 226.292 34.0357 226.292 34.2803V34.389C226.292 34.6335 226.102 34.8509 225.831 34.8509Z" fill="#FCC13F"/>
<path d="M226.592 41.7533H222.3C222.001 41.7533 221.757 41.5087 221.757 41.2098V41.0739C221.757 40.775 222.001 40.5304 222.3 40.5304H226.592C226.891 40.5304 227.136 40.775 227.136 41.0739V41.2098C227.136 41.5087 226.891 41.7533 226.592 41.7533Z" fill="#FCC13F"/>
<g opacity="0.5">
<path d="M225.668 34.851L223.223 34.8238L223.169 35.5304H225.75L225.668 34.851Z" fill="#FFA42F"/>
</g>
<g opacity="0.5">
<path d="M221.784 40.8566C221.757 40.9109 221.757 40.9653 221.757 40.9925V41.2642C221.757 41.5088 221.974 41.7262 222.219 41.7262H226.674C226.918 41.7262 227.136 41.5088 227.136 41.2642V40.9925C227.136 40.9381 227.136 40.8838 227.109 40.8566H221.784Z" fill="#FFA42F"/>
</g>
<path d="M227.46 42.8132H221.402C220.995 42.8132 220.669 42.4871 220.669 42.0795V41.9164C220.669 41.5088 220.995 41.1827 221.402 41.1827H227.46C227.868 41.1827 228.194 41.5088 228.194 41.9164V42.0795C228.194 42.4871 227.868 42.8132 227.46 42.8132Z" fill="#FCC13F"/>
<path opacity="0.3" d="M231.862 16.4266H229.172C229.172 16.4809 229.172 16.5624 229.172 16.6168C225.07 16.6711 217.165 16.7526 217.165 16.7526L229.009 18.3016C228.493 21.9158 226.836 26.3725 221.783 26.6171C220.615 26.5627 219.637 26.2638 218.795 25.829C219.882 27.7312 221.647 29.1986 224.5 29.3345C233.057 28.8997 231.862 16.4266 231.862 16.4266Z" fill="#FFA42F"/>
<path d="M231.997 17.6223L217.002 17.5951C216.458 17.5951 216.051 17.1603 216.051 16.6168V16.3994C216.051 15.8559 216.485 15.4483 217.029 15.4483L232.024 15.4755C232.568 15.4755 232.975 15.9103 232.975 16.4538V16.6712C232.948 17.1875 232.513 17.6223 231.997 17.6223Z" fill="#FCC13F"/>
<path opacity="0.3" d="M218.524 18.7092C218.524 18.7092 217.681 27.9486 225.016 28.0845C224.989 28.0845 219.746 26.1007 218.524 18.7092Z" fill="#F4C676"/>
<path opacity="0.3" d="M224.609 19.3071L225.695 21.5354L228.167 21.9158L226.374 23.655L226.782 26.1007L224.609 24.9322L222.381 26.0735L222.816 23.6278L221.05 21.8886L223.495 21.5354L224.609 19.3071Z" fill="#FFA42F"/>
<path d="M224.391 18.9538L225.477 21.1821L227.922 21.5626L226.156 23.3017L226.564 25.7474L224.363 24.5789L222.163 25.7203L222.598 23.2746L220.805 21.5354L223.277 21.1821L224.391 18.9538Z" fill="#FEE2BF"/>
<path d="M224.391 18.9538L225.477 21.1821L227.922 21.5626L226.156 23.3017L226.564 25.7474L224.363 24.5789L222.163 25.7203L222.598 23.2746L220.805 21.5354L223.277 21.1821L224.391 18.9538Z" stroke="black" stroke-miterlimit="10"/>
<path d="M141.696 19.8503L152.916 23.6275L152.237 33.1387C152.237 33.1387 152.128 36.3724 149.303 36.5627L149.384 38.166C149.466 39.7693 148.623 40.9921 147.048 41.3726C146.287 41.5628 145.391 41.6715 144.386 41.59C141.18 41.3726 139.659 38.8182 139.93 37.6225C141.343 30.6658 140.501 33.3832 140.419 33.6278L140.528 30.8016L141.696 19.8503Z" fill="#F9B59D"/>
<path d="M148.164 27.4866C146.779 26.1822 145.04 27.704 144.958 27.7855C144.931 27.8127 144.904 27.8127 144.85 27.8127C144.823 27.8127 144.795 27.7855 144.768 27.7583C144.714 27.704 144.714 27.6225 144.768 27.5681C144.795 27.5409 146.751 25.8017 148.327 27.2692C148.381 27.3235 148.381 27.4051 148.327 27.4594C148.3 27.5409 148.218 27.5409 148.164 27.4866Z" fill="black"/>
<path d="M152.323 27.079C151.725 26.4812 150.53 27.3779 150.503 27.4051C150.476 27.4323 150.449 27.4323 150.421 27.4323C150.394 27.4323 150.34 27.4051 150.313 27.3779C150.258 27.3236 150.286 27.2421 150.34 27.1877C150.394 27.1334 151.753 26.1551 152.486 26.8888C152.54 26.9431 152.54 27.0247 152.486 27.079C152.459 27.1334 152.377 27.1334 152.323 27.079Z" fill="black"/>
<path d="M146.723 28.4922C146.75 28.2748 146.94 28.1118 147.157 28.1118C147.375 28.139 147.538 28.3292 147.538 28.5466C147.51 28.764 147.32 28.927 147.103 28.927C146.886 28.8999 146.723 28.7096 146.723 28.4922Z" fill="black"/>
<path d="M151.231 28.4922C151.259 28.2748 151.449 28.1118 151.666 28.1118C151.883 28.139 152.046 28.3292 152.046 28.5466C152.019 28.764 151.829 28.927 151.612 28.927C151.367 28.8999 151.204 28.7096 151.231 28.4922Z" fill="black"/>
<path d="M143.709 24.0082L141.617 21.3994C141.617 21.3994 141.454 20.9103 141.264 20.1494C141.074 19.3885 143.41 17.7037 145.339 16.7526C147.268 15.8286 148.3 18.0298 149.957 17.4319C152.972 16.345 155.254 18.0841 155.689 18.8722C156.586 20.5027 158.677 22.269 154.983 25.1224C151.315 28.0029 143.709 24.0082 143.709 24.0082Z" fill="black"/>
<path d="M141.21 33.7367C136.999 33.8726 138.031 27.9485 138.059 27.0518C138.086 26.155 137.053 24.5245 138.113 21.6168C139.172 18.7091 142.242 19.0624 142.242 19.0624L141.862 19.9048L143.03 23.9539L141.21 33.7367Z" fill="black"/>
<path d="M139.441 27.84C139.55 26.5085 140.691 25.503 142.022 25.6117C143.353 25.7204 144.331 26.8617 144.25 28.1933C144.141 29.5249 143 30.5303 141.669 30.4216C140.338 30.3129 139.36 29.1716 139.441 27.84Z" fill="#F9B59D"/>
<path d="M141.943 27.079C141.481 26.7801 140.883 26.9431 140.883 26.9431C140.856 26.9431 140.802 26.9431 140.802 26.8888C140.802 26.8616 140.802 26.8073 140.856 26.8073C140.883 26.8073 141.508 26.6442 142.024 26.9703C142.323 27.1605 142.486 27.4594 142.568 27.8942L142.622 28.1388L142.459 27.9486C142.432 27.9214 141.916 27.3236 141.209 27.704C140.829 27.9214 140.748 28.329 140.829 28.628C140.883 28.9269 141.128 29.3073 141.59 29.3345C141.59 29.3345 141.59 29.3345 141.617 29.3345C141.644 29.3345 141.671 29.3617 141.671 29.416C141.671 29.4432 141.644 29.4704 141.59 29.4704C141.59 29.4704 141.59 29.4704 141.563 29.4704C141.074 29.4432 140.748 29.0356 140.666 28.6551C140.557 28.1932 140.748 27.7855 141.128 27.5681C141.671 27.2692 142.16 27.5138 142.378 27.704C142.296 27.4323 142.16 27.2149 141.943 27.079Z" fill="#F07162"/>
<path d="M143.03 33.3563C144.931 37.1064 149.305 36.5629 149.305 36.5629L149.468 39.7424C142.84 38.7369 143.03 33.3563 143.03 33.3563Z" fill="#F07162"/>
<path d="M149.955 27.6227C149.982 27.6227 150.036 27.6499 150.036 27.677L150.226 30.9652L148.759 31.3456H148.732C148.705 31.3456 148.678 31.3184 148.678 31.2913C148.678 31.2641 148.678 31.2097 148.732 31.2097L150.09 30.8565L149.9 27.677C149.9 27.6499 149.927 27.6227 149.955 27.6227Z" fill="#F07162"/>
<path d="M147.621 32.5954C147.675 32.5954 150.256 32.7041 150.256 32.7041C150.256 32.7041 149.849 33.7639 148.898 33.7096C147.92 33.6824 147.621 32.5954 147.621 32.5954Z" fill="#FBFDFC"/>
<path d="M146.67 40.5304L149.495 38.9L150.582 41.862L148.273 44.1175L146.616 41.7533L145.094 44.0088L138.928 39.9326L140.15 37.1336L146.67 40.5304Z" fill="#9EBEE5"/>
<path d="M285 194.54H0V195.189H285V194.54Z" fill="#33192C"/>
<defs>
<linearGradient id="paint0_linear_1004_6112" x1="226.03" y1="10.7078" x2="26.3747" y2="186.871" gradientUnits="userSpaceOnUse">
<stop offset="0.0313228" stop-color="#86E5E3"/>
<stop offset="1" stop-color="#C8F59B"/>
</linearGradient>
</defs>
</svg>
