<svg width="285" height="196" viewBox="0 0 285 196" fill="none" xmlns="http://www.w3.org/2000/svg">
<path fill-rule="evenodd" clip-rule="evenodd" d="M147.5 3.01498C83.1588 3.01498 31 55.4933 31 120.229C31 148.664 41.064 174.735 57.8037 195.032H237.196C253.936 174.735 264 148.664 264 120.229C264 55.4933 211.841 3.01498 147.5 3.01498Z" fill="url(#paint0_linear_1004_5938)"/>
<path d="M201.3 59.0463C205.834 51.8393 215.291 49.7136 222.428 54.2503C229.591 58.813 231.704 68.3271 227.195 75.5081C224.953 79.0857 221.5 81.3929 217.713 82.2744C217.713 82.2744 211.142 83.9854 206.942 87.7444C206.942 87.7444 204.185 87.0703 202.459 86.0334C200.784 84.8927 199.006 82.6891 199.006 82.6891C200.578 77.2451 199.316 70.5307 199.316 70.5307C198.44 66.7458 199.058 62.6238 201.3 59.0463Z" fill="#FECC86"/>
<path d="M198.13 92.9033C199.238 93.6033 200.707 93.2662 201.429 92.1515L197.409 89.585C196.688 90.7257 197.023 92.2033 198.13 92.9033Z" fill="#203749"/>
<path d="M197.409 90.3886L200.681 92.4626C202.15 93.3959 204.108 92.9551 205.062 91.4775L207.922 86.9407L199.29 81.4448L196.43 85.9815C195.502 87.4851 195.94 89.4554 197.409 90.3886Z" fill="#203749"/>
<g opacity="0.3">
<path d="M201.3 59.0463C202.974 56.3761 205.319 54.4058 207.999 53.2133C205.886 65.0088 207.947 75.1711 215.11 83.1558C213.101 83.9076 210.292 85.152 207.922 86.9667L199.29 81.4707C200.372 76.3118 199.29 70.5826 199.29 70.5826C198.44 66.7458 199.058 62.6238 201.3 59.0463Z" fill="#FECC86"/>
</g>
<path d="M205.113 72.501C207.947 65.4236 210.138 62.0794 211.838 62.3127C213.152 62.4683 213.539 63.2201 213.616 63.8163C213.616 63.8941 213.642 63.9719 213.642 64.0756C214.209 64.1793 214.879 64.4126 215.652 64.9052L216.038 65.1385C216.785 65.631 217.301 66.1236 217.636 66.5902C217.713 66.5643 217.79 66.5384 217.868 66.5125C218.434 66.331 219.259 66.3569 219.98 67.4976C220.908 68.9493 218.847 72.3713 213.693 77.971C209.957 82.0151 205.938 85.7482 205.886 85.7741L205.577 85.4371C205.629 85.4112 209.622 81.7041 213.358 77.6599C219.8 70.6344 220.032 68.4309 219.594 67.7309C219.156 67.0309 218.615 66.7458 217.996 66.9273C217.945 66.9532 217.919 66.9532 217.868 66.9791C218.434 68.0938 218.125 69.053 217.971 69.416C217.533 70.427 216.553 71.101 215.755 70.8937C215.574 70.8418 215.239 70.6863 215.239 70.1159C215.214 69.2345 216.09 67.5754 217.198 66.7976C216.863 66.331 216.399 65.8903 215.755 65.5014L215.368 65.2681C214.75 64.8792 214.157 64.62 213.59 64.5163C213.384 65.8644 212.276 67.342 211.452 67.7309C210.936 67.9642 210.653 67.7568 210.524 67.6013C210.009 66.9791 210.189 65.7866 210.911 64.957C211.168 64.6459 211.916 63.9719 213.152 63.9978C213.152 63.946 213.152 63.8941 213.127 63.8682C213.023 63.2201 212.56 62.8571 211.735 62.7535C210.911 62.6498 209.03 63.7904 205.5 72.6565C203.464 77.7636 201.867 83.0003 201.841 83.0521L201.403 82.9225C201.454 82.8706 203.078 77.608 205.113 72.501ZM215.703 70.09C215.703 70.4011 215.832 70.427 215.884 70.427C216.373 70.5566 217.172 70.09 217.558 69.2086C217.842 68.5345 217.816 67.8346 217.455 67.1606C216.502 67.8346 215.677 69.3382 215.703 70.09ZM211.297 65.2422C210.679 65.9681 210.601 66.8754 210.936 67.2902C210.962 67.3161 211.039 67.4198 211.323 67.3161C212.019 67.005 212.998 65.631 213.178 64.4904C212.431 64.4385 211.787 64.6978 211.297 65.2422Z" fill="#F99247"/>
<path d="M207.922 87.0963C208.205 86.863 208.334 86.7852 208.566 86.6037L208.695 86.5C212.688 83.7261 217.661 82.404 217.713 82.404H217.739C221.707 81.4707 225.108 79.0598 227.272 75.5859C231.833 68.3531 229.668 58.7352 222.48 54.1466C218.074 51.3468 212.585 50.9579 207.819 53.1356L207.922 53.343C212.611 51.1913 218.022 51.5542 222.377 54.3281C229.462 58.8389 231.575 68.3012 227.092 75.4304C224.927 78.8524 221.604 81.2374 217.661 82.1448L217.455 82.1966C216.502 82.4818 212.147 83.8039 208.566 86.2667L208.437 86.3704C208.179 86.5519 208.076 86.6297 207.767 86.863L207.922 87.0963Z" fill="#21111D"/>
<path d="M227.066 67.0309L227.272 67.0828C227.272 67.0569 228.355 63.2201 225.881 59.9796L225.701 60.1092C228.097 63.2719 227.066 67.005 227.066 67.0309Z" fill="#21111D"/>
<path d="M225.753 67.8087L225.959 67.8605C225.959 67.8346 227.041 63.9978 224.568 60.7573L224.387 60.8869C226.783 64.0756 225.753 67.7828 225.753 67.8087Z" fill="#21111D"/>
<path d="M198.517 91.2442L199.47 91.8405C201.634 93.2144 204.52 92.5663 205.912 90.3887L208.076 86.9408L199.341 81.393L199.212 81.5745L207.741 87.0185L205.706 90.285C204.391 92.3589 201.66 92.9811 199.573 91.659L198.62 91.0627C197.641 90.4405 196.945 89.4554 196.662 88.3148L196.43 88.3666C196.765 89.5591 197.486 90.5702 198.517 91.2442Z" fill="#21111D"/>
<path d="M198.002 92.9812C199.883 94.1737 201.3 92.5145 201.3 92.4886L201.12 92.3331C201.068 92.3849 199.78 93.8885 198.054 92.7219L197.925 92.9034C197.976 92.9552 198.002 92.9552 198.002 92.9812Z" fill="#21111D"/>
<path d="M200.784 68.9234L200.99 68.8456C200.089 66.4865 201.145 64.1793 201.171 64.1533L200.965 64.0497C200.939 64.0756 199.831 66.4606 200.784 68.9234Z" fill="#21111D"/>
<path d="M201.738 68.2494L201.944 68.1716C201.274 66.4606 202.073 64.7755 202.073 64.7496L201.867 64.6459C201.841 64.7237 201.042 66.4347 201.738 68.2494Z" fill="#21111D"/>
<path d="M207.226 88.9628L207.355 88.7813C207.277 88.7295 200.063 84.0113 198.311 81.6781L198.13 81.8077C199.882 84.1668 206.917 88.7554 207.226 88.9628Z" fill="#21111D"/>
<path d="M206.195 90.596L206.324 90.4146C206.247 90.3627 198.44 85.1779 197.461 83.441L197.254 83.5447C198.259 85.3075 205.86 90.3627 206.195 90.596Z" fill="#21111D"/>
<path d="M204.753 92.0219L204.881 91.8404C204.804 91.7886 197.77 87.2 196.482 85.0224L196.275 85.126C197.589 87.3555 204.443 91.8145 204.753 92.0219Z" fill="#21111D"/>
<path d="M231.781 75.586L236.625 78.1266C236.78 78.2043 236.986 78.1525 237.089 77.971C237.166 77.8155 237.115 77.6081 236.934 77.5044L232.116 74.9897C231.961 74.912 231.755 74.9638 231.652 75.1453C231.575 75.3008 231.626 75.4823 231.781 75.586Z" fill="#F99247"/>
<path d="M234.022 66.7198C234.074 66.7458 234.151 66.7717 234.228 66.7717L239.665 66.5643C239.845 66.5643 240 66.4087 240 66.2013C240 66.0199 239.845 65.8643 239.639 65.8643L234.203 66.0717C234.022 66.0717 233.868 66.2273 233.868 66.4347C233.868 66.5643 233.919 66.668 234.022 66.7198Z" fill="#F99247"/>
<path d="M230.466 57.1019C230.569 57.1797 230.724 57.1797 230.853 57.1019L235.285 53.9133C235.439 53.8096 235.465 53.5762 235.362 53.4466C235.259 53.2911 235.027 53.2651 234.898 53.3688L230.466 56.5316C230.312 56.6353 230.286 56.8686 230.389 56.9982C230.415 57.0501 230.441 57.076 230.466 57.1019Z" fill="#F99247"/>
<path d="M198.981 55.8836C199.135 55.9873 199.341 55.9354 199.445 55.8058C199.548 55.6503 199.522 55.4429 199.367 55.3392L194.961 52.1246C194.807 52.0209 194.6 52.0468 194.497 52.2023C194.394 52.3579 194.42 52.5653 194.575 52.669L198.981 55.8836C198.981 55.8577 198.981 55.8836 198.981 55.8836Z" fill="#F99247"/>
<path d="M205.86 49.921C205.963 49.9729 206.066 49.9988 206.195 49.9469C206.376 49.8692 206.453 49.6618 206.376 49.4803L204.134 44.5029C204.057 44.3214 203.851 44.2436 203.67 44.3214C203.49 44.3992 203.413 44.6065 203.49 44.788L205.731 49.7655C205.757 49.8173 205.809 49.8692 205.86 49.921Z" fill="#F99247"/>
<path d="M215.548 47.5619C215.574 47.5878 215.626 47.6138 215.677 47.6138C215.857 47.6397 216.038 47.5101 216.064 47.3286L216.914 41.9104C216.94 41.729 216.811 41.5475 216.63 41.5216C216.45 41.4957 216.27 41.6253 216.244 41.8067L215.394 47.2249C215.368 47.3545 215.445 47.5101 215.548 47.5619Z" fill="#F99247"/>
<path d="M224.361 50.0247C224.515 50.1284 224.747 50.0766 224.825 49.921L227.659 45.2547C227.762 45.0991 227.71 44.8917 227.556 44.788C227.401 44.6843 227.195 44.7362 227.092 44.8917L224.258 49.5581C224.155 49.7136 224.206 49.921 224.361 50.0247Z" fill="#F99247"/>
<g opacity="0.5">
<path d="M209.494 55.4687C209.494 56.4539 211.195 57.2575 213.256 57.2316C215.317 57.2057 216.992 56.402 216.992 55.391C216.992 54.4058 215.292 53.6022 213.23 53.6281C211.169 53.654 209.494 54.4836 209.494 55.4687Z" fill="#F3FFFE"/>
</g>
<path d="M170.072 64.8274C169.634 60.9128 169.092 56.4538 168.397 51.7616C167.959 48.8581 167.521 46.0582 167.031 43.3621C165.82 41.5734 159.198 31.9814 153.143 27.0558L153.813 26.2003C158.734 30.2185 164.016 37.1922 166.567 40.7697C163.862 26.4336 162.728 19.6933 164.893 28.1187C165.691 31.2037 166.439 34.522 167.134 38.0736C167.701 33.4332 168.861 25.7337 171.025 20.3414L172.03 20.7562C169.17 27.9891 168.036 39.4735 167.856 41.7548C167.933 42.1437 168.01 42.5325 168.062 42.9473C168.113 42.9992 168.139 43.051 168.139 43.051L168.088 43.077C168.577 45.799 169.041 48.6507 169.479 51.606C170.123 55.8835 170.638 59.9795 171.051 63.6349C172.726 59.7981 172.004 64.1015 171.283 65.8384C171.308 66.1236 171.334 66.4087 171.386 66.6939C172.184 74.2638 173.653 108.51 173.653 108.587L172.571 108.665C172.571 108.587 171.102 74.4712 170.329 67.0828C169.247 65.4755 167.65 61.4054 170.072 64.8274Z" fill="#203749"/>
<path d="M178.469 127.979C178.469 127.979 204.544 95.9884 227.76 86.4224C227.76 86.4224 216.552 124.401 195.217 131.349C173.882 138.297 178.469 127.979 178.469 127.979Z" fill="#739936"/>
<path d="M198.956 106.773C210.86 94.0958 227.686 86.6815 227.866 86.6038L227.686 86.189C227.505 86.2667 210.602 93.707 198.621 106.462L198.956 106.773Z" fill="black"/>
<path d="M176.408 128.005C175.944 126.838 156.568 101.743 128.792 95.3659C128.792 95.3659 146.313 118.957 162.855 131.634C179.423 144.285 176.408 128.005 176.408 128.005Z" fill="#00697A"/>
<path d="M178.753 142.756C178.624 141.382 162.52 98.5807 134.306 79.682C134.306 79.682 141.314 113.461 164.916 131.401C188.518 149.366 178.753 142.756 178.753 142.756Z" fill="#739936"/>
<path d="M180.224 140.008C180.456 138.634 175.406 93.1368 152.758 67.8088C152.758 67.8088 151.212 102.262 169.634 125.568C188.057 148.848 180.224 140.008 180.224 140.008Z" fill="#00697A"/>
<path d="M170.431 140.889C169.968 139.593 166.876 93.9144 184.68 64.9311C184.68 64.9311 192.307 98.5548 178.316 124.79C164.273 150.999 170.431 140.889 170.431 140.889Z" fill="#739936"/>
<path d="M194.521 117.48C194.521 117.48 206.812 94.0702 206.425 78.075C206.425 78.075 185.864 92.4888 178.16 114.784C170.455 137.078 178.52 141.978 178.52 141.978L194.521 117.48Z" fill="#00697A"/>
<path d="M167.702 123.364L168.089 123.105C159.38 110.61 155.721 96.2218 154.227 86.3706C152.578 75.6898 153.016 67.8866 153.016 67.8088L152.552 67.7829C152.552 67.8607 152.114 75.7157 153.763 86.4483C155.283 96.3514 158.942 110.791 167.702 123.364Z" fill="black"/>
<path d="M157.058 124.609L157.367 124.272C142.036 109.184 134.615 79.9155 134.538 79.6303L134.1 79.734C134.177 80.0451 141.624 109.443 157.058 124.609Z" fill="black"/>
<path d="M154.74 124.972L154.998 124.609C148.608 119.942 129.154 95.4699 128.948 95.2106L128.587 95.4958C128.794 95.755 148.299 120.253 154.74 124.972Z" fill="black"/>
<path d="M170.174 123.053C170.174 122.975 170.741 115.561 172.828 99.0992C174.915 82.6633 184.758 65.1904 184.861 65.0089L184.475 64.7756C184.372 64.957 174.503 82.5077 172.39 99.0215C170.303 115.509 169.736 122.924 169.736 123.001L170.174 123.053Z" fill="black"/>
<path d="M176.178 122.431C176.745 117.687 182.259 106.021 182.31 105.917C189.396 91.7108 206.402 78.3858 206.582 78.2303L206.299 77.8673C206.118 77.9969 189.061 91.3998 181.898 105.71C181.666 106.202 176.307 117.557 175.74 122.379L176.178 122.431Z" fill="black"/>
<path d="M177.466 122.69H180.636L213.488 122.768L202.486 194.967L180.507 194.915H177.338L155.359 194.863L144.614 122.638L177.466 122.69Z" fill="#008AAA"/>
<g opacity="0.5">
<path d="M152.756 177.442L154.045 186.101L162.548 193.878L161.414 194.915H168.345L167.211 193.878L178.806 183.353L190.375 193.904L189.242 194.941H196.173L195.039 193.904L203.851 185.919L205.088 177.727L195.091 168.576L206.685 158.051L207.922 159.192L209.082 151.622L206.685 153.799L195.116 143.248L206.711 132.723L211.323 136.897L211.89 133.164L209.056 130.571L212.792 127.175L213.462 122.742H212.972L206.711 128.419L200.476 122.716H195.812L204.392 130.571L192.797 141.096L181.228 130.545L189.834 122.742H185.171L178.909 128.419L172.674 122.716H168.01L176.59 130.571L164.995 141.096L153.426 130.545L162.032 122.742H157.369L151.082 128.342L144.846 122.638H144.614L145.31 127.331L148.763 130.467L146.134 132.853L146.701 136.586L151.107 132.593L162.676 143.144L151.082 153.67L148.969 151.751L150.025 158.88L151.056 157.947L162.625 168.498L152.756 177.442ZM164.97 145.296L176.539 155.847L164.944 166.373L153.375 155.821L164.97 145.296ZM190.478 143.222L178.884 153.747L167.314 143.196L178.909 132.671L190.478 143.222ZM192.772 166.424L181.203 155.873L192.797 145.348L204.366 155.899L192.772 166.424ZM181.151 181.227L192.746 170.702L204.315 181.253L192.72 191.778L181.151 181.227ZM178.832 179.075L167.263 168.524L178.858 157.999L190.427 168.55L178.832 179.075ZM153.323 181.175L164.918 170.65L176.487 181.201L164.892 191.726L153.323 181.175Z" fill="#256084"/>
</g>
<path d="M144.203 128.264L213.617 128.393C214.751 128.393 215.653 127.486 215.653 126.345V120.175C215.653 119.035 214.751 118.127 213.617 118.127L144.228 117.972C143.095 117.972 142.193 118.879 142.193 120.02V126.19C142.167 127.331 143.069 128.264 144.203 128.264Z" fill="#00B7EC"/>
<path d="M145.825 36.1811C144.073 25.604 151.159 15.5714 161.671 13.8085C172.184 12.0457 182.156 19.1748 183.908 29.7519C184.784 35.0145 183.47 40.1216 180.661 44.1398C180.661 44.1398 175.92 51.3208 175.121 58.3982C175.121 58.3982 171.978 60.1091 169.479 60.5758C166.954 60.9387 163.449 60.3684 163.449 60.3684C160.383 53.9392 153.581 48.7025 153.581 48.7025C149.587 45.8249 146.701 41.4178 145.825 36.1811Z" fill="#FECC86"/>
<path d="M171.152 70.6604C172.776 70.3752 173.884 68.8198 173.626 67.1866L167.7 68.1976C167.983 69.8308 169.529 70.9456 171.152 70.6604Z" fill="#203749"/>
<path d="M168.396 68.8975L173.215 68.0938C175.379 67.7309 176.848 65.6569 176.487 63.4534L175.379 56.7909L162.676 58.9426L163.784 65.6051C164.145 67.7827 166.206 69.2604 168.396 68.8975Z" fill="#203749"/>
<g opacity="0.3">
<path d="M145.825 36.1811C145.181 32.2665 145.722 28.4038 147.242 25.0337C155.127 37.918 165.562 45.6953 178.961 47.147C177.698 49.558 176.1 53.1096 175.379 56.7908L162.676 58.9426C159.378 53.1874 153.555 48.7284 153.555 48.7284C149.587 45.8249 146.701 41.4178 145.825 36.1811Z" fill="#FECC86"/>
</g>
<path d="M160.642 45.5657C157.369 36.5181 156.648 31.5407 158.426 30.2963C159.791 29.3371 160.796 29.7 161.363 30.1926C161.44 30.2704 161.518 30.3222 161.595 30.4259C162.213 30.0371 163.038 29.7 164.172 29.5186L164.713 29.4149C165.821 29.2334 166.722 29.2593 167.444 29.4408C167.495 29.3371 167.547 29.2593 167.599 29.1556C167.985 28.5075 168.784 27.8335 170.407 28.3001C172.494 28.8964 173.422 33.8479 173.267 43.4658C173.164 50.4394 172.468 57.3353 172.468 57.3871L171.902 57.3093C171.902 57.2316 172.597 50.3616 172.7 43.4399C172.881 31.3851 171.257 29.1297 170.252 28.8445C169.222 28.5594 168.5 28.7668 168.088 29.4667C168.062 29.5186 168.037 29.5704 168.011 29.6223C169.479 30.1926 169.995 31.3592 170.149 31.8258C170.587 33.148 170.201 34.5997 169.299 35.0664C169.093 35.1701 168.655 35.2997 168.165 34.7812C167.392 33.9516 166.826 31.6703 167.238 30.0111C166.542 29.8556 165.718 29.8556 164.816 29.9852L164.275 30.0889C163.373 30.2445 162.6 30.5296 161.981 30.8926C162.909 32.3184 163.115 34.6775 162.651 35.7145C162.368 36.3626 161.904 36.3885 161.672 36.3626C160.667 36.207 159.843 34.9627 159.817 33.5628C159.817 33.0702 159.92 31.7999 161.131 30.7629C161.08 30.7111 161.054 30.6852 161.002 30.6333C160.384 30.1148 159.637 30.1667 158.761 30.7629C157.91 31.3592 157.086 34.0294 161.183 45.3583C163.527 51.8912 166.413 58.1648 166.439 58.2167L165.924 58.45C165.898 58.3981 163.012 52.1245 160.642 45.5657ZM168.603 34.3664C168.861 34.6516 169.016 34.5738 169.067 34.5479C169.634 34.2368 170.021 33.148 169.634 32.0073C169.351 31.1259 168.706 30.5037 167.83 30.1667C167.444 31.5925 167.933 33.6665 168.603 34.3664ZM160.41 33.5368C160.41 34.7553 161.131 35.6626 161.775 35.7663C161.827 35.7663 162.007 35.7922 162.136 35.4552C162.523 34.5738 162.316 32.448 161.518 31.2037C160.796 31.8258 160.384 32.6036 160.41 33.5368Z" fill="#F99247"/>
<path d="M175.482 56.9205C175.559 56.4539 175.611 56.2984 175.688 55.9095L175.74 55.7021C177.183 49.7136 180.738 44.2695 180.764 44.2177V44.1918C183.727 39.9661 184.887 34.8072 184.037 29.7001C182.259 19.0453 172.21 11.8383 161.62 13.6271C155.127 14.7159 149.664 18.9934 147.01 25.0856L147.268 25.1893C149.87 19.2008 155.255 14.9752 161.671 13.9123C172.107 12.1494 182.001 19.2527 183.753 29.752C184.603 34.7813 183.444 39.8624 180.532 44.0362L180.378 44.2436H180.403C179.734 45.3065 176.77 50.2321 175.456 55.5984L175.405 55.8058C175.302 56.1947 175.276 56.3502 175.199 56.8428L175.482 56.9205Z" fill="#21111D"/>
<path d="M176.692 21.8711L176.95 21.7415C176.924 21.6896 174.734 17.2047 169.71 16.2456L169.658 16.5307C174.554 17.464 176.667 21.8193 176.692 21.8711Z" fill="#21111D"/>
<path d="M176.1 23.7116L176.357 23.582C176.332 23.5302 174.141 19.0453 169.117 18.0861L169.065 18.3713C173.961 19.3304 176.1 23.6857 176.1 23.7116Z" fill="#21111D"/>
<path d="M170.123 68.7678L171.515 68.5345C174.71 67.9901 176.874 64.931 176.333 61.7164L175.483 56.6353L162.651 58.8129L162.702 59.0981L175.251 56.9723L176.049 61.7683C176.565 64.8273 174.503 67.7308 171.463 68.2493L170.072 68.4826C168.603 68.716 167.134 68.4049 165.949 67.5494L165.794 67.7827C167.057 68.6641 168.603 69.027 170.123 68.7678Z" fill="#21111D"/>
<path d="M171.102 70.816C173.859 70.3493 173.808 67.6014 173.808 67.5755H173.524C173.524 67.6792 173.576 70.1679 170.974 70.5308L171.025 70.816C171.025 70.8419 171.077 70.816 171.102 70.816Z" fill="#21111D"/>
<path d="M153.607 45.9029L153.736 45.6436C150.901 44.1919 150 41.1328 149.974 41.0809L149.69 41.1587C149.716 41.2106 150.644 44.3733 153.607 45.9029Z" fill="#21111D"/>
<path d="M153.916 44.4251L154.044 44.1658C151.983 43.1029 151.313 40.8735 151.313 40.8475L151.03 40.9253C151.081 41.029 151.751 43.3103 153.916 44.4251Z" fill="#21111D"/>
<path d="M176.383 59.2538L176.332 58.9686C176.229 58.9945 165.484 60.6537 161.877 59.9537L161.825 60.2389C165.484 60.9389 175.945 59.3316 176.383 59.2538Z" fill="#21111D"/>
<path d="M176.796 61.6647L176.744 61.3795C176.616 61.4054 164.969 63.1164 162.599 62.3128L162.496 62.5979C164.943 63.4016 176.306 61.7165 176.796 61.6647Z" fill="#21111D"/>
<path d="M176.616 64.2312L176.564 63.946C176.461 63.9719 166 65.6052 162.986 64.62L162.908 64.9052C166 65.8903 176.178 64.283 176.616 64.2312Z" fill="#21111D"/>
<path d="M188.287 25.9151H188.313L194.96 24.2041C195.192 24.1522 195.321 23.9189 195.27 23.6856C195.218 23.4523 194.986 23.3227 194.754 23.3745L188.107 25.0855C187.875 25.1374 187.746 25.3707 187.797 25.604C187.849 25.8114 188.055 25.941 188.287 25.9151Z" fill="#F99247"/>
<path d="M182.981 15.7012C183.059 15.6752 183.136 15.6493 183.213 15.5975L188.16 10.8015C188.341 10.646 188.341 10.3608 188.16 10.1793C188.006 9.99785 187.722 9.99785 187.542 10.1793L182.595 14.9753C182.414 15.1308 182.414 15.416 182.595 15.5975C182.698 15.6752 182.852 15.7271 182.981 15.7012Z" fill="#F99247"/>
<path d="M171.592 9.63475C171.747 9.60883 171.901 9.47921 171.953 9.29774L173.447 2.55744C173.499 2.32413 173.344 2.09081 173.112 2.03896C172.881 1.98711 172.649 2.14266 172.597 2.37597L171.103 9.11627C171.051 9.34959 171.206 9.5829 171.438 9.63475C171.489 9.66068 171.541 9.66068 171.592 9.63475Z" fill="#F99247"/>
<path d="M141.007 35.1442C141.239 35.1183 141.393 34.9109 141.367 34.6775C141.342 34.4442 141.135 34.2628 140.904 34.2887L134.075 34.9886C133.844 35.0146 133.663 35.222 133.689 35.4553C133.715 35.6886 133.921 35.8701 134.153 35.8441L140.981 35.1442C140.981 35.1442 140.981 35.1442 141.007 35.1442Z" fill="#F99247"/>
<path d="M142.475 23.7116C142.604 23.6857 142.733 23.6079 142.81 23.4524C142.913 23.245 142.81 22.9857 142.578 22.882L136.291 20.1081C136.085 20.0044 135.828 20.1081 135.725 20.3415C135.621 20.5489 135.725 20.8081 135.956 20.9118L142.243 23.6857C142.321 23.7375 142.398 23.7375 142.475 23.7116Z" fill="#F99247"/>
<path d="M149.613 13.3159C149.665 13.3159 149.716 13.2899 149.768 13.264C149.974 13.1344 150.025 12.8751 149.897 12.6678L146.186 6.86073C146.057 6.65333 145.8 6.60149 145.594 6.73111C145.387 6.86073 145.336 7.11997 145.465 7.32736L149.175 13.1344C149.278 13.2899 149.459 13.3418 149.613 13.3159Z" fill="#F99247"/>
<path d="M159.945 8.18301C160.177 8.13116 160.331 7.92377 160.306 7.69045L159.069 0.898306C159.017 0.664989 158.811 0.509442 158.579 0.561291C158.347 0.613139 158.193 0.820533 158.244 1.05385L159.481 7.84599C159.481 8.05339 159.713 8.20893 159.945 8.18301Z" fill="#F99247"/>
<g opacity="0.5">
<path d="M150.539 25.8634C151.39 26.7967 153.631 26.1227 155.564 24.3339C157.496 22.5711 158.372 20.3675 157.548 19.4342C156.698 18.501 154.456 19.175 152.523 20.9638C150.591 22.7525 149.689 24.9561 150.539 25.8634Z" fill="#F3FFFE"/>
</g>
<path d="M105.913 186.205L96.6366 184.208L96.5078 175.316L105.629 174.15L105.913 186.205Z" fill="#FE9F73"/>
<path d="M95.6063 185.79L103.362 188.045L107.51 185.505L112.277 190.638L113.514 191.001C113.952 191.13 114.261 191.519 114.21 191.986C114.158 192.582 113.591 192.945 113.024 192.789L94.9622 187.527C94.8333 187.501 94.756 187.345 94.7818 187.216L95.1168 186.023C95.2198 185.842 95.4259 185.738 95.6063 185.79Z" fill="#FEC786"/>
<path d="M95.6841 185.816L96.6117 182.601C96.6117 182.601 98.4411 181.201 100.167 182.705C100.167 182.705 102.564 185.738 105.965 183.897L111.711 188.771C111.711 188.771 113.334 189.912 113.54 191.026L95.6841 185.816Z" fill="#00B7EC"/>
<path d="M96.5435 182.607L95.627 185.794L95.7507 185.83L96.6672 182.643L96.5435 182.607Z" fill="black"/>
<path d="M102.59 184.416C102.848 184.494 103.003 184.52 103.003 184.52L103.028 184.39C103.003 184.39 101.405 184.157 100.22 182.705L100.117 182.783C100.941 183.794 102.023 184.234 102.59 184.416Z" fill="black"/>
<path d="M96.8718 184.796L96.7729 184.879L97.451 185.694L97.5498 185.611L96.8718 184.796Z" fill="black"/>
<path d="M97.5173 184.818L97.4185 184.901L98.0955 185.717L98.1944 185.634L97.5173 184.818Z" fill="black"/>
<path d="M113.691 192.815C113.949 192.686 114.155 192.478 114.233 192.193C114.387 191.675 114.078 191.104 113.563 190.949L95.7065 185.764C95.4231 185.686 95.1397 185.842 95.0624 186.127L94.8047 187.008L94.9335 187.034L95.1912 186.153C95.2427 185.945 95.4746 185.816 95.6808 185.893L113.537 191.078C113.975 191.208 114.258 191.675 114.129 192.141C114.052 192.374 113.898 192.582 113.666 192.686L113.691 192.815Z" fill="black"/>
<path d="M113.488 191.052L113.617 191.026C113.617 191.001 113.462 190.145 112.277 189.16C111.117 188.201 106.041 183.897 105.99 183.871L105.913 183.975C105.964 184.027 111.04 188.33 112.2 189.264C113.333 190.197 113.488 191.026 113.488 191.052Z" fill="black"/>
<path d="M25.5704 167.073L24.0244 157.662L32.1924 154.266L36.6242 162.381L25.5704 167.073Z" fill="#FE9F73"/>
<path d="M22.1712 157.299L22.9442 165.387L26.8092 168.317L23.8203 174.668L23.9491 175.964C24.0007 176.405 23.743 176.846 23.305 176.975C22.7381 177.157 22.1712 176.742 22.1197 176.172L20.3418 157.351C20.3161 157.221 20.4191 157.092 20.5737 157.066L21.7848 156.936C21.9651 156.936 22.1455 157.092 22.1712 157.299Z" fill="#FEC786"/>
<path d="M22.1465 157.377L25.4446 157.066C25.4446 157.066 27.4028 158.258 26.6556 160.41C26.6556 160.41 24.7489 163.754 27.6863 166.269L25.3157 173.424C25.3157 173.424 24.8777 175.368 23.9244 175.964L22.1465 157.377Z" fill="#00B7EC"/>
<path d="M25.4593 156.992L22.1763 157.307L22.1885 157.435L25.4715 157.12L25.4593 156.992Z" fill="black"/>
<path d="M26.0102 163.314C26.036 163.573 26.0618 163.728 26.0618 163.728L26.1906 163.702C26.1906 163.676 25.8041 162.095 26.7059 160.436L26.5771 160.358C25.9587 161.551 25.9587 162.717 26.0102 163.314Z" fill="black"/>
<path d="M23.4518 158.062L22.9482 158.997L23.0615 159.059L23.5651 158.124L23.4518 158.062Z" fill="black"/>
<path d="M23.6536 158.667L23.1489 159.6L23.2621 159.662L23.7668 158.729L23.6536 158.667Z" fill="black"/>
<path d="M22.3266 176.794C22.5328 177.001 22.8162 177.105 23.0996 177.079C23.6407 177.027 24.053 176.535 24.0014 175.99L22.2236 157.377C22.1978 157.092 21.9401 156.858 21.6567 156.884L20.7549 156.962L20.7807 157.092L21.6825 157.014C21.8886 156.988 22.0947 157.143 22.1205 157.377L23.8984 175.99C23.9499 176.457 23.5892 176.872 23.1254 176.924C22.8677 176.95 22.6358 176.872 22.4555 176.69L22.3266 176.794Z" fill="black"/>
<path d="M23.8984 175.939L23.9757 176.068C24.0015 176.042 24.7487 175.602 25.2125 174.124C25.6763 172.672 27.7634 166.347 27.7892 166.295L27.6603 166.243C27.6346 166.295 25.5475 172.646 25.0837 174.098C24.6199 175.498 23.8984 175.939 23.8984 175.939Z" fill="black"/>
<path d="M97.1006 106.099L98.595 109.547L110.319 131.582C110.319 131.582 113.591 138.011 112.406 144.985C111.195 151.959 107.278 177.753 107.278 177.753C107.278 177.753 99.5484 178.401 94.7816 177.546C94.7816 177.546 95.3742 147.889 95.3484 144.752C95.3227 141.615 81.4604 120.046 80.5585 118.983L73.3955 144.726C73.3955 144.726 69.7882 158.647 63.0632 159.347C56.3382 160.047 30.984 166.347 30.984 166.347C30.984 166.347 27.8921 157.558 28.6651 152.555L52.164 145.633C52.164 145.633 61.1307 112.45 63.3466 104.44C65.5625 96.429 81.3831 103.377 81.3831 103.377L97.1006 106.099Z" fill="#49263E"/>
<path d="M75.1218 139.152C75.1991 139.152 75.2506 139.1 75.2764 139.023L81.2026 117.713L83.1609 113.928C83.2124 113.85 83.1609 113.746 83.0836 113.695C83.0063 113.643 82.9032 113.695 82.8517 113.772L80.8934 117.583V117.609L74.9672 138.919C74.9414 138.997 74.9929 139.1 75.0702 139.126C75.096 139.152 75.1218 139.152 75.1218 139.152Z" fill="black"/>
<path d="M97.6416 144.493C97.7446 144.493 97.8219 144.415 97.8219 144.311C97.8219 144.207 97.7446 144.13 97.6416 144.13C95.8637 144.104 95.3741 143.767 95.2968 143.715L90.7362 134.823C90.6847 134.745 90.5816 134.693 90.5043 134.745C90.427 134.797 90.3755 134.901 90.427 134.978L95.0134 143.896V143.922C95.0907 144.026 95.5287 144.441 97.6416 144.493Z" fill="black"/>
<path d="M96.3809 145.478C96.4582 145.478 96.5097 145.426 96.5355 145.374C96.587 145.27 96.5355 145.167 96.4324 145.141C95.4276 144.7 95.2987 143.819 95.2987 143.819C95.273 143.715 95.1957 143.663 95.0926 143.663C94.9895 143.689 94.938 143.767 94.938 143.871C94.938 143.922 95.0926 144.959 96.2778 145.478C96.3294 145.478 96.3551 145.478 96.3809 145.478Z" fill="black"/>
<path d="M101.996 178.22C102.46 178.22 102.898 178.22 103.31 178.168C103.414 178.168 103.491 178.064 103.465 177.987C103.465 177.883 103.362 177.805 103.285 177.831C100.528 178.013 95.864 177.468 94.9364 177.364L95.4775 144.285C95.4775 144.181 95.4002 144.104 95.2971 144.104C95.1941 144.104 95.1168 144.181 95.1168 144.285L94.5757 177.675L94.7303 177.701C94.7818 177.676 98.9044 178.22 101.996 178.22Z" fill="black"/>
<path d="M101.326 176.353C104.856 176.353 107.794 175.939 107.819 175.913C107.923 175.887 107.974 175.809 107.974 175.705C107.948 175.602 107.871 175.55 107.768 175.55C107.691 175.55 100.193 176.639 94.8074 175.316C94.7044 175.29 94.6271 175.342 94.6013 175.446C94.5755 175.55 94.6271 175.627 94.7301 175.653C96.8172 176.198 99.1877 176.353 101.326 176.353Z" fill="black"/>
<path d="M53.9675 147.785C54.019 147.785 54.0963 147.759 54.1221 147.707C54.1736 147.629 54.1737 147.526 54.0706 147.448C53.0399 146.696 52.5504 145.789 52.4215 145.555L56.1834 130.753C56.2092 130.649 56.1577 130.545 56.0546 130.519C55.9515 130.493 55.8485 130.545 55.8227 130.649L52.0093 145.581L52.035 145.633C52.0608 145.685 52.5504 146.826 53.8387 147.733C53.8902 147.759 53.9417 147.785 53.9675 147.785Z" fill="black"/>
<path d="M29.5432 161.577C29.569 161.577 29.569 161.577 29.5947 161.577C29.6978 161.551 29.7493 161.447 29.7236 161.343C28.8475 158.155 28.8218 153.488 28.8475 152.633L51.9857 145.815C51.9857 146.152 52.063 146.852 52.398 147.811C52.4238 147.914 52.5268 147.966 52.6299 147.914C52.7329 147.889 52.7845 147.785 52.7329 147.681C52.2692 146.385 52.3465 145.607 52.3465 145.581L52.3722 145.322L52.1146 145.4L28.4868 152.373V152.503C28.4868 152.555 28.4095 157.895 29.3886 161.447C29.3886 161.525 29.4659 161.577 29.5432 161.577Z" fill="black"/>
<path d="M33.1483 166.113C33.1741 166.113 33.1741 166.113 33.1999 166.113C33.3029 166.087 33.3545 165.984 33.3287 165.906C33.3029 165.802 31.1128 156.314 31.2932 151.777C31.2932 151.674 31.2159 151.596 31.1128 151.596C31.0097 151.596 30.9324 151.674 30.9324 151.777C30.7521 156.34 32.9422 165.906 32.968 165.984C32.9937 166.061 33.0453 166.113 33.1483 166.113Z" fill="black"/>
<path d="M106.583 85.9039C106.583 85.9039 113.978 92.1517 115.189 92.7998C117.895 94.2515 143.713 101.096 143.713 101.096L145.516 93.2405L125.548 85.541L113.566 77.5304L106.583 85.9039Z" fill="#FE9F73"/>
<path d="M148.943 102.754C152.73 103.714 151.03 96.8956 151.107 94.4069C150.102 94.1736 149.252 93.9662 148.943 93.8625L150.824 92.333C151.236 92.1256 151.39 91.6071 151.159 91.1923C150.952 90.7775 150.437 90.622 150.025 90.8553L145.026 92.8514C144.769 93.007 144.588 93.5773 144.562 94.0699C142.81 98.6844 142.553 99.4103 142.192 100.706C142.192 100.732 148.943 102.754 148.943 102.754Z" fill="#FE9F73"/>
<path d="M181.8 95.0559C182.387 92.798 177.639 89.5933 171.196 87.8981C164.752 86.2028 159.053 86.6589 158.466 88.9168C157.88 91.1748 162.627 94.3794 169.071 96.0747C175.514 97.7699 181.213 97.3138 181.8 95.0559Z" fill="#F99247"/>
<path d="M160.28 92.5144L152.859 90.5701C151.957 90.3368 151.056 90.7516 150.618 91.5552C150.514 91.7626 150.437 91.9959 150.411 92.2552L149.458 103.688C149.175 104.751 149.819 105.839 150.875 106.125L156.363 107.576C157.42 107.862 158.502 107.213 158.785 106.151L161.697 94.9772C161.955 93.8625 161.336 92.7737 160.28 92.5144ZM157.549 105.088C157.317 105.943 156.441 106.462 155.59 106.254L152.189 105.347C151.339 105.114 150.824 104.232 151.03 103.377L151.648 93.2144C151.674 92.9811 151.751 92.7218 151.88 92.5144C152.241 91.9441 152.936 91.6589 153.632 91.8404L158.966 93.2403C159.816 93.4736 160.331 94.355 160.125 95.2105L157.549 105.088Z" fill="#F99247"/>
<path d="M155.255 107.473L150.746 106.202C149.793 105.943 149.149 105.01 149.226 104.025L149.252 103.817L150.154 93.1107C150.154 93.007 150.257 92.9292 150.36 92.9292C150.463 92.9292 150.54 93.0329 150.54 93.1366L149.612 104.025C149.535 104.854 150.051 105.606 150.849 105.814L155.358 107.084L155.255 107.473Z" fill="black"/>
<path d="M165.587 87.7962C166.025 87.874 166.489 87.9259 166.927 88.0036L167.03 87.0185C167.056 86.7852 167.133 86.5259 167.262 86.3186C167.623 85.7482 168.319 85.4631 169.014 85.6445L174.348 87.0444C175.198 87.2778 175.714 88.1592 175.507 89.0147L175.198 90.1553C175.662 90.3109 176.126 90.4924 176.564 90.6479L177.053 88.7036C177.337 87.6407 176.693 86.5519 175.636 86.2667L168.216 84.3224C167.314 84.0891 166.412 84.5039 165.974 85.3075C165.871 85.5149 165.794 85.7482 165.768 86.0075L165.587 87.7962Z" fill="#F99247"/>
<path d="M188.365 106.669C186.02 102.573 182.954 99.7213 178.729 98.8918L179.836 97.4919C184.449 98.6844 187.592 101.614 189.473 105.269L188.365 106.669Z" fill="#F99247"/>
<path d="M173.446 118.672L155.719 114.006C154.92 113.798 154.405 113.02 154.533 112.191L157.522 88.7813C157.651 87.9258 158.476 87.3814 159.3 87.5888L181.949 93.5514C182.748 93.7588 183.211 94.6143 182.954 95.392L175.43 117.583C175.146 118.413 174.27 118.879 173.446 118.672Z" fill="#FECC86"/>
<path d="M205.86 99.9806L177.414 105.814L174.76 116.105L206.994 100.992L205.86 99.9806Z" fill="#FECC86"/>
<path d="M156.905 92.9033L154.045 92.1515C153.942 92.1256 153.89 92.0219 153.916 91.9182C153.942 91.8145 154.045 91.7626 154.148 91.7886L157.008 92.5404L156.905 92.9033Z" fill="black"/>
<path d="M175.611 89.4035L175.25 89.2998L175.327 88.9887C175.533 88.211 175.07 87.4333 174.297 87.2259L172.287 86.7074C172.184 86.6815 172.132 86.5778 172.158 86.4741C172.184 86.3704 172.287 86.3185 172.39 86.3445L174.4 86.8629C175.353 87.1222 175.946 88.1073 175.688 89.0924L175.611 89.4035Z" fill="black"/>
<path d="M166.927 84.5039C166.876 84.4002 166.927 84.2705 167.031 84.2446C167.288 84.1409 167.778 84.0372 168.37 84.2187L174.709 85.8778C174.812 85.9038 174.863 86.0075 174.838 86.1112C174.812 86.2149 174.709 86.2667 174.606 86.2408L168.267 84.5816C167.752 84.452 167.34 84.5298 167.134 84.6076C167.082 84.6335 166.979 84.5816 166.927 84.5039Z" fill="black"/>
<path d="M183.959 104.465C183.933 104.362 184.011 104.258 184.114 104.232L205.912 99.7732L207.329 101.044L204.315 102.443C204.211 102.495 204.108 102.443 204.057 102.34C204.005 102.236 204.057 102.132 204.16 102.08L206.634 100.914L205.783 100.162L184.165 104.595C184.088 104.647 183.985 104.569 183.959 104.465Z" fill="black"/>
<path d="M188.262 103.61C188.262 103.584 187.077 101.562 184.397 99.7214C184.32 99.6695 184.294 99.5399 184.346 99.4621C184.397 99.3844 184.526 99.3584 184.603 99.4103C187.386 101.303 188.546 103.351 188.597 103.429L188.262 103.61Z" fill="black"/>
<path d="M161.31 87.1481C161.336 87.2259 161.439 87.2777 161.516 87.2777C163.887 86.8629 167.417 87.1222 171.153 88.0814C173.704 88.7554 175.997 89.6887 177.801 90.6738C177.904 90.7257 178.007 90.6997 178.058 90.596V90.5701C178.11 90.4923 178.058 90.3627 177.981 90.3368C176.178 89.3257 173.859 88.3925 171.23 87.7184C167.365 86.7074 163.835 86.4482 161.439 86.8889C161.336 86.9148 161.259 87.0444 161.31 87.1481Z" fill="black"/>
<path d="M155.642 102.78C155.771 102.858 155.925 102.78 155.925 102.651L157.703 88.8073C157.781 88.2888 158.193 87.8221 158.76 87.7444C158.914 87.7184 159.095 87.7444 159.249 87.7703L170.483 90.7256C170.587 90.7516 170.715 90.6738 170.715 90.5701C170.715 90.4664 170.664 90.3886 170.587 90.3627L159.352 87.4074C159.095 87.3296 158.837 87.3296 158.579 87.3814C157.884 87.511 157.394 88.0814 157.291 88.7554L155.513 102.599C155.565 102.677 155.59 102.754 155.642 102.78Z" fill="black"/>
<path d="M182.336 97.103C182.233 97.0771 182.13 97.1289 182.104 97.2326L175.224 117.557C174.992 118.283 174.245 118.698 173.498 118.49L155.771 113.824C155.075 113.643 154.611 112.943 154.714 112.217L154.792 111.517C154.817 111.413 154.714 111.309 154.611 111.309C154.508 111.309 154.431 111.387 154.405 111.465L154.328 112.165C154.199 113.072 154.766 113.954 155.668 114.187L173.395 118.853C174.322 119.087 175.276 118.568 175.559 117.661L182.439 97.3363C182.49 97.2326 182.439 97.1289 182.336 97.103Z" fill="black"/>
<path d="M182.851 94.381C182.774 94.4069 182.671 94.381 182.619 94.3032C182.516 94.1217 182.258 93.8625 181.872 93.7588L175.739 92.1515C175.636 92.1256 175.585 92.0219 175.611 91.9182C175.636 91.8145 175.739 91.7626 175.842 91.7886L181.975 93.3959C182.464 93.5255 182.774 93.8625 182.954 94.1217C183.006 94.1995 182.954 94.3291 182.851 94.381Z" fill="black"/>
<path d="M154.276 98.8139C154.019 99.4361 153.4 99.7472 153.271 99.6954L148.53 97.777C147.989 97.5696 147.706 96.9733 147.886 96.4289C148.092 95.8326 148.737 95.5216 149.303 95.7549L154.147 97.7251C154.173 97.6992 154.534 98.1918 154.276 98.8139Z" fill="#FE9F73"/>
<path d="M153.478 100.784C153.246 101.406 152.627 101.743 152.473 101.692L147.706 99.8509C147.165 99.6435 146.856 99.0472 147.036 98.5028C147.216 97.9066 147.86 97.5955 148.453 97.8029L153.349 99.6694C153.323 99.6953 153.709 100.162 153.478 100.784Z" fill="#FE9F73"/>
<path d="M152.318 102.366C152.138 102.884 151.623 103.143 151.52 103.117L147.603 101.666C147.165 101.51 146.907 101.017 147.036 100.577C147.191 100.084 147.706 99.825 148.196 100.006L152.215 101.484C152.189 101.458 152.499 101.847 152.318 102.366Z" fill="#FE9F73"/>
<path d="M153.245 99.8768C153.349 99.9028 153.426 99.8509 153.477 99.7472C153.529 99.6435 153.477 99.5139 153.374 99.488L148.633 97.5955C148.195 97.414 147.963 96.9215 148.092 96.4808C148.17 96.2475 148.324 96.066 148.556 95.9623C148.788 95.8586 149.02 95.8586 149.252 95.9364L153.58 97.6992C153.684 97.7511 153.812 97.6992 153.838 97.5955C153.89 97.4918 153.838 97.3622 153.735 97.3363L149.406 95.5734C149.071 95.4438 148.711 95.4438 148.401 95.5994C148.066 95.7549 147.835 96.0141 147.732 96.3771C147.525 97.0252 147.86 97.7251 148.504 97.9844L153.245 99.8768C153.22 99.8509 153.22 99.8768 153.245 99.8768Z" fill="#F07162"/>
<path d="M154.534 96.7141C154.302 97.2585 153.761 97.5437 153.632 97.4918L149.432 95.7808C148.969 95.5994 148.685 95.055 148.84 94.5883C149.02 94.0439 149.587 93.7847 150.102 93.9921L154.405 95.729C154.431 95.7549 154.766 96.1697 154.534 96.7141Z" fill="#FE9F73"/>
<path d="M153.606 97.6474C153.683 97.6733 153.761 97.6215 153.812 97.5437C153.838 97.44 153.812 97.3363 153.709 97.3104L149.509 95.6253C149.123 95.4698 148.917 95.029 149.02 94.6402C149.097 94.4328 149.226 94.2772 149.432 94.1736C149.638 94.0699 149.844 94.0699 150.05 94.1476L153.889 95.7031C153.993 95.729 154.096 95.7031 154.121 95.5994C154.147 95.4957 154.121 95.392 154.018 95.3661L150.179 93.8106C149.896 93.681 149.561 93.7069 149.277 93.8365C148.994 93.9662 148.788 94.1995 148.685 94.5106C148.504 95.0809 148.788 95.7031 149.38 95.9364L153.58 97.6215C153.58 97.6474 153.606 97.6474 153.606 97.6474Z" fill="#F07162"/>
<path d="M152.343 101.717C152.446 101.743 152.523 101.692 152.575 101.588C152.6 101.484 152.549 101.355 152.446 101.329L147.782 99.6176C147.318 99.4362 147.112 99.0214 147.241 98.5807C147.318 98.3474 147.473 98.1659 147.705 98.0363C147.937 97.9326 148.169 97.9066 148.401 98.0103L153.296 99.8769C153.399 99.9287 153.528 99.8769 153.554 99.7473C153.605 99.6436 153.554 99.5139 153.425 99.488L148.529 97.6215C148.194 97.4919 147.834 97.5178 147.524 97.6733C147.215 97.8289 146.958 98.114 146.855 98.4511C146.648 99.0992 146.983 99.7473 147.628 99.9806L152.291 101.692C152.317 101.718 152.317 101.717 152.343 101.717Z" fill="#F07162"/>
<path d="M151.493 103.273C151.57 103.299 151.648 103.247 151.699 103.169C151.725 103.065 151.673 102.962 151.596 102.936L147.68 101.484C147.319 101.354 147.113 100.966 147.216 100.603C147.267 100.421 147.396 100.266 147.577 100.162C147.757 100.084 147.937 100.058 148.143 100.136L152.163 101.614C152.266 101.64 152.369 101.588 152.395 101.51C152.421 101.406 152.369 101.303 152.292 101.277L148.272 99.799C147.989 99.6953 147.705 99.7212 147.422 99.8509C147.164 99.9805 146.958 100.214 146.881 100.499C146.726 101.043 147.01 101.614 147.551 101.795L151.467 103.247C151.467 103.273 151.467 103.273 151.493 103.273Z" fill="#F07162"/>
<path d="M55.2559 78.645C55.2559 78.645 44.1764 82.8188 41.1359 82.7669C38.0697 82.7151 18.4873 65.5532 18.4873 65.5532L23.6148 59.3573L41.8059 70.7122L52.9627 67.1865L55.2559 78.645Z" fill="#FE9F73"/>
<path d="M11.2731 59.8759C11.4277 59.487 11.8657 59.3315 12.2522 59.4611L14.6485 60.3166C14.7258 60.3425 14.8031 60.3166 14.8546 60.2647C14.9319 60.161 14.9061 60.0314 14.8031 59.9796L11.4535 58.2426C11.067 58.0353 10.9639 57.5945 11.2473 57.2575C11.505 56.9205 12.0461 56.7909 12.4326 56.9983L15.8337 58.7611C15.911 58.813 16.0141 58.7871 16.0656 58.7093L16.1172 58.6574C16.1687 58.5797 16.1687 58.45 16.0914 58.3982L12.7418 55.7539C12.4326 55.4947 12.3295 55.028 12.5614 54.691C12.8191 54.3281 13.3344 54.2503 13.6694 54.5355L17.019 57.2057C17.0963 57.2575 17.2251 57.2575 17.2766 57.1798L17.4055 57.0242C17.457 56.9464 17.457 56.8427 17.4055 56.765L14.6485 53.8874C14.365 53.6022 14.3393 53.1097 14.6227 52.8245C14.9319 52.4875 15.4472 52.4875 15.7564 52.7986C15.7564 52.7986 20.214 56.9464 20.9612 57.5427L21.1158 55.3132C21.0643 54.8984 21.3735 54.5096 21.7858 54.4577C22.198 54.4059 22.5845 54.717 22.6361 55.1317L23.7698 59.9796C23.7955 60.2647 23.4606 60.7054 23.0998 60.9906C20.549 64.7756 20.1367 65.3459 19.3637 66.2792L15.6791 63.1164C14.6227 62.209 13.3859 61.4832 12.0718 61.0165L11.7369 60.8869C11.2989 60.7573 11.0927 60.2907 11.2731 59.8759Z" fill="#FE9F73"/>
<path d="M42.5518 75.871C42.5776 75.871 42.5776 75.871 42.6033 75.871C42.7837 75.845 42.8868 75.6895 42.861 75.508L42.0623 70.6602C42.0365 70.4787 41.8819 70.375 41.7015 70.401C41.5212 70.4269 41.4181 70.5824 41.4439 70.7639L42.2426 75.6117C42.2684 75.7673 42.3972 75.871 42.5518 75.871Z" fill="#F07162"/>
<path d="M42.142 69.8565C42.142 69.8565 63.9662 60.8867 67.8053 60.7311C71.6188 60.5756 84.2185 60.7311 84.2185 60.7311C84.2185 60.7311 93.6232 61.5348 96.9729 62.3384C100.323 63.1421 120.343 81.989 120.343 81.989L145.001 92.3328C145.001 92.3328 144.692 97.3102 142.631 101.665C142.631 101.665 116.092 94.4326 112.536 92.3328L98.9569 80.278L99.4464 109.521C99.4464 109.521 78.0346 115.042 62.4975 105.606L64.3269 75.7153L41.4721 83.6222C41.4721 83.6222 38.3544 83.2074 33.4845 79.3188C28.6147 75.4302 18.875 67.5751 18.875 67.5751L25.0589 59.4349L42.142 69.8565Z" fill="white"/>
<path d="M63.5274 88.3406C63.6305 88.3406 63.7078 88.2628 63.7078 88.1591C64.1973 80.0449 65.1507 67.9901 65.1507 67.8605C65.1507 67.7568 65.0734 67.679 64.9703 67.6531C64.8673 67.6531 64.79 67.7309 64.7642 67.8346C64.7642 67.9642 63.8109 80.0189 63.3213 88.1332C63.3471 88.2628 63.4244 88.3406 63.5274 88.3406Z" fill="black"/>
<path d="M62.5225 75.7414C62.5998 75.7414 62.6514 75.7155 62.6771 75.6377L63.682 73.7712C63.7336 73.6934 63.7078 73.5638 63.6047 73.5119C63.5274 73.4601 63.3986 73.486 63.3471 73.5897L62.3422 75.4562C62.2906 75.534 62.3164 75.6636 62.4195 75.7155C62.471 75.7414 62.4968 75.7414 62.5225 75.7414Z" fill="black"/>
<path d="M61.5707 76.2342C61.648 76.2342 61.6996 76.2083 61.7253 76.1305L62.6787 74.1343C62.7302 74.0306 62.6787 73.9269 62.6014 73.8751C62.4983 73.8232 62.3953 73.8751 62.3437 73.9528L61.3904 75.949C61.3388 76.0527 61.3904 76.1564 61.4677 76.2083C61.5192 76.2342 61.545 76.2342 61.5707 76.2342Z" fill="black"/>
<path d="M95.0391 106.591C95.0907 106.591 95.168 106.565 95.1937 106.488L96.2502 104.647C96.3017 104.569 96.2759 104.44 96.1729 104.388C96.0956 104.336 95.9667 104.362 95.9152 104.465L94.8588 106.306C94.8072 106.384 94.833 106.513 94.9361 106.565C94.9876 106.591 95.0134 106.591 95.0391 106.591Z" fill="black"/>
<path d="M95.1428 107.68C95.1944 107.68 95.2717 107.654 95.2974 107.602L96.4827 105.736C96.5342 105.658 96.5085 105.528 96.4312 105.476C96.3539 105.425 96.225 105.451 96.1735 105.528L94.9882 107.395C94.9367 107.473 94.9625 107.602 95.0398 107.654C95.0655 107.68 95.0913 107.68 95.1428 107.68Z" fill="black"/>
<path d="M98.8572 44.9174L94.1935 56.0648C94.1935 56.0648 92.8279 59.7201 89.5298 58.8387L88.1126 63.868C87.5715 65.7345 85.8194 67.0048 83.887 66.8233C82.9336 66.7456 81.8772 66.5122 80.7435 66.0197C77.1877 64.5161 76.3632 60.9904 76.6466 59.5386C76.9043 58.0609 80.4858 52.0206 80.4858 52.0206L81.6968 48.806L87.2366 36.7512L98.8572 44.9174Z" fill="#FE9F73"/>
<path d="M90.5562 54.7948C89.7574 54.6133 89.0617 53.8615 88.5464 52.8504C90.1954 53.5504 91.0715 54.043 91.0715 54.043C91.123 54.1207 90.8138 54.8207 90.5562 54.7948Z" fill="white"/>
<path d="M83.5768 52.7468C83.5768 52.7468 81.2578 58.839 88.4724 62.5721L89.5288 58.8649C89.5288 58.8649 84.2725 57.7761 83.5768 52.7468Z" fill="#F07162"/>
<path d="M87.7955 47.1208C87.7697 47.0949 87.7182 47.0689 87.7182 47.043C87.6924 46.9652 87.7182 46.8615 87.7955 46.8356C87.8212 46.8356 90.7586 45.5912 91.9954 47.8985C92.0469 47.9763 91.9954 48.08 91.9181 48.1059C91.8408 48.1577 91.7377 48.1318 91.7119 48.0281C90.6298 45.9801 88.0531 47.0689 87.9243 47.1208C87.8728 47.1467 87.847 47.1467 87.7955 47.1208Z" fill="black"/>
<path d="M83.3442 43.3879L86.2816 45.41L86.6166 46.2655C86.6166 46.2655 88.6006 40.7437 88.446 39.4215C88.2656 38.0994 83.3442 43.3879 83.3442 43.3879Z" fill="black"/>
<path d="M94.2924 48.8322C94.2409 48.8063 94.2151 48.7803 94.1893 48.7285C94.1636 48.6507 94.2151 48.547 94.2924 48.5211C94.3697 48.4952 96.3022 47.873 96.869 49.0396C96.9206 49.1174 96.869 49.221 96.7917 49.247C96.7144 49.2988 96.6114 49.247 96.5856 49.1692C96.1476 48.2619 94.4212 48.8322 94.3955 48.8322C94.3697 48.8322 94.3439 48.8322 94.2924 48.8322Z" fill="black"/>
<path d="M90.559 48.9879C90.4559 49.2471 90.1725 49.3508 89.9148 49.2471C89.6572 49.1434 89.5541 48.8583 89.6572 48.599C89.7602 48.3398 90.0437 48.2361 90.3013 48.3398C90.5332 48.4694 90.6621 48.7546 90.559 48.9879Z" fill="black"/>
<path d="M95.4804 50.5688C95.3773 50.8281 95.0939 50.9318 94.8362 50.8281C94.5786 50.7244 94.4755 50.4392 94.5786 50.18C94.6816 49.9207 94.9651 49.817 95.2227 49.9207C95.4804 50.0244 95.5834 50.3096 95.4804 50.5688Z" fill="black"/>
<path d="M86.9232 47.2767C86.3048 48.7544 84.6042 49.4544 83.1097 48.8322C81.6411 48.21 80.9454 46.499 81.5638 44.9954C82.1822 43.5177 83.8827 42.8178 85.3772 43.44C86.8716 44.0881 87.5673 45.7991 86.9232 47.2767Z" fill="#FE9F73"/>
<path d="M83.1572 47.4317C82.5903 47.1984 82.41 46.6281 82.4615 46.1355C82.513 45.5652 82.8995 45.1763 83.3891 45.0726C84.1363 44.943 84.5744 45.4097 84.7805 45.7207C84.7805 45.3578 84.7032 45.0726 84.5228 44.8393C84.1106 44.3208 83.3633 44.269 83.3633 44.269C83.3118 44.269 83.286 44.2171 83.286 44.1912C83.286 44.1394 83.3376 44.1134 83.3633 44.1134C83.3891 44.1134 84.1879 44.1912 84.6259 44.7616C84.8836 45.0986 84.9866 45.5134 84.9093 46.0318L84.8578 46.317L84.7547 46.0578C84.729 46.0318 84.3682 45.1245 83.4149 45.28C82.8995 45.3578 82.6419 45.8244 82.6161 46.1874C82.5646 46.5762 82.6934 47.0947 83.2087 47.3021C83.2087 47.3021 83.2087 47.3021 83.2345 47.3021C83.286 47.328 83.286 47.354 83.286 47.4058C83.2603 47.4577 83.2087 47.4577 83.1572 47.4317C83.183 47.4577 83.1572 47.4577 83.1572 47.4317Z" fill="#F07162"/>
<path d="M90.8655 52.6949C90.8397 52.669 90.814 52.643 90.814 52.6171C90.814 52.5653 90.8655 52.5394 90.8913 52.5394L92.5919 52.669L93.5967 48.9359C93.5967 48.884 93.6483 48.8581 93.6998 48.884C93.7513 48.884 93.7771 48.9359 93.7513 48.9877L92.7207 52.8504L90.8655 52.6949Z" fill="#F07162"/>
<path d="M83.3442 43.3884C83.3442 43.3884 84.6326 37.7628 87.0546 36.4925C89.4766 35.2223 100.041 35.6889 100.762 37.1147C101.458 38.5665 99.8605 39.2664 99.8605 39.2664C99.8605 39.2664 104.035 39.6294 103.494 43.2588C102.952 46.8881 94.4753 44.9438 90.4042 41.3922C90.3527 41.4181 86.8485 41.0034 83.3442 43.3884Z" fill="black"/>
<path d="M120.239 82.067L120.393 81.9115L116.992 78.7487L103.8 67.0569C103.748 67.031 100.064 64.1015 98.3374 62.909C96.5853 61.6906 91.7412 61.4054 91.535 61.3795L91.5093 61.6128C91.5608 61.6128 96.4822 61.9239 98.1828 63.0905C99.9091 64.283 103.594 67.2124 103.619 67.2384L116.812 78.9302L120.239 82.067Z" fill="black"/>
<path d="M99.291 109.547H99.5229L99.0334 80.3042C98.9818 76.8303 97.8481 69.7012 97.8481 69.6234L97.6162 69.6493C97.6162 69.7271 98.7499 76.8303 98.8015 80.2782L99.291 109.547Z" fill="black"/>
<path d="M142.655 101.795L142.706 101.718C144.201 99.4103 145.051 92.6182 145.077 92.333V92.2552L142.629 91.2442L142.552 91.4516L144.819 92.4108C144.716 93.2144 143.892 99.3325 142.526 101.536L126.602 96.9993L126.551 97.2067L142.655 101.795Z" fill="black"/>
<path d="M141.032 101.121C142.192 98.5807 143.557 91.7886 143.583 91.7367L143.351 91.6849C143.326 91.7627 141.96 98.5289 140.826 101.018L141.032 101.121Z" fill="black"/>
<path d="M42.0131 73.512L42.2708 69.9604L54.819 65.0089L54.7417 64.8015L42.0389 69.7789L41.7812 73.4861L42.0131 73.512Z" fill="black"/>
<path d="M30.7778 77.297L30.9066 77.1414L19.0283 67.5495L25.0577 59.5907L42.0892 69.9604L42.2181 69.7789L25.0061 59.2796L24.9546 59.3574L18.6934 67.5754L30.7778 77.297Z" fill="black"/>
<path d="M27.2148 60.7502L21.3379 69.5828L21.5306 69.7126L27.4075 60.88L27.2148 60.7502Z" fill="black"/>
<path d="M83.1093 111.154C84.4234 100.37 83.3155 63.6349 83.3155 63.272H83.0836C83.0836 63.6349 84.1915 100.37 82.8774 111.128L83.1093 111.154Z" fill="#9EBEE5"/>
<path d="M84.9387 64.4126C84.9387 66.5125 85.3768 68.4049 85.7117 70.2974C88.5718 86.1112 102.46 95.2106 111.478 103.74L112.406 108.225L106.041 106.073C94.2662 95.5476 78.4456 84.9187 84.9387 64.4126Z" fill="#00B7EC"/>
<path d="M82.0015 66.9014L83.7536 68.8197L85.4799 68.7938L87.129 65.9681L85.3253 63.609L82.8518 63.5312L82.0015 66.9014Z" fill="#078AA8"/>
<path d="M74.1187 63.2721L76.2573 58.9946L85.7393 61.924L89.9134 60.0575L90.5834 63.6869L87.0018 68.1458L85.1982 65.5275L82.4927 68.7939L74.1187 63.2721Z" fill="white"/>
<path d="M78.1617 73.149L70.5864 72.9416L70.7926 74.0564H78.3936L78.1617 73.149Z" fill="#9EBEE5"/>
<path d="M82.5429 69.3901L85.1968 66.1755L87.0263 68.7938L90.8139 64.1015L90.479 63.8423L87.052 68.1198L85.2226 65.4755L82.4656 68.8457L74.3492 63.4794L75.4572 61.2499L75.0707 61.0684L73.8081 63.6349L82.5429 69.3901Z" fill="black"/>
<path d="M285 194.909H0V195.551H285V194.909Z" fill="#33192C"/>
<defs>
<linearGradient id="paint0_linear_1004_5938" x1="227.5" y1="13.0762" x2="29.946" y2="186.945" gradientUnits="userSpaceOnUse">
<stop offset="0.0313228" stop-color="#86E5E3"/>
<stop offset="1" stop-color="#C8F59B"/>
</linearGradient>
</defs>
</svg>
